<?xml version="1.0" encoding="utf-8"?>
<!-- Generator: Adobe Illustrator 17.1.0, SVG Export Plug-In . SVG Version: 6.00 Build 0)  -->
<!DOCTYPE svg PUBLIC "-//W3C//DTD SVG 1.1//EN" "http://www.w3.org/Graphics/SVG/1.1/DTD/svg11.dtd">
<svg version="1.1" xmlns="http://www.w3.org/2000/svg" xmlns:xlink="http://www.w3.org/1999/xlink" x="0px" y="0px"
	 viewBox="0 0 17.7 17.7" style="enable-background:new 0 0 17.7 17.7;" xml:space="preserve">
<style type="text/css">
	.st17{fill:#FFFFFF;}
	.st100{fill:#439797;}
</style>
<g id="Слой_1">
	<g>
		<circle class="st100" cx="8.8" cy="8.8" r="8.8"/>
		<g>
			<path class="st17" d="M9.6,13.4c0,0.1,0,0.2-0.1,0.3s-0.2,0.1-0.3,0.1H8.3c-0.1,0-0.2,0-0.3-0.1s-0.1-0.2-0.1-0.3v-0.9
				c0-0.1,0-0.2,0.1-0.3s0.2-0.1,0.3-0.1h0.9c0.1,0,0.2,0,0.3,0.1s0.1,0.2,0.1,0.3V13.4z M9.4,10.8c0,0.1,0,0.2-0.1,0.3
				c-0.1,0.1-0.2,0.1-0.3,0.1H8.5c-0.1,0-0.2,0-0.3-0.1c-0.1-0.1-0.1-0.2-0.1-0.3V3.6c0-0.1,0-0.2,0.1-0.3c0.1-0.1,0.2-0.1,0.3-0.1
				H9c0.1,0,0.2,0,0.3,0.1s0.1,0.2,0.1,0.3V10.8z"/>
		</g>
	</g>
</g>
</svg>
