<?xml version="1.0" encoding="utf-8"?>
<!-- Generator: Adobe Illustrator 22.0.1, SVG Export Plug-In . SVG Version: 6.00 Build 0)  -->
<svg version="1.1" xmlns="http://www.w3.org/2000/svg" xmlns:xlink="http://www.w3.org/1999/xlink" x="0px" y="0px"
	 viewBox="0 0 19.1 18.3" style="enable-background:new 0 0 19.1 18.3;" xml:space="preserve">
<style type="text/css">
	.st17{fill:#F7F7F7;}
</style>
<g id="Слой_1">
	<path class="st17" d="M2.3,0C0.9,0,0,0.9,0,2.1c0,1.2,0.9,2.1,2.3,2.1h0c1.4,0,2.3-0.9,2.3-2.1C4.6,0.9,3.7,0,2.3,0z M0.2,5.9h4.1
		v12.3H0.2V5.9z M14.4,5.7c-2.2,0-3.7,2.1-3.7,2.1V5.9H6.6v12.3h4.1v-6.9c0-0.4,0-0.7,0.1-1c0.3-0.7,1-1.5,2.1-1.5
		c1.5,0,2.1,1.1,2.1,2.8v6.6h4.1v-7.1C19.1,7.4,17.1,5.7,14.4,5.7z"/>
</g>
</svg>
