<?xml version="1.0" encoding="utf-8"?>
<!-- Generator: Adobe Illustrator 22.0.1, SVG Export Plug-In . SVG Version: 6.00 Build 0)  -->
<svg version="1.1" xmlns="http://www.w3.org/2000/svg" xmlns:xlink="http://www.w3.org/1999/xlink" x="0px" y="0px"
	 viewBox="0 0 171.1 79.2" style="enable-background:new 0 0 171.1 79.2;" xml:space="preserve">
<style type="text/css">
	.st0{fill:url(#SVGID_4_);}
	.st1{fill:#DCDCDC;}
	.st2{fill:#00B0EE;}
	.st3{fill:#0080E4;}
	.st4{fill:#FF463F;}
	.st5{fill:#00A857;}
	.st6{fill:#4F2A06;}
	.st7{fill:#4E3962;}
	.st8{fill:#005568;}
	.st9{fill:none;stroke:#F7F7F7;stroke-width:2;stroke-miterlimit:10;}
	.st10{clip-path:url(#SVGID_7_);fill:#FFFFFF;}
	.st11{clip-path:url(#SVGID_9_);fill:#FFFFFF;}
	.st12{clip-path:url(#SVGID_11_);fill:#FFFFFF;}
	.st13{clip-path:url(#SVGID_13_);fill:#FFFFFF;}
	.st14{fill:url(#SVGID_14_);}
	.st15{clip-path:url(#SVGID_16_);}
	.st16{fill:none;stroke:#D8ECEB;stroke-miterlimit:10;}
	.st17{fill:#FFFFFF;}
	.st18{clip-path:url(#SVGID_18_);}
	.st19{fill:url(#SVGID_21_);}
	.st20{fill:url(#f_4_);}
	.st21{fill:#787878;}
	.st22{opacity:0.35;fill:none;stroke:#787878;stroke-miterlimit:10;}
	.st23{fill:#006C93;}
	.st24{fill:#FF9D00;stroke:#FFFFFF;stroke-miterlimit:10;}
	.st25{fill:#F7F7F7;}
	.st26{fill:#FFFFFF;stroke:#CACCCD;stroke-miterlimit:10;}
	.st27{fill:#9E9E9E;}
	.st28{fill:url(#SVGID_22_);}
	.st29{fill:#439797;}
	.st30{fill:none;stroke:#FFFFFF;stroke-miterlimit:10;}
	.st31{fill:#4C4C4C;}
	.st32{opacity:0.4;}
	.st33{clip-path:url(#SVGID_24_);}
	.st34{fill:none;stroke:#787878;stroke-miterlimit:10;}
	.st35{fill:#3C3C3C;}
	.st36{opacity:0.4;fill:none;stroke:#9E9E9E;stroke-miterlimit:10;}
	.st37{fill:#C4C4C4;}
	.st38{fill:#4C4C4C;stroke:#939393;stroke-miterlimit:10;}
	.st39{fill:none;stroke:#9E9E9E;stroke-miterlimit:10;}
	.st40{clip-path:url(#SVGID_26_);fill:#FFFFFF;}
	.st41{clip-path:url(#SVGID_28_);fill:#FFFFFF;}
	.st42{clip-path:url(#SVGID_30_);fill:#FFFFFF;}
	.st43{clip-path:url(#SVGID_32_);fill:#FFFFFF;}
	.st44{fill:url(#SVGID_33_);}
	.st45{clip-path:url(#SVGID_35_);}
	.st46{clip-path:url(#SVGID_37_);}
	.st47{fill:none;stroke:#006C93;stroke-miterlimit:10;}
	.st48{clip-path:url(#SVGID_39_);fill:#FFFFFF;}
	.st49{clip-path:url(#SVGID_41_);fill:#FFFFFF;}
	.st50{fill:#F0F7F6;}
	.st51{fill:url(#SVGID_42_);}
	.st52{fill:#FFFFFF;stroke:#376B8F;stroke-width:2;stroke-miterlimit:10;}
	
		.st53{fill:none;stroke:#376B8F;stroke-width:2;stroke-linecap:round;stroke-linejoin:round;stroke-miterlimit:10;stroke-dasharray:0,5;}
	
		.st54{fill:none;stroke:#376B8F;stroke-width:2;stroke-linecap:round;stroke-linejoin:round;stroke-miterlimit:10;stroke-dasharray:0,6;}
	
		.st55{fill:none;stroke:#376B8F;stroke-width:2;stroke-linecap:round;stroke-linejoin:round;stroke-miterlimit:10;stroke-dasharray:0,12;}
	
		.st56{fill:none;stroke:#376B8F;stroke-width:2;stroke-linecap:round;stroke-linejoin:round;stroke-miterlimit:10;stroke-dasharray:0,18;}
	.st57{fill:none;stroke:#376B8F;stroke-width:2;stroke-miterlimit:10;}
	.st58{clip-path:url(#SVGID_44_);}
	.st59{opacity:0;}
	.st60{fill:url(#SVGID_45_);}
	.st61{fill:url(#SVGID_46_);}
	.st62{fill:url(#SVGID_47_);}
	.st63{fill:none;}
	.st64{clip-path:url(#SVGID_49_);fill:#FFFFFF;}
	.st65{clip-path:url(#SVGID_51_);fill:#FFFFFF;}
	.st66{clip-path:url(#SVGID_53_);fill:#FFFFFF;}
	.st67{clip-path:url(#SVGID_55_);fill:#FFFFFF;}
	.st68{clip-path:url(#SVGID_57_);}
	.st69{fill:url(#SVGID_58_);}
	.st70{fill:none;stroke:#3C3C3C;stroke-width:2;stroke-miterlimit:10;}
	.st71{fill:url(#SVGID_59_);}
	.st72{fill:none;stroke:#C6E5D8;stroke-miterlimit:10;}
	.st73{fill:url(#SVGID_60_);}
	.st74{fill:url(#SVGID_61_);}
	.st75{clip-path:url(#SVGID_63_);}
	.st76{opacity:0;clip-path:url(#SVGID_63_);}
	.st77{fill:url(#SVGID_64_);}
	.st78{fill:#FFFFFF;stroke:#006C93;stroke-width:2;stroke-miterlimit:10;}
	.st79{fill:url(#SVGID_65_);}
	.st80{fill:url(#SVGID_66_);}
	.st81{opacity:0.5;clip-path:url(#SVGID_68_);}
	.st82{clip-path:url(#SVGID_68_);}
	.st83{opacity:0;clip-path:url(#SVGID_68_);}
	.st84{fill:url(#SVGID_69_);}
	.st85{fill:none;stroke:#006C93;stroke-width:2;stroke-miterlimit:10;}
	.st86{fill:url(#SVGID_70_);}
	.st87{fill:url(#SVGID_71_);}
	.st88{opacity:0.5;clip-path:url(#SVGID_73_);}
	.st89{clip-path:url(#SVGID_73_);}
	.st90{opacity:0;clip-path:url(#SVGID_73_);}
	.st91{fill:url(#SVGID_74_);}
	.st92{opacity:0;fill:#FFFFFF;stroke:#006C93;stroke-width:2;stroke-miterlimit:10;}
	.st93{fill:url(#SVGID_75_);}
	.st94{fill:url(#SVGID_76_);}
	.st95{opacity:0.5;}
	.st96{fill:#FF9D00;}
	.st97{fill:none;stroke:url(#SVGID_77_);stroke-width:2;stroke-miterlimit:10;}
	.st98{fill:none;stroke:url(#SVGID_78_);stroke-width:2;stroke-miterlimit:10;}
	.st99{fill:none;stroke:url(#SVGID_79_);stroke-width:2;stroke-miterlimit:10;}
	.st100{fill:#999B9E;}
	.st101{clip-path:url(#SVGID_81_);fill:url(#SVGID_82_);}
	.st102{clip-path:url(#SVGID_81_);}
	.st103{opacity:0.2;clip-path:url(#SVGID_84_);}
	.st104{opacity:0;clip-path:url(#SVGID_84_);}
	.st105{opacity:0;clip-path:url(#SVGID_84_);fill:url(#SVGID_85_);}
	.st106{clip-path:url(#SVGID_84_);fill:url(#SVGID_86_);}
	.st107{opacity:0;clip-path:url(#SVGID_84_);fill:url(#SVGID_87_);}
	.st108{clip-path:url(#SVGID_84_);}
	.st109{fill:#D5EFE5;}
	.st110{opacity:0.3;fill:none;stroke:#D8ECEB;stroke-miterlimit:10;}
	.st111{clip-path:url(#SVGID_89_);fill:url(#SVGID_90_);}
	.st112{clip-path:url(#SVGID_89_);}
	.st113{opacity:0.2;clip-path:url(#SVGID_92_);}
	.st114{fill:none;stroke:#439797;stroke-miterlimit:10;}
	.st115{opacity:0.4;fill:none;stroke:#C6E5D8;stroke-miterlimit:10;}
	.st116{fill:url(#SVGID_93_);}
	.st117{fill:none;stroke:#FFFFFF;stroke-width:2;stroke-miterlimit:10;}
	.st118{fill:url(#SVGID_94_);}
	.st119{fill:url(#SVGID_95_);}
	.st120{fill:#E7F2F1;stroke:#006C93;stroke-miterlimit:10;}
	.st121{clip-path:url(#SVGID_97_);fill:#FFFFFF;}
	.st122{clip-path:url(#SVGID_99_);fill:#FFFFFF;}
	.st123{clip-path:url(#SVGID_101_);fill:#FFFFFF;}
	.st124{clip-path:url(#SVGID_103_);fill:#FFFFFF;}
	.st125{fill:url(#SVGID_104_);}
	.st126{clip-path:url(#SVGID_106_);}
	.st127{clip-path:url(#SVGID_108_);}
	.st128{fill:url(#SVGID_109_);}
	.st129{fill:url(#SVGID_110_);}
	.st130{fill:#FF3B3B;}
	.st131{fill:url(#SVGID_111_);}
	.st132{fill:url(#SVGID_112_);}
	.st133{fill:url(#SVGID_113_);}
	.st134{fill:none;stroke:#439797;stroke-width:2;stroke-miterlimit:10;}
	.st135{clip-path:url(#SVGID_115_);}
	.st136{clip-path:url(#SVGID_119_);}
	.st137{clip-path:url(#SVGID_123_);}
	.st138{clip-path:url(#SVGID_127_);}
	.st139{fill:#FFAD36;}
	.st140{fill:#545454;stroke:#939393;stroke-miterlimit:10;}
	.st141{fill:url(#SVGID_130_);}
	.st142{fill:url(#SVGID_131_);}
	.st143{fill:url(#SVGID_132_);}
	.st144{fill:#DF1C24;}
	.st145{fill:#414042;}
	.st146{fill:url(#SVGID_133_);}
	.st147{fill:url(#f_31_);}
	.st148{fill:none;stroke:#000000;stroke-width:2;stroke-miterlimit:10;}
	.st149{clip-path:url(#SVGID_135_);fill:#FFFFFF;}
	.st150{clip-path:url(#SVGID_137_);fill:#FFFFFF;}
	.st151{clip-path:url(#SVGID_139_);fill:#FFFFFF;}
	.st152{clip-path:url(#SVGID_141_);fill:#FFFFFF;}
	.st153{fill:url(#SVGID_142_);}
	.st154{clip-path:url(#SVGID_144_);}
	.st155{clip-path:url(#SVGID_146_);}
	.st156{opacity:0.4;fill:none;stroke:#000000;stroke-miterlimit:10;}
	.st157{fill:url(#SVGID_147_);}
	.st158{fill:url(#SVGID_148_);}
	.st159{fill:none;stroke:#DF1C24;stroke-miterlimit:10;}
	.st160{fill:#231F20;}
	.st161{fill:#00BCFF;}
	.st162{fill:url(#SVGID_159_);}
	.st163{fill:url(#f_33_);}
	.st164{clip-path:url(#SVGID_160_);}
	.st165{fill:url(#SVGID_161_);}
	.st166{clip-path:url(#SVGID_162_);}
	.st167{opacity:0;clip-path:url(#SVGID_162_);}
	.st168{fill:url(#SVGID_163_);}
	.st169{fill:url(#SVGID_164_);}
	.st170{fill:url(#SVGID_165_);}
	.st171{clip-path:url(#SVGID_166_);}
	.st172{opacity:0;clip-path:url(#SVGID_166_);}
	.st173{fill:url(#SVGID_167_);}
	.st174{fill:url(#SVGID_168_);}
	.st175{fill:url(#SVGID_169_);}
	.st176{clip-path:url(#SVGID_170_);}
	.st177{opacity:0;clip-path:url(#SVGID_170_);}
	.st178{fill:url(#SVGID_171_);}
	.st179{fill:url(#SVGID_172_);}
	.st180{fill:url(#SVGID_173_);}
	.st181{fill:none;stroke:url(#SVGID_174_);stroke-width:2;stroke-miterlimit:10;}
	.st182{fill:none;stroke:url(#SVGID_175_);stroke-width:2;stroke-miterlimit:10;}
	.st183{fill:none;stroke:url(#SVGID_176_);stroke-width:2;stroke-miterlimit:10;}
	.st184{fill:url(#SVGID_177_);}
</style>
<g id="Слой_1">
	<linearGradient id="SVGID_4_" gradientUnits="userSpaceOnUse" x1="-4.092726e-12" y1="39.5893" x2="171.0719" y2="39.5893">
		<stop  offset="0" style="stop-color:#006C93"/>
		<stop  offset="0.6047" style="stop-color:#439797"/>
	</linearGradient>
	<path class="st0" d="M43.9,79.2c0-0.2,0-0.3,0-0.4c0-26.2,0-52.4,0-78.7c0,0,0-0.1,0.1-0.1c0.1,0,0.2,0,0.2,0
		c1.1,0.4,2.1,0.9,3.1,1.6c0.7,0.5,1.3,1.1,1.9,1.6c9.2,9.2,18.4,18.4,27.5,27.5c1.2,1.2,2.1,2.5,2.7,4c0.4,0.8,0.6,1.7,0.8,2.6
		c0.1,0.4,0.1,0.8,0.1,1.1c0,0.1,0,0.3,0.1,0.4c0.1,0.5,0.1,0.9,0,1.4c0,0.1-0.1,0.3-0.1,0.4c0,0.4-0.1,0.8-0.2,1.3
		c-0.2,1.1-0.6,2.2-1.1,3.2c-0.3,0.6-0.7,1.1-1.1,1.7c-0.3,0.4-0.7,0.8-1.1,1.2c-9.4,9.4-18.8,18.8-28.2,28.2
		c-0.6,0.6-1.1,1.1-1.8,1.5C46,78.3,45,78.8,43.9,79.2z M29.3,6c0,9.7,0,19.4,0,29c0,0.2,0,0.3,0,0.5c0,0.1,0,0.2,0.1,0.3
		c2.3,0,4.6,0,6.9,0c0.1,0,0.1,0,0.2,0c0-0.1,0.1-0.1,0.1-0.1c0-11.9,0-23.7,0-35.6c0,0,0-0.1-0.1-0.1c-0.1,0-0.2,0-0.2,0
		c-0.5,0.2-0.9,0.3-1.4,0.6c-1.2,0.6-2.2,1.3-3.2,2.2c-0.7,0.7-1.3,1.3-2,2c-0.2,0.2-0.3,0.3-0.5,0.5C29.3,5.6,29.3,5.8,29.3,6z
		 M36.6,78.4c0-11.5,0-22.9,0-34.4c0-0.1,0-0.3,0-0.4c0-0.1,0-0.2-0.1-0.3c-0.2,0-0.3,0-0.5,0c-0.6,0-1.2,0-1.8,0c-1.5,0-3,0-4.6,0
		c-0.1,0-0.3,0-0.4,0.1c0,10.2,0,20.3,0,30.5c0.1,0.1,0.2,0.3,0.4,0.4c0.5,0.5,0.9,0.9,1.4,1.4c0.5,0.5,1.1,1,1.6,1.5
		c0.1,0.1,0.1,0.1,0.2,0.2c0.5,0.3,0.9,0.7,1.4,1c0.7,0.4,1.4,0.8,2.3,1C36.6,78.9,36.6,78.6,36.6,78.4z M14.6,20c0,0.2,0,0.5,0,0.7
		c0,4.8,0,9.6,0,14.4c0,0.2,0,0.3,0,0.5c0,0.1,0,0.2,0.1,0.3c0,0,0.1,0,0.2,0c2.3,0,4.5,0,6.8,0c0.1,0,0.2,0,0.3-0.1
		c0-7.7,0-15.3,0-22.9c0-0.1,0-0.1,0-0.2C21.5,13.1,15,19.6,14.6,20z M14.6,59.1c0.2,0.2,0.3,0.3,0.5,0.5c1.8,1.8,3.5,3.5,5.3,5.3
		c0.1,0.1,0.3,0.2,0.4,0.4c0.3,0.4,0.6,0.7,1,1c0.1,0.1,0.1,0.1,0.2,0.1c0-0.1,0.1-0.1,0.1-0.1c0-7.6,0-15.2,0-22.8
		c0,0,0-0.1-0.1-0.1c0,0-0.1,0-0.2,0c-2.3,0-4.7,0-7.1,0C14.6,48.6,14.6,53.8,14.6,59.1z M126.4,51.8c0.2-0.2,0.2-0.4,0.2-0.6
		c0-0.1,0-0.3,0-0.4c0.1-0.6,0.3-1.1,0.3-1.7c0.1-0.7,0.2-1.5,0.4-2.2c-0.3-0.1-0.6,0-0.9,0c-0.1,0-0.3,0-0.4,0
		c0.1-0.4,0.1-0.8,0.2-1.2c0.1-0.4,0.1-0.9,0.2-1.3c0.1-0.5,0.2-1.1,0.3-1.6c0.1-0.4,0.1-0.8,0.2-1.1c0.2-0.7,0.3-1.4,0.4-2.1
		c0.1-0.7,0.3-1.4,0.4-2.2c0.1-0.3,0.1-0.6,0.2-0.9c0.1-0.4,0.2-0.8,0.2-1.2c0-0.3,0.1-0.6,0.2-0.9c0.1-0.4,0.1-0.7,0.2-1.1
		c0.1-0.3,0.1-0.5,0.1-0.8c0.1-0.4,0-0.7-0.1-1.1c-0.1-0.4-0.2-0.6-0.4-0.9c-0.2-0.2-0.3-0.3-0.5-0.5c-0.6-0.2-1.2-0.4-1.8-0.3
		c-0.5,0-0.9,0-1.4,0c-0.4,0-0.8,0-1.2,0.1c-0.9,0.2-1.6,0.6-2.1,1.3c-0.2,0.3-0.4,0.7-0.5,1.1c-0.2,0.6-0.2,1.2-0.4,1.9
		c-0.1,0.6-0.2,1.3-0.3,1.9c-0.1,0.8-0.3,1.5-0.4,2.3c-0.2,0.3-0.1,0.7-0.2,1.1c-0.1,0.3-0.1,0.7-0.2,1.1c-0.1,0.7-0.3,1.5-0.4,2.2
		c-0.1,0.6-0.2,1.3-0.3,1.9c-0.1,0.3-0.1,0.5-0.1,0.8c-0.1,0.4-0.1,0.7-0.2,1.1c0,0.2-0.1,0.4-0.2,0.5c-0.2,0-0.5,0-0.7,0
		c-0.2,0-0.4-0.1-0.6,0.1c0,0.2,0,0.4-0.1,0.6c-0.2,0.6-0.2,1.2-0.3,1.7c-0.1,0.7-0.2,1.4-0.4,2.1c0,0.1,0,0.3,0.1,0.3
		c1.2,0.1,1.6,0,2-0.1c0.1-0.4,0.1-0.7,0.2-1.1c0.1-0.3,0.1-0.5,0.1-0.8c0-0.1,0.1-0.3,0.2-0.4c0.6-0.1,4.3-0.1,6.2,0
		c0.1,0,0.2,0,0.3,0c-0.1,0.4-0.2,0.8-0.2,1.1c0,0.4-0.3,0.8-0.1,1.3C125.2,51.8,125.8,51.8,126.4,51.8z M125.8,32.6
		c0,0.1,0,0.1,0,0.2c0,0.3,0,0.6-0.1,0.8c0,0.6-0.2,1.2-0.3,1.8c-0.1,0.4-0.1,0.8-0.2,1.1c0,0.6-0.2,1.2-0.3,1.8
		c0,0.4-0.2,0.7-0.2,1.1c0,0.3-0.1,0.7-0.2,1c-0.2,0.9-0.3,1.8-0.5,2.6c-0.1,0.3-0.1,0.6-0.1,0.9c-0.1,0.7-0.2,1.4-0.4,2.1
		c0,0.1,0,0.2,0,0.3c0,0.2-0.1,0.4-0.2,0.5c-0.4,0-2.1,0.1-2.7,0c-0.1,0-0.1,0-0.2-0.1c0.1-0.5,0.1-1,0.2-1.5
		c0.1-0.6,0.2-1.2,0.3-1.7c0.1-0.3,0-0.6,0.1-0.8c0-0.6,0.2-1.1,0.3-1.7c0.1-0.7,0.2-1.3,0.3-2c0.1-0.6,0.2-1.2,0.3-1.8
		c0.1-0.8,0.2-1.7,0.4-2.5c0.1-0.3,0.2-0.7,0.2-1c0-0.3,0.1-0.5,0.2-0.8c0.1-0.5,0.4-0.8,0.9-0.8c0.1,0,0.2,0,0.3,0
		c0.3-0.1,0.7-0.1,1,0c0.1,0,0.2,0,0.4,0C125.6,32.4,125.7,32.5,125.8,32.6z M6.9,27.7c-1.1,1.1-2.2,2.2-3.3,3.3
		c-0.4,0.4-0.8,0.9-1.1,1.4c-0.1,0.2-0.2,0.3-0.3,0.5c-0.5,0.8-0.9,1.6-1.2,2.4c-0.3,0.8-0.6,2.1-0.7,3c0,0.1,0,0.2,0,0.3
		c-0.1,0.6-0.1,1.1,0,1.7c0.1,0.2,0.1,0.5,0.1,0.8c0,0.1,0,0.3,0,0.4c0.2,0.7,0.3,1.5,0.6,2.2c0.6,1.5,1.3,2.9,2.5,4.1
		C4.5,49,5.7,50.2,7,51.4c0.1,0.1,0.2,0.2,0.4,0.3c0-8.2,0-16.2,0-24.5C7.1,27.5,7,27.6,6.9,27.7z M135.7,30.4
		c-0.1,0.4-0.1,0.8-0.2,1.1c-0.2,0.7-0.3,1.4-0.4,2.2c-0.1,0.3-0.1,0.6-0.2,0.9c-0.2,0.8-0.3,1.7-0.5,2.5c-0.1,0.3-0.1,0.6-0.1,0.9
		c0,0.6,0,1.2,0,1.8c0.2,0.3,0.3,0.6,0.4,0.9c0.5,0.4,1,0.6,1.6,0.5c0.8,0,1.5,0,2.3,0c0.1,0,0.2,0,0.4,0c-0.1,0.4-0.2,0.9-0.2,1.3
		c-0.1,0.4-0.1,0.8-0.2,1.1c-0.2,0.7-0.3,1.4-0.4,2.1c-0.1,0.6-0.3,1.1-0.9,1.2c-0.5,0-0.9,0-1.4,0c-0.3-0.1-0.4-0.3-0.5-0.5
		c0-0.1-0.1-0.2,0-0.3c0.2-0.3,0.1-0.7,0.2-1.1c0-0.1,0-0.2,0-0.3c-0.8,0-1.6,0-2.5,0c-0.3,0.7-0.2,1.5-0.4,2.1c0,0.4,0.1,0.7,0.1,1
		c0,0.1,0.1,0.2,0.2,0.3c0.3,0.6,0.8,0.9,1.4,1c0.5,0.1,1,0.2,1.5,0.1c0.7,0,1.3,0,2-0.1c0.9-0.2,1.6-0.5,2.2-1.2
		c0.4-0.6,0.7-1.3,0.8-2c0.1-0.4,0.1-0.7,0.2-1.1c0.2-0.8,0.3-1.7,0.4-2.5c0.1-0.6,0.2-1.2,0.3-1.8c0.1-0.7,0.2-1.3,0.3-2
		c0.1-0.3,0.1-0.7,0.2-1c0.1-0.4,0.2-0.7,0.2-1.1c0.1-0.6,0.3-1.2,0.3-1.8c0.1-0.4,0.2-0.7,0.2-1.1c0.1-0.6,0.2-1.2,0.3-1.8
		c0.1-0.6,0.2-1.2,0.3-1.7c0-0.1,0-0.2,0-0.3c-0.9,0-1.7,0-2.6,0c-0.1,0.8-0.3,1.6-0.4,2.5c0,0.2-0.1,0.4-0.1,0.6
		c0,0.7-0.3,1.3-0.3,1.9c-0.2,0.9-0.3,1.8-0.5,2.7c-0.1,0.6-0.4,1.2-1.1,1.4c-0.4,0-0.9,0-1.5,0c-0.1-0.2-0.2-0.3-0.2-0.4
		c-0.1-0.6,0.1-1.1,0.2-1.6c0.1-0.6,0.2-1.1,0.3-1.7c0.1-0.4,0.1-0.8,0.2-1.1c0.2-0.6,0.2-1.2,0.3-1.7c0.1-0.7,0.2-1.5,0.4-2.2
		c0-0.1,0-0.2-0.1-0.3c-0.6,0-1.2,0-1.8,0c-0.2,0-0.4,0-0.6,0C135.8,30,135.7,30.2,135.7,30.4z M150.2,49.3c0,0,0.1,0,0.1-0.1
		c0.1-0.4,0.2-0.9,0.3-1.4c0.1-0.6,0.2-1.3,0.3-1.9c0.1-0.7,0.3-1.5,0.4-2.2c0.1-0.3,0.1-0.6,0.2-0.9c0.2-0.8,0.3-1.7,0.5-2.5
		c0.1-0.6,0.2-1.2,0.3-1.8c0.1-0.7,0.2-1.3,0.3-2c0.1-0.4,0.2-0.7,0.2-1.1c0.1-0.8,0.3-1.6,0.4-2.4c0.1-0.4,0.1-0.8,0.2-1.1
		c0.1-0.6,0.2-1.2,0.3-1.7c0-0.1,0-0.3-0.1-0.4c-0.2,0-0.5,0-0.8,0c-0.3,0-0.6,0-0.8,0c-0.3,0-0.5-0.1-0.8,0.1
		c-0.1,0.5-0.2,0.9-0.3,1.4c-0.1,0.6-0.2,1.3-0.3,1.9c-0.1,0.7-0.2,1.3-0.3,2c-0.1,0.3-0.1,0.7-0.2,1c-0.1,0.4-0.2,0.9-0.2,1.3
		c-0.1,0.5-0.2,1-0.7,1.3c-0.7,0.2-0.7,0.2-1.9,0.1c-0.2-0.1-0.4-0.2-0.5-0.3c-0.3-0.3-0.3-0.6-0.2-1c0.1-0.5,0.2-1,0.3-1.5
		c0.1-0.4,0.1-0.8,0.2-1.1c0-0.6,0.2-1.2,0.3-1.8c0.1-0.6,0.2-1.3,0.3-1.9c0.1-0.4,0.1-0.9,0.2-1.3c0,0,0-0.1-0.1-0.2
		c-0.7-0.1-1.9,0-2.5,0c0,0.1-0.1,0.3-0.1,0.4c-0.1,0.4-0.1,0.8-0.2,1.1c-0.1,0.3-0.1,0.7-0.2,1c-0.1,0.6-0.2,1.2-0.3,1.8
		c-0.1,0.4-0.1,0.8-0.2,1.2c-0.1,0.5-0.2,1-0.3,1.6c0,0.2-0.1,0.5-0.1,0.7c0,0.6-0.1,1.2,0,1.7c0,0.4,0.2,0.8,0.5,1.1
		c0.4,0.5,1,0.7,1.6,0.7c0.9,0,1.8,0,2.7,0c0.1,0,0.2,0,0.4,0c-0.1,0.7-0.2,1.5-0.3,2.2c-0.1,0.8-0.3,1.5-0.4,2.3
		c-0.2,0.3-0.1,0.5-0.1,0.8c-0.2,0.8-0.3,1.7-0.5,2.5c0,0.1,0,0.2,0,0.3C148.5,49.4,149.9,49.4,150.2,49.3z M158.3,49.4
		c0.1,0,0.2,0,0.3,0c0.1-0.4,0.2-0.8,0.2-1.2c0.1-0.4,0.2-0.8,0.2-1.2c-0.3,0-0.6,0-0.9,0c-0.3,0-0.6,0-1,0c-0.3,0-0.6,0-0.9,0
		c-0.3,0-0.6,0-0.9,0c0-0.1-0.1-0.1-0.1-0.1c0.1-0.3,0.1-0.6,0.1-0.9c0.1-0.7,0.2-1.3,0.4-2c0.1-0.3,0.1-0.7,0.2-1
		c0.1-0.4,0.1-0.7,0.2-1.1c0.1-0.3,0.1-0.7,0.2-1c0-0.1,0.1-0.2,0.2-0.4c0.5,0,1.1,0,1.6,0c0.5,0,1.1,0,1.6,0
		c0.1-0.2,0.1-0.3,0.2-0.5c0.1-0.4,0.1-0.9,0.2-1.3c0-0.2,0.1-0.3-0.1-0.5c-0.2,0-0.5,0-0.7,0c-0.3,0-0.6,0-0.8,0
		c-0.3,0-0.5,0-0.8,0c-0.3,0-0.5,0-0.8,0c0-0.1-0.1-0.1-0.1-0.2c0.1-0.5,0.2-1,0.3-1.6c0-0.3,0.1-0.7,0.2-1c0.1-0.6,0.2-1.1,0.3-1.7
		c0.1-0.4,0.1-0.7,0.2-1.1c0-0.2,0.1-0.3,0.2-0.4c0.2-0.2,0.4-0.1,0.5-0.1c0.9,0,1.9,0,2.8,0c0.1,0,0.3,0,0.4-0.1
		c0-0.3,0.1-0.5,0.2-0.8c0.1-0.4,0.2-0.8,0.2-1.2c0-0.1,0-0.1,0-0.2c-0.7-0.1-5.8-0.1-6.3,0c-0.1,0.4-0.2,0.8-0.3,1.3
		c-0.1,0.6-0.2,1.3-0.3,1.9c-0.1,0.7-0.3,1.4-0.4,2.2c-0.1,0.3-0.1,0.6-0.2,0.9c-0.2,0.8-0.3,1.7-0.5,2.5c-0.1,0.6-0.2,1.2-0.3,1.8
		c-0.1,0.7-0.2,1.3-0.3,2c-0.1,0.3-0.1,0.7-0.2,1c-0.1,0.4-0.2,0.7-0.2,1.1c-0.1,0.6-0.3,1.2-0.3,1.8c-0.2,0.4-0.1,0.7-0.2,1.1
		c-0.1,0.4-0.1,0.8-0.2,1.2c0,0.2-0.1,0.4,0,0.7C153,49.4,156.3,49.4,158.3,49.4z M165.6,32.4c0,0.4-0.1,0.8-0.2,1.2
		c-0.2,0.8-0.3,1.7-0.5,2.5c0,0.6-0.2,1.2-0.3,1.8c-0.1,0.6-0.2,1.3-0.3,1.9c-0.1,0.2-0.1,0.5-0.1,0.7c0,0.7-0.2,1.3-0.3,1.9
		c-0.1,0.7-0.3,1.4-0.4,2.1c0,0.3-0.1,0.6-0.1,0.9c-0.2,0.6-0.2,1.1-0.3,1.7c-0.1,0.7-0.3,1.4-0.3,2.1c0,0,0.1,0.1,0.1,0.1
		c0.3,0.1,1.7,0.1,2.4,0c0-0.1,0.1-0.2,0.1-0.3c0-0.2,0-0.3,0.1-0.5c0.1-0.6,0.2-1.1,0.3-1.7c0.1-0.6,0.2-1.3,0.3-1.9
		c0.1-0.7,0.3-1.5,0.4-2.2c0.1-0.7,0.3-1.5,0.4-2.2c0.1-0.6,0.2-1.3,0.3-1.9c0.1-0.2,0.1-0.5,0.1-0.7c0.1-0.4,0.1-0.8,0.2-1.1
		c0.1-0.6,0.2-1.2,0.3-1.7c0.1-0.6,0.2-1.3,0.3-1.9c0-0.2,0.1-0.5,0.1-0.7c0-0.1,0.1-0.3,0.2-0.4c0.8,0,1.5,0,2.2,0
		c0.1-0.2,0.2-0.3,0.2-0.5c0-0.5,0.1-0.9,0.2-1.4c0-0.1,0.1-0.3-0.1-0.4c-0.1,0-0.3,0-0.4,0c-2.3,0-4.6,0-6.9,0c0,0,0,0-0.1,0
		c0,0,0,0-0.1,0.1c-0.1,0.5-0.2,1.1-0.3,1.7c0,0.2-0.1,0.4,0.1,0.6c0.7,0,1.4,0,2.2,0C165.5,32.2,165.6,32.3,165.6,32.4z
		 M109.9,48.7c0.1-0.5,0.2-0.9,0.2-1.4c0.1-0.4,0.1-0.7,0.2-1.1c0.1-0.5,0.2-1.1,0.3-1.6c0.1-0.6,0.3-1.2,0.3-1.8
		c0.2-0.4,0.1-0.8,0.2-1.1c0-0.6,0.2-1.2,0.3-1.8c0.1-0.7,0.2-1.3,0.3-2c0.1-0.6,0.2-1.1,0.3-1.7c0.2-0.3,0.1-0.6,0.2-0.9
		c0.1-0.6,0.2-1.1,0.3-1.7c0.1-0.4,0.1-0.8,0.2-1.1c0.1-0.4,0.2-0.9,0.3-1.3c0.1-0.4,0-0.8,0.2-1.1c0-0.1,0-0.2,0-0.2
		c-0.8-0.1-2,0-2.5,0c-0.1,0.2-0.2,0.3-0.2,0.5c-0.1,0.4-0.1,0.8-0.2,1.2c-0.1,0.8-0.3,1.6-0.4,2.4c-0.1,0.4-0.1,0.8-0.2,1.1
		c-0.2,0.7-0.2,1.3-0.4,2c-0.1,0.6-0.2,1.1-0.3,1.7c-0.1,0.6-0.1,1.1-0.3,1.7c0,0.6-0.2,1.3-0.3,1.9c0,0.3-0.1,0.7-0.2,1
		c-0.1,0.4-0.2,0.8-0.2,1.2c-0.1,0.3-0.1,0.6-0.2,0.9c-0.1,0.4-0.1,0.8-0.2,1.1c-0.1,0.4-0.2,0.8-0.2,1.2c-0.1,0.4-0.1,0.7-0.2,1.1
		c0,0.1,0,0.3,0.1,0.4c0.4,0.1,2,0.1,2.3,0c0.1,0,0.1-0.1,0.2-0.1C109.8,49.1,109.8,48.9,109.9,48.7z M104.2,43.8
		c-0.5,0.9-1,1.9-1.5,2.9c-0.4,0.7-0.8,1.4-1.1,2.1c-0.1,0.2-0.2,0.3-0.3,0.5c0.3,0.1,0.6,0.1,0.8,0.1c0.3,0,0.6,0,0.9,0
		c0.3,0,0.6,0.1,0.8-0.1c1.6-3.2,3.3-6.4,4.8-9.5c0-0.5,0.1-1,0-1.4c-0.1-0.4-0.1-0.7-0.1-1.1c0-0.1,0-0.2,0-0.3
		c-0.1-0.3-0.1-0.6-0.1-0.9c0-0.1,0-0.3,0-0.4c0-0.2-0.1-0.4-0.1-0.6c0-0.6-0.2-1.2-0.1-1.8c0,0,0-0.1,0-0.1
		c-0.1-0.2-0.1-0.5-0.1-0.7c0-0.2,0-0.4,0-0.5c-0.1-0.3-0.1-0.6-0.1-0.9c0-0.3-0.1-0.6-0.1-0.9c0-0.1,0-0.2-0.1-0.3
		c-1.1-0.1-1.9,0-2.3,0c0,0.2,0,0.4,0,0.6c0,0.1,0,0.3,0,0.4c0.1,0.3,0.1,0.6,0.1,0.9c0,0.1,0,0.3,0,0.4c0.1,0.2,0.1,0.4,0.1,0.6
		c0,0.6,0.2,1.1,0.1,1.7c0,0,0,0.1,0,0.1c0.1,0.2,0.1,0.4,0.1,0.6c0,0.1,0,0.3,0,0.4c0.1,0.3,0.1,0.6,0.1,0.9c0,0.1,0,0.2,0,0.3
		c0.1,0.2,0.1,0.5,0.1,0.8c0,0.2,0,0.4,0,0.5c0.2,0.4,0.1,0.8,0.1,1.3C105.7,40.9,105,42.4,104.2,43.8z M113.6,49.4
		c0.7,0,1.4,0,2.1,0c0,0,0.1-0.1,0.1-0.1c-0.6-3.2-1.2-6.5-1.7-9.7c0.1-0.2,0.1-0.3,0.2-0.5c0.4-1,0.9-1.9,1.3-2.9
		c0.4-0.9,0.8-1.8,1.2-2.7c0.5-1.1,1-2.2,1.5-3.4c0-0.1,0.1-0.2,0-0.3c-0.7,0-1.5,0-2.3,0c-0.1,0.3-0.3,0.5-0.4,0.8
		c-0.4,1-0.9,2-1.3,3c-0.3,0.6-0.6,1.3-0.9,1.9c-0.2,0.5-0.4,0.9-0.6,1.4c-0.3,0.6-0.5,1.2-0.8,1.8c-0.1,0.3-0.3,0.7-0.4,1
		c0.1,0.5,0.1,0.9,0.2,1.4c0.1,0.3,0,0.5,0.1,0.8c0.1,0.4,0.1,0.8,0.2,1.1c0.1,0.5,0.1,0.9,0.2,1.4c0.1,0.4,0.1,0.7,0.2,1.1
		c0.1,0.4,0.1,0.8,0.2,1.2c0.1,0.3,0.1,0.5,0.1,0.8c0.1,0.4,0.2,0.8,0.2,1.2c0,0.3,0.1,0.5,0.2,0.7
		C113.4,49.4,113.5,49.4,113.6,49.4z"/>
</g>
<g id="Слой_2">
</g>
<g id="Слой_3">
</g>
<g id="Слой_4">
</g>
<g id="Слой_5">
</g>
</svg>
