<?xml version="1.0" encoding="utf-8"?>
<!-- Generator: Adobe Illustrator 22.0.1, SVG Export Plug-In . SVG Version: 6.00 Build 0)  -->
<svg version="1.1" xmlns="http://www.w3.org/2000/svg" xmlns:xlink="http://www.w3.org/1999/xlink" x="0px" y="0px"
	 viewBox="0 0 171.1 79.2" style="enable-background:new 0 0 171.1 79.2;" xml:space="preserve">
<style type="text/css">
	.st0{fill:url(#SVGID_4_);}

</style>
<g id="Слой_1">
	<linearGradient id="SVGID_4_" gradientUnits="userSpaceOnUse" x1="-4.092726e-12" y1="39.5893" x2="171.0719" y2="39.5893">
		<stop  offset="0" style="stop-color:#006C93"/>
		<stop  offset="0.6047" style="stop-color:#439797"/>
	</linearGradient>
	<path class="st0" d="M43.9,79.2c0-0.2,0-0.3,0-0.4c0-26.2,0-52.4,0-78.7c0,0,0-0.1,0.1-0.1c0.1,0,0.2,0,0.2,0
		c1.1,0.4,2.1,0.9,3.1,1.6c0.7,0.5,1.3,1.1,1.9,1.6c9.2,9.2,18.4,18.4,27.5,27.5c1.2,1.2,2.1,2.5,2.7,4c0.4,0.8,0.6,1.7,0.8,2.6
		c0.1,0.4,0.1,0.8,0.1,1.1c0,0.1,0,0.3,0.1,0.4c0.1,0.5,0.1,0.9,0,1.4c0,0.1-0.1,0.3-0.1,0.4c0,0.4-0.1,0.8-0.2,1.3
		c-0.2,1.1-0.6,2.2-1.1,3.2c-0.3,0.6-0.7,1.1-1.1,1.7c-0.3,0.4-0.7,0.8-1.1,1.2c-9.4,9.4-18.8,18.8-28.2,28.2
		c-0.6,0.6-1.1,1.1-1.8,1.5C46,78.3,45,78.8,43.9,79.2z M29.3,6c0,9.7,0,19.4,0,29c0,0.2,0,0.3,0,0.5c0,0.1,0,0.2,0.1,0.3
		c2.3,0,4.6,0,6.9,0c0.1,0,0.1,0,0.2,0c0-0.1,0.1-0.1,0.1-0.1c0-11.9,0-23.7,0-35.6c0,0,0-0.1-0.1-0.1c-0.1,0-0.2,0-0.2,0
		c-0.5,0.2-0.9,0.3-1.4,0.6c-1.2,0.6-2.2,1.3-3.2,2.2c-0.7,0.7-1.3,1.3-2,2c-0.2,0.2-0.3,0.3-0.5,0.5C29.3,5.6,29.3,5.8,29.3,6z
		 M36.6,78.4c0-11.5,0-22.9,0-34.4c0-0.1,0-0.3,0-0.4c0-0.1,0-0.2-0.1-0.3c-0.2,0-0.3,0-0.5,0c-0.6,0-1.2,0-1.8,0c-1.5,0-3,0-4.6,0
		c-0.1,0-0.3,0-0.4,0.1c0,10.2,0,20.3,0,30.5c0.1,0.1,0.2,0.3,0.4,0.4c0.5,0.5,0.9,0.9,1.4,1.4c0.5,0.5,1.1,1,1.6,1.5
		c0.1,0.1,0.1,0.1,0.2,0.2c0.5,0.3,0.9,0.7,1.4,1c0.7,0.4,1.4,0.8,2.3,1C36.6,78.9,36.6,78.6,36.6,78.4z M14.6,20c0,0.2,0,0.5,0,0.7
		c0,4.8,0,9.6,0,14.4c0,0.2,0,0.3,0,0.5c0,0.1,0,0.2,0.1,0.3c0,0,0.1,0,0.2,0c2.3,0,4.5,0,6.8,0c0.1,0,0.2,0,0.3-0.1
		c0-7.7,0-15.3,0-22.9c0-0.1,0-0.1,0-0.2C21.5,13.1,15,19.6,14.6,20z M14.6,59.1c0.2,0.2,0.3,0.3,0.5,0.5c1.8,1.8,3.5,3.5,5.3,5.3
		c0.1,0.1,0.3,0.2,0.4,0.4c0.3,0.4,0.6,0.7,1,1c0.1,0.1,0.1,0.1,0.2,0.1c0-0.1,0.1-0.1,0.1-0.1c0-7.6,0-15.2,0-22.8
		c0,0,0-0.1-0.1-0.1c0,0-0.1,0-0.2,0c-2.3,0-4.7,0-7.1,0C14.6,48.6,14.6,53.8,14.6,59.1z M126.4,51.8c0.2-0.2,0.2-0.4,0.2-0.6
		c0-0.1,0-0.3,0-0.4c0.1-0.6,0.3-1.1,0.3-1.7c0.1-0.7,0.2-1.5,0.4-2.2c-0.3-0.1-0.6,0-0.9,0c-0.1,0-0.3,0-0.4,0
		c0.1-0.4,0.1-0.8,0.2-1.2c0.1-0.4,0.1-0.9,0.2-1.3c0.1-0.5,0.2-1.1,0.3-1.6c0.1-0.4,0.1-0.8,0.2-1.1c0.2-0.7,0.3-1.4,0.4-2.1
		c0.1-0.7,0.3-1.4,0.4-2.2c0.1-0.3,0.1-0.6,0.2-0.9c0.1-0.4,0.2-0.8,0.2-1.2c0-0.3,0.1-0.6,0.2-0.9c0.1-0.4,0.1-0.7,0.2-1.1
		c0.1-0.3,0.1-0.5,0.1-0.8c0.1-0.4,0-0.7-0.1-1.1c-0.1-0.4-0.2-0.6-0.4-0.9c-0.2-0.2-0.3-0.3-0.5-0.5c-0.6-0.2-1.2-0.4-1.8-0.3
		c-0.5,0-0.9,0-1.4,0c-0.4,0-0.8,0-1.2,0.1c-0.9,0.2-1.6,0.6-2.1,1.3c-0.2,0.3-0.4,0.7-0.5,1.1c-0.2,0.6-0.2,1.2-0.4,1.9
		c-0.1,0.6-0.2,1.3-0.3,1.9c-0.1,0.8-0.3,1.5-0.4,2.3c-0.2,0.3-0.1,0.7-0.2,1.1c-0.1,0.3-0.1,0.7-0.2,1.1c-0.1,0.7-0.3,1.5-0.4,2.2
		c-0.1,0.6-0.2,1.3-0.3,1.9c-0.1,0.3-0.1,0.5-0.1,0.8c-0.1,0.4-0.1,0.7-0.2,1.1c0,0.2-0.1,0.4-0.2,0.5c-0.2,0-0.5,0-0.7,0
		c-0.2,0-0.4-0.1-0.6,0.1c0,0.2,0,0.4-0.1,0.6c-0.2,0.6-0.2,1.2-0.3,1.7c-0.1,0.7-0.2,1.4-0.4,2.1c0,0.1,0,0.3,0.1,0.3
		c1.2,0.1,1.6,0,2-0.1c0.1-0.4,0.1-0.7,0.2-1.1c0.1-0.3,0.1-0.5,0.1-0.8c0-0.1,0.1-0.3,0.2-0.4c0.6-0.1,4.3-0.1,6.2,0
		c0.1,0,0.2,0,0.3,0c-0.1,0.4-0.2,0.8-0.2,1.1c0,0.4-0.3,0.8-0.1,1.3C125.2,51.8,125.8,51.8,126.4,51.8z M125.8,32.6
		c0,0.1,0,0.1,0,0.2c0,0.3,0,0.6-0.1,0.8c0,0.6-0.2,1.2-0.3,1.8c-0.1,0.4-0.1,0.8-0.2,1.1c0,0.6-0.2,1.2-0.3,1.8
		c0,0.4-0.2,0.7-0.2,1.1c0,0.3-0.1,0.7-0.2,1c-0.2,0.9-0.3,1.8-0.5,2.6c-0.1,0.3-0.1,0.6-0.1,0.9c-0.1,0.7-0.2,1.4-0.4,2.1
		c0,0.1,0,0.2,0,0.3c0,0.2-0.1,0.4-0.2,0.5c-0.4,0-2.1,0.1-2.7,0c-0.1,0-0.1,0-0.2-0.1c0.1-0.5,0.1-1,0.2-1.5
		c0.1-0.6,0.2-1.2,0.3-1.7c0.1-0.3,0-0.6,0.1-0.8c0-0.6,0.2-1.1,0.3-1.7c0.1-0.7,0.2-1.3,0.3-2c0.1-0.6,0.2-1.2,0.3-1.8
		c0.1-0.8,0.2-1.7,0.4-2.5c0.1-0.3,0.2-0.7,0.2-1c0-0.3,0.1-0.5,0.2-0.8c0.1-0.5,0.4-0.8,0.9-0.8c0.1,0,0.2,0,0.3,0
		c0.3-0.1,0.7-0.1,1,0c0.1,0,0.2,0,0.4,0C125.6,32.4,125.7,32.5,125.8,32.6z M6.9,27.7c-1.1,1.1-2.2,2.2-3.3,3.3
		c-0.4,0.4-0.8,0.9-1.1,1.4c-0.1,0.2-0.2,0.3-0.3,0.5c-0.5,0.8-0.9,1.6-1.2,2.4c-0.3,0.8-0.6,2.1-0.7,3c0,0.1,0,0.2,0,0.3
		c-0.1,0.6-0.1,1.1,0,1.7c0.1,0.2,0.1,0.5,0.1,0.8c0,0.1,0,0.3,0,0.4c0.2,0.7,0.3,1.5,0.6,2.2c0.6,1.5,1.3,2.9,2.5,4.1
		C4.5,49,5.7,50.2,7,51.4c0.1,0.1,0.2,0.2,0.4,0.3c0-8.2,0-16.2,0-24.5C7.1,27.5,7,27.6,6.9,27.7z M135.7,30.4
		c-0.1,0.4-0.1,0.8-0.2,1.1c-0.2,0.7-0.3,1.4-0.4,2.2c-0.1,0.3-0.1,0.6-0.2,0.9c-0.2,0.8-0.3,1.7-0.5,2.5c-0.1,0.3-0.1,0.6-0.1,0.9
		c0,0.6,0,1.2,0,1.8c0.2,0.3,0.3,0.6,0.4,0.9c0.5,0.4,1,0.6,1.6,0.5c0.8,0,1.5,0,2.3,0c0.1,0,0.2,0,0.4,0c-0.1,0.4-0.2,0.9-0.2,1.3
		c-0.1,0.4-0.1,0.8-0.2,1.1c-0.2,0.7-0.3,1.4-0.4,2.1c-0.1,0.6-0.3,1.1-0.9,1.2c-0.5,0-0.9,0-1.4,0c-0.3-0.1-0.4-0.3-0.5-0.5
		c0-0.1-0.1-0.2,0-0.3c0.2-0.3,0.1-0.7,0.2-1.1c0-0.1,0-0.2,0-0.3c-0.8,0-1.6,0-2.5,0c-0.3,0.7-0.2,1.5-0.4,2.1c0,0.4,0.1,0.7,0.1,1
		c0,0.1,0.1,0.2,0.2,0.3c0.3,0.6,0.8,0.9,1.4,1c0.5,0.1,1,0.2,1.5,0.1c0.7,0,1.3,0,2-0.1c0.9-0.2,1.6-0.5,2.2-1.2
		c0.4-0.6,0.7-1.3,0.8-2c0.1-0.4,0.1-0.7,0.2-1.1c0.2-0.8,0.3-1.7,0.4-2.5c0.1-0.6,0.2-1.2,0.3-1.8c0.1-0.7,0.2-1.3,0.3-2
		c0.1-0.3,0.1-0.7,0.2-1c0.1-0.4,0.2-0.7,0.2-1.1c0.1-0.6,0.3-1.2,0.3-1.8c0.1-0.4,0.2-0.7,0.2-1.1c0.1-0.6,0.2-1.2,0.3-1.8
		c0.1-0.6,0.2-1.2,0.3-1.7c0-0.1,0-0.2,0-0.3c-0.9,0-1.7,0-2.6,0c-0.1,0.8-0.3,1.6-0.4,2.5c0,0.2-0.1,0.4-0.1,0.6
		c0,0.7-0.3,1.3-0.3,1.9c-0.2,0.9-0.3,1.8-0.5,2.7c-0.1,0.6-0.4,1.2-1.1,1.4c-0.4,0-0.9,0-1.5,0c-0.1-0.2-0.2-0.3-0.2-0.4
		c-0.1-0.6,0.1-1.1,0.2-1.6c0.1-0.6,0.2-1.1,0.3-1.7c0.1-0.4,0.1-0.8,0.2-1.1c0.2-0.6,0.2-1.2,0.3-1.7c0.1-0.7,0.2-1.5,0.4-2.2
		c0-0.1,0-0.2-0.1-0.3c-0.6,0-1.2,0-1.8,0c-0.2,0-0.4,0-0.6,0C135.8,30,135.7,30.2,135.7,30.4z M150.2,49.3c0,0,0.1,0,0.1-0.1
		c0.1-0.4,0.2-0.9,0.3-1.4c0.1-0.6,0.2-1.3,0.3-1.9c0.1-0.7,0.3-1.5,0.4-2.2c0.1-0.3,0.1-0.6,0.2-0.9c0.2-0.8,0.3-1.7,0.5-2.5
		c0.1-0.6,0.2-1.2,0.3-1.8c0.1-0.7,0.2-1.3,0.3-2c0.1-0.4,0.2-0.7,0.2-1.1c0.1-0.8,0.3-1.6,0.4-2.4c0.1-0.4,0.1-0.8,0.2-1.1
		c0.1-0.6,0.2-1.2,0.3-1.7c0-0.1,0-0.3-0.1-0.4c-0.2,0-0.5,0-0.8,0c-0.3,0-0.6,0-0.8,0c-0.3,0-0.5-0.1-0.8,0.1
		c-0.1,0.5-0.2,0.9-0.3,1.4c-0.1,0.6-0.2,1.3-0.3,1.9c-0.1,0.7-0.2,1.3-0.3,2c-0.1,0.3-0.1,0.7-0.2,1c-0.1,0.4-0.2,0.9-0.2,1.3
		c-0.1,0.5-0.2,1-0.7,1.3c-0.7,0.2-0.7,0.2-1.9,0.1c-0.2-0.1-0.4-0.2-0.5-0.3c-0.3-0.3-0.3-0.6-0.2-1c0.1-0.5,0.2-1,0.3-1.5
		c0.1-0.4,0.1-0.8,0.2-1.1c0-0.6,0.2-1.2,0.3-1.8c0.1-0.6,0.2-1.3,0.3-1.9c0.1-0.4,0.1-0.9,0.2-1.3c0,0,0-0.1-0.1-0.2
		c-0.7-0.1-1.9,0-2.5,0c0,0.1-0.1,0.3-0.1,0.4c-0.1,0.4-0.1,0.8-0.2,1.1c-0.1,0.3-0.1,0.7-0.2,1c-0.1,0.6-0.2,1.2-0.3,1.8
		c-0.1,0.4-0.1,0.8-0.2,1.2c-0.1,0.5-0.2,1-0.3,1.6c0,0.2-0.1,0.5-0.1,0.7c0,0.6-0.1,1.2,0,1.7c0,0.4,0.2,0.8,0.5,1.1
		c0.4,0.5,1,0.7,1.6,0.7c0.9,0,1.8,0,2.7,0c0.1,0,0.2,0,0.4,0c-0.1,0.7-0.2,1.5-0.3,2.2c-0.1,0.8-0.3,1.5-0.4,2.3
		c-0.2,0.3-0.1,0.5-0.1,0.8c-0.2,0.8-0.3,1.7-0.5,2.5c0,0.1,0,0.2,0,0.3C148.5,49.4,149.9,49.4,150.2,49.3z M158.3,49.4
		c0.1,0,0.2,0,0.3,0c0.1-0.4,0.2-0.8,0.2-1.2c0.1-0.4,0.2-0.8,0.2-1.2c-0.3,0-0.6,0-0.9,0c-0.3,0-0.6,0-1,0c-0.3,0-0.6,0-0.9,0
		c-0.3,0-0.6,0-0.9,0c0-0.1-0.1-0.1-0.1-0.1c0.1-0.3,0.1-0.6,0.1-0.9c0.1-0.7,0.2-1.3,0.4-2c0.1-0.3,0.1-0.7,0.2-1
		c0.1-0.4,0.1-0.7,0.2-1.1c0.1-0.3,0.1-0.7,0.2-1c0-0.1,0.1-0.2,0.2-0.4c0.5,0,1.1,0,1.6,0c0.5,0,1.1,0,1.6,0
		c0.1-0.2,0.1-0.3,0.2-0.5c0.1-0.4,0.1-0.9,0.2-1.3c0-0.2,0.1-0.3-0.1-0.5c-0.2,0-0.5,0-0.7,0c-0.3,0-0.6,0-0.8,0
		c-0.3,0-0.5,0-0.8,0c-0.3,0-0.5,0-0.8,0c0-0.1-0.1-0.1-0.1-0.2c0.1-0.5,0.2-1,0.3-1.6c0-0.3,0.1-0.7,0.2-1c0.1-0.6,0.2-1.1,0.3-1.7
		c0.1-0.4,0.1-0.7,0.2-1.1c0-0.2,0.1-0.3,0.2-0.4c0.2-0.2,0.4-0.1,0.5-0.1c0.9,0,1.9,0,2.8,0c0.1,0,0.3,0,0.4-0.1
		c0-0.3,0.1-0.5,0.2-0.8c0.1-0.4,0.2-0.8,0.2-1.2c0-0.1,0-0.1,0-0.2c-0.7-0.1-5.8-0.1-6.3,0c-0.1,0.4-0.2,0.8-0.3,1.3
		c-0.1,0.6-0.2,1.3-0.3,1.9c-0.1,0.7-0.3,1.4-0.4,2.2c-0.1,0.3-0.1,0.6-0.2,0.9c-0.2,0.8-0.3,1.7-0.5,2.5c-0.1,0.6-0.2,1.2-0.3,1.8
		c-0.1,0.7-0.2,1.3-0.3,2c-0.1,0.3-0.1,0.7-0.2,1c-0.1,0.4-0.2,0.7-0.2,1.1c-0.1,0.6-0.3,1.2-0.3,1.8c-0.2,0.4-0.1,0.7-0.2,1.1
		c-0.1,0.4-0.1,0.8-0.2,1.2c0,0.2-0.1,0.4,0,0.7C153,49.4,156.3,49.4,158.3,49.4z M165.6,32.4c0,0.4-0.1,0.8-0.2,1.2
		c-0.2,0.8-0.3,1.7-0.5,2.5c0,0.6-0.2,1.2-0.3,1.8c-0.1,0.6-0.2,1.3-0.3,1.9c-0.1,0.2-0.1,0.5-0.1,0.7c0,0.7-0.2,1.3-0.3,1.9
		c-0.1,0.7-0.3,1.4-0.4,2.1c0,0.3-0.1,0.6-0.1,0.9c-0.2,0.6-0.2,1.1-0.3,1.7c-0.1,0.7-0.3,1.4-0.3,2.1c0,0,0.1,0.1,0.1,0.1
		c0.3,0.1,1.7,0.1,2.4,0c0-0.1,0.1-0.2,0.1-0.3c0-0.2,0-0.3,0.1-0.5c0.1-0.6,0.2-1.1,0.3-1.7c0.1-0.6,0.2-1.3,0.3-1.9
		c0.1-0.7,0.3-1.5,0.4-2.2c0.1-0.7,0.3-1.5,0.4-2.2c0.1-0.6,0.2-1.3,0.3-1.9c0.1-0.2,0.1-0.5,0.1-0.7c0.1-0.4,0.1-0.8,0.2-1.1
		c0.1-0.6,0.2-1.2,0.3-1.7c0.1-0.6,0.2-1.3,0.3-1.9c0-0.2,0.1-0.5,0.1-0.7c0-0.1,0.1-0.3,0.2-0.4c0.8,0,1.5,0,2.2,0
		c0.1-0.2,0.2-0.3,0.2-0.5c0-0.5,0.1-0.9,0.2-1.4c0-0.1,0.1-0.3-0.1-0.4c-0.1,0-0.3,0-0.4,0c-2.3,0-4.6,0-6.9,0c0,0,0,0-0.1,0
		c0,0,0,0-0.1,0.1c-0.1,0.5-0.2,1.1-0.3,1.7c0,0.2-0.1,0.4,0.1,0.6c0.7,0,1.4,0,2.2,0C165.5,32.2,165.6,32.3,165.6,32.4z
		 M109.9,48.7c0.1-0.5,0.2-0.9,0.2-1.4c0.1-0.4,0.1-0.7,0.2-1.1c0.1-0.5,0.2-1.1,0.3-1.6c0.1-0.6,0.3-1.2,0.3-1.8
		c0.2-0.4,0.1-0.8,0.2-1.1c0-0.6,0.2-1.2,0.3-1.8c0.1-0.7,0.2-1.3,0.3-2c0.1-0.6,0.2-1.1,0.3-1.7c0.2-0.3,0.1-0.6,0.2-0.9
		c0.1-0.6,0.2-1.1,0.3-1.7c0.1-0.4,0.1-0.8,0.2-1.1c0.1-0.4,0.2-0.9,0.3-1.3c0.1-0.4,0-0.8,0.2-1.1c0-0.1,0-0.2,0-0.2
		c-0.8-0.1-2,0-2.5,0c-0.1,0.2-0.2,0.3-0.2,0.5c-0.1,0.4-0.1,0.8-0.2,1.2c-0.1,0.8-0.3,1.6-0.4,2.4c-0.1,0.4-0.1,0.8-0.2,1.1
		c-0.2,0.7-0.2,1.3-0.4,2c-0.1,0.6-0.2,1.1-0.3,1.7c-0.1,0.6-0.1,1.1-0.3,1.7c0,0.6-0.2,1.3-0.3,1.9c0,0.3-0.1,0.7-0.2,1
		c-0.1,0.4-0.2,0.8-0.2,1.2c-0.1,0.3-0.1,0.6-0.2,0.9c-0.1,0.4-0.1,0.8-0.2,1.1c-0.1,0.4-0.2,0.8-0.2,1.2c-0.1,0.4-0.1,0.7-0.2,1.1
		c0,0.1,0,0.3,0.1,0.4c0.4,0.1,2,0.1,2.3,0c0.1,0,0.1-0.1,0.2-0.1C109.8,49.1,109.8,48.9,109.9,48.7z M104.2,43.8
		c-0.5,0.9-1,1.9-1.5,2.9c-0.4,0.7-0.8,1.4-1.1,2.1c-0.1,0.2-0.2,0.3-0.3,0.5c0.3,0.1,0.6,0.1,0.8,0.1c0.3,0,0.6,0,0.9,0
		c0.3,0,0.6,0.1,0.8-0.1c1.6-3.2,3.3-6.4,4.8-9.5c0-0.5,0.1-1,0-1.4c-0.1-0.4-0.1-0.7-0.1-1.1c0-0.1,0-0.2,0-0.3
		c-0.1-0.3-0.1-0.6-0.1-0.9c0-0.1,0-0.3,0-0.4c0-0.2-0.1-0.4-0.1-0.6c0-0.6-0.2-1.2-0.1-1.8c0,0,0-0.1,0-0.1
		c-0.1-0.2-0.1-0.5-0.1-0.7c0-0.2,0-0.4,0-0.5c-0.1-0.3-0.1-0.6-0.1-0.9c0-0.3-0.1-0.6-0.1-0.9c0-0.1,0-0.2-0.1-0.3
		c-1.1-0.1-1.9,0-2.3,0c0,0.2,0,0.4,0,0.6c0,0.1,0,0.3,0,0.4c0.1,0.3,0.1,0.6,0.1,0.9c0,0.1,0,0.3,0,0.4c0.1,0.2,0.1,0.4,0.1,0.6
		c0,0.6,0.2,1.1,0.1,1.7c0,0,0,0.1,0,0.1c0.1,0.2,0.1,0.4,0.1,0.6c0,0.1,0,0.3,0,0.4c0.1,0.3,0.1,0.6,0.1,0.9c0,0.1,0,0.2,0,0.3
		c0.1,0.2,0.1,0.5,0.1,0.8c0,0.2,0,0.4,0,0.5c0.2,0.4,0.1,0.8,0.1,1.3C105.7,40.9,105,42.4,104.2,43.8z M113.6,49.4
		c0.7,0,1.4,0,2.1,0c0,0,0.1-0.1,0.1-0.1c-0.6-3.2-1.2-6.5-1.7-9.7c0.1-0.2,0.1-0.3,0.2-0.5c0.4-1,0.9-1.9,1.3-2.9
		c0.4-0.9,0.8-1.8,1.2-2.7c0.5-1.1,1-2.2,1.5-3.4c0-0.1,0.1-0.2,0-0.3c-0.7,0-1.5,0-2.3,0c-0.1,0.3-0.3,0.5-0.4,0.8
		c-0.4,1-0.9,2-1.3,3c-0.3,0.6-0.6,1.3-0.9,1.9c-0.2,0.5-0.4,0.9-0.6,1.4c-0.3,0.6-0.5,1.2-0.8,1.8c-0.1,0.3-0.3,0.7-0.4,1
		c0.1,0.5,0.1,0.9,0.2,1.4c0.1,0.3,0,0.5,0.1,0.8c0.1,0.4,0.1,0.8,0.2,1.1c0.1,0.5,0.1,0.9,0.2,1.4c0.1,0.4,0.1,0.7,0.2,1.1
		c0.1,0.4,0.1,0.8,0.2,1.2c0.1,0.3,0.1,0.5,0.1,0.8c0.1,0.4,0.2,0.8,0.2,1.2c0,0.3,0.1,0.5,0.2,0.7
		C113.4,49.4,113.5,49.4,113.6,49.4z"/>
</g>
</svg>
