<?xml version="1.0" encoding="utf-8"?>
<!-- Generator: Adobe Illustrator 22.0.1, SVG Export Plug-In . SVG Version: 6.00 Build 0)  -->
<svg version="1.1" xmlns="http://www.w3.org/2000/svg" xmlns:xlink="http://www.w3.org/1999/xlink" x="0px" y="0px"
	 viewBox="0 0 201.9 201.9" style="enable-background:new 0 0 201.9 201.9;" xml:space="preserve">
<style type="text/css">
	.st0{fill:url(#SVGID_4_);}
	.st17{fill:#FFFFFF;}
	.st117{fill:none;stroke:#FFFFFF;stroke-width:2;stroke-miterlimit:10;}
</style>
<g id="Слой_1">
	<g>
		<linearGradient id="SVGID_4_" gradientUnits="userSpaceOnUse" x1="157.6686" y1="44.2739" x2="44.2739" y2="157.6686">
			<stop  offset="1.581028e-02" style="stop-color:#439797"/>
			<stop  offset="1" style="stop-color:#006C93"/>
		</linearGradient>
		<path class="st0" d="M79.8,193.2c11.7,11.7,30.7,11.7,42.4,0l71-71c11.7-11.7,11.7-30.7,0-42.4l-71-71
			c-11.7-11.7-30.7-11.7-42.4,0l-71,71c-11.7,11.7-11.7,30.7,0,42.4L79.8,193.2z"/>
	</g>
	<g>
		<g>
			<g>
				<path class="st17" d="M59.6,101.9c0.3,0.4,0.5,0.8,0.5,1.4c0,0.8-0.3,1.4-0.9,1.9s-1.4,0.7-2.6,0.7h-4.3v-9.1h4.1
					c1,0,1.8,0.2,2.4,0.6c0.6,0.4,0.9,1,0.9,1.7c0,0.5-0.1,0.9-0.3,1.2c-0.2,0.3-0.6,0.6-1,0.8C58.8,101.3,59.3,101.5,59.6,101.9z
					 M53.9,100.6h2.3c0.5,0,1-0.1,1.2-0.3c0.3-0.2,0.4-0.5,0.4-1c0-0.4-0.1-0.7-0.4-1S56.7,98,56.2,98h-2.3V100.6z M58.3,103.2
					c0-0.9-0.6-1.3-1.8-1.3h-2.6v2.7h2.6C57.7,104.5,58.3,104.1,58.3,103.2z"/>
				<path class="st17" d="M62.7,96.7h1.7v6.5l4.9-6.5h1.6v9.1h-1.7v-6.4l-4.9,6.4h-1.6V96.7z"/>
				<path class="st17" d="M83.1,104.4v3.4h-1.6v-1.9h-7v1.9H73l0-3.4h0.4c0.6,0,1-0.4,1.2-1.3c0.2-0.8,0.4-2,0.4-3.5l0.1-2.9h6.7
					v7.7H83.1z M76.2,102.7c-0.1,0.8-0.4,1.3-0.7,1.7h4.6v-6.2h-3.6l-0.1,1.6C76.5,101,76.4,101.9,76.2,102.7z"/>
				<path class="st17" d="M92.3,104.4v1.4h-6.8v-9.1h6.6v1.4h-5v2.4h4.4v1.4h-4.4v2.5H92.3z"/>
				<path class="st17" d="M96.6,105.4c-0.7-0.4-1.3-1-1.8-1.7c-0.4-0.7-0.6-1.5-0.6-2.4s0.2-1.7,0.6-2.4c0.4-0.7,1-1.3,1.8-1.7
					c0.7-0.4,1.6-0.6,2.5-0.6s1.8,0.2,2.5,0.6c0.7,0.4,1.3,1,1.8,1.7c0.4,0.7,0.6,1.5,0.6,2.4s-0.2,1.7-0.6,2.4
					c-0.4,0.7-1,1.3-1.8,1.7c-0.7,0.4-1.6,0.6-2.5,0.6S97.4,105.8,96.6,105.4z M100.8,104.1c0.5-0.3,0.9-0.7,1.1-1.1
					c0.3-0.5,0.4-1,0.4-1.6c0-0.6-0.1-1.2-0.4-1.6c-0.3-0.5-0.7-0.9-1.1-1.1s-1-0.4-1.6-0.4c-0.6,0-1.2,0.1-1.6,0.4
					c-0.5,0.3-0.9,0.7-1.1,1.1c-0.3,0.5-0.4,1-0.4,1.6c0,0.6,0.1,1.2,0.4,1.6c0.3,0.5,0.7,0.9,1.1,1.1c0.5,0.3,1,0.4,1.6,0.4
					C99.8,104.5,100.3,104.3,100.8,104.1z"/>
			</g>
		</g>
		<g>
			<circle class="st117" cx="132.2" cy="100" r="12.7"/>
			<polygon class="st117" points="129.4,94.6 137.8,100 129.4,105.4 			"/>
		</g>
	</g>
</g>
</svg>
