<?xml version="1.0" encoding="utf-8"?>
<!-- Generator: Adobe Illustrator 22.0.1, SVG Export Plug-In . SVG Version: 6.00 Build 0)  -->
<svg version="1.1" xmlns="http://www.w3.org/2000/svg" xmlns:xlink="http://www.w3.org/1999/xlink" x="0px" y="0px"
	 viewBox="0 0 201.9 201.9" style="enable-background:new 0 0 201.9 201.9;" xml:space="preserve">
<style type="text/css">
	.st0{fill:url(#SVGID_4_);}
	.st1{fill:#DCDCDC;}
	.st2{fill:#00B0EE;}
	.st3{fill:#0080E4;}
	.st4{fill:#FF463F;}
	.st5{fill:#00A857;}
	.st6{fill:#4F2A06;}
	.st7{fill:#4E3962;}
	.st8{fill:#005568;}
	.st9{fill:none;stroke:#F7F7F7;stroke-width:2;stroke-miterlimit:10;}
	.st10{clip-path:url(#SVGID_7_);fill:#FFFFFF;}
	.st11{clip-path:url(#SVGID_9_);fill:#FFFFFF;}
	.st12{clip-path:url(#SVGID_11_);fill:#FFFFFF;}
	.st13{clip-path:url(#SVGID_13_);fill:#FFFFFF;}
	.st14{fill:url(#SVGID_14_);}
	.st15{clip-path:url(#SVGID_16_);}
	.st16{fill:none;stroke:#D8ECEB;stroke-miterlimit:10;}
	.st17{fill:#FFFFFF;}
	.st18{clip-path:url(#SVGID_18_);}
	.st19{fill:url(#SVGID_21_);}
	.st20{fill:url(#f_4_);}
	.st21{fill:#787878;}
	.st22{opacity:0.35;fill:none;stroke:#787878;stroke-miterlimit:10;}
	.st23{fill:#006C93;}
	.st24{fill:#FF9D00;stroke:#FFFFFF;stroke-miterlimit:10;}
	.st25{fill:#F7F7F7;}
	.st26{fill:#FFFFFF;stroke:#CACCCD;stroke-miterlimit:10;}
	.st27{fill:#9E9E9E;}
	.st28{fill:url(#SVGID_22_);}
	.st29{fill:#439797;}
	.st30{fill:none;stroke:#FFFFFF;stroke-miterlimit:10;}
	.st31{fill:#4C4C4C;}
	.st32{opacity:0.4;}
	.st33{clip-path:url(#SVGID_24_);}
	.st34{fill:none;stroke:#787878;stroke-miterlimit:10;}
	.st35{fill:#3C3C3C;}
	.st36{opacity:0.4;fill:none;stroke:#9E9E9E;stroke-miterlimit:10;}
	.st37{fill:#C4C4C4;}
	.st38{fill:#4C4C4C;stroke:#939393;stroke-miterlimit:10;}
	.st39{fill:none;stroke:#9E9E9E;stroke-miterlimit:10;}
	.st40{clip-path:url(#SVGID_26_);fill:#FFFFFF;}
	.st41{clip-path:url(#SVGID_28_);fill:#FFFFFF;}
	.st42{clip-path:url(#SVGID_30_);fill:#FFFFFF;}
	.st43{clip-path:url(#SVGID_32_);fill:#FFFFFF;}
	.st44{fill:url(#SVGID_33_);}
	.st45{clip-path:url(#SVGID_35_);}
	.st46{clip-path:url(#SVGID_37_);}
	.st47{fill:none;stroke:#006C93;stroke-miterlimit:10;}
	.st48{clip-path:url(#SVGID_39_);fill:#FFFFFF;}
	.st49{clip-path:url(#SVGID_41_);fill:#FFFFFF;}
	.st50{fill:#F0F7F6;}
	.st51{fill:url(#SVGID_42_);}
	.st52{fill:#FFFFFF;stroke:#376B8F;stroke-width:2;stroke-miterlimit:10;}
	
		.st53{fill:none;stroke:#376B8F;stroke-width:2;stroke-linecap:round;stroke-linejoin:round;stroke-miterlimit:10;stroke-dasharray:0,5;}
	
		.st54{fill:none;stroke:#376B8F;stroke-width:2;stroke-linecap:round;stroke-linejoin:round;stroke-miterlimit:10;stroke-dasharray:0,6;}
	
		.st55{fill:none;stroke:#376B8F;stroke-width:2;stroke-linecap:round;stroke-linejoin:round;stroke-miterlimit:10;stroke-dasharray:0,12;}
	
		.st56{fill:none;stroke:#376B8F;stroke-width:2;stroke-linecap:round;stroke-linejoin:round;stroke-miterlimit:10;stroke-dasharray:0,18;}
	.st57{fill:none;stroke:#376B8F;stroke-width:2;stroke-miterlimit:10;}
	.st58{clip-path:url(#SVGID_44_);}
	.st59{opacity:0;}
	.st60{fill:url(#SVGID_45_);}
	.st61{fill:url(#SVGID_46_);}
	.st62{fill:url(#SVGID_47_);}
	.st63{fill:none;}
	.st64{clip-path:url(#SVGID_49_);fill:#FFFFFF;}
	.st65{clip-path:url(#SVGID_51_);fill:#FFFFFF;}
	.st66{clip-path:url(#SVGID_53_);fill:#FFFFFF;}
	.st67{clip-path:url(#SVGID_55_);fill:#FFFFFF;}
	.st68{clip-path:url(#SVGID_57_);}
	.st69{fill:url(#SVGID_58_);}
	.st70{fill:none;stroke:#3C3C3C;stroke-width:2;stroke-miterlimit:10;}
	.st71{fill:url(#SVGID_59_);}
	.st72{fill:none;stroke:#C6E5D8;stroke-miterlimit:10;}
	.st73{fill:url(#SVGID_60_);}
	.st74{fill:url(#SVGID_61_);}
	.st75{clip-path:url(#SVGID_63_);}
	.st76{opacity:0;clip-path:url(#SVGID_63_);}
	.st77{fill:url(#SVGID_64_);}
	.st78{fill:#FFFFFF;stroke:#006C93;stroke-width:2;stroke-miterlimit:10;}
	.st79{fill:url(#SVGID_65_);}
	.st80{fill:url(#SVGID_66_);}
	.st81{opacity:0.5;clip-path:url(#SVGID_68_);}
	.st82{clip-path:url(#SVGID_68_);}
	.st83{opacity:0;clip-path:url(#SVGID_68_);}
	.st84{fill:url(#SVGID_69_);}
	.st85{fill:none;stroke:#006C93;stroke-width:2;stroke-miterlimit:10;}
	.st86{fill:url(#SVGID_70_);}
	.st87{fill:url(#SVGID_71_);}
	.st88{opacity:0.5;clip-path:url(#SVGID_73_);}
	.st89{clip-path:url(#SVGID_73_);}
	.st90{opacity:0;clip-path:url(#SVGID_73_);}
	.st91{fill:url(#SVGID_74_);}
	.st92{opacity:0;fill:#FFFFFF;stroke:#006C93;stroke-width:2;stroke-miterlimit:10;}
	.st93{fill:url(#SVGID_75_);}
	.st94{fill:url(#SVGID_76_);}
	.st95{opacity:0.5;}
	.st96{fill:#FF9D00;}
	.st97{fill:none;stroke:url(#SVGID_77_);stroke-width:2;stroke-miterlimit:10;}
	.st98{fill:none;stroke:url(#SVGID_78_);stroke-width:2;stroke-miterlimit:10;}
	.st99{fill:none;stroke:url(#SVGID_79_);stroke-width:2;stroke-miterlimit:10;}
	.st100{fill:#999B9E;}
	.st101{clip-path:url(#SVGID_81_);fill:url(#SVGID_82_);}
	.st102{clip-path:url(#SVGID_81_);}
	.st103{opacity:0.2;clip-path:url(#SVGID_84_);}
	.st104{opacity:0;clip-path:url(#SVGID_84_);}
	.st105{opacity:0;clip-path:url(#SVGID_84_);fill:url(#SVGID_85_);}
	.st106{clip-path:url(#SVGID_84_);fill:url(#SVGID_86_);}
	.st107{opacity:0;clip-path:url(#SVGID_84_);fill:url(#SVGID_87_);}
	.st108{clip-path:url(#SVGID_84_);}
	.st109{fill:#D5EFE5;}
	.st110{opacity:0.3;fill:none;stroke:#D8ECEB;stroke-miterlimit:10;}
	.st111{clip-path:url(#SVGID_89_);fill:url(#SVGID_90_);}
	.st112{clip-path:url(#SVGID_89_);}
	.st113{opacity:0.2;clip-path:url(#SVGID_92_);}
	.st114{fill:none;stroke:#439797;stroke-miterlimit:10;}
	.st115{opacity:0.4;fill:none;stroke:#C6E5D8;stroke-miterlimit:10;}
	.st116{fill:url(#SVGID_93_);}
	.st117{fill:none;stroke:#FFFFFF;stroke-width:2;stroke-miterlimit:10;}
	.st118{fill:url(#SVGID_94_);}
	.st119{fill:url(#SVGID_95_);}
	.st120{fill:#E7F2F1;stroke:#006C93;stroke-miterlimit:10;}
	.st121{clip-path:url(#SVGID_97_);fill:#FFFFFF;}
	.st122{clip-path:url(#SVGID_99_);fill:#FFFFFF;}
	.st123{clip-path:url(#SVGID_101_);fill:#FFFFFF;}
	.st124{clip-path:url(#SVGID_103_);fill:#FFFFFF;}
	.st125{fill:url(#SVGID_104_);}
	.st126{clip-path:url(#SVGID_106_);}
	.st127{clip-path:url(#SVGID_108_);}
	.st128{fill:url(#SVGID_109_);}
	.st129{fill:url(#SVGID_110_);}
	.st130{fill:#FF3B3B;}
	.st131{fill:url(#SVGID_111_);}
	.st132{fill:url(#SVGID_112_);}
	.st133{fill:url(#SVGID_113_);}
	.st134{fill:none;stroke:#439797;stroke-width:2;stroke-miterlimit:10;}
	.st135{clip-path:url(#SVGID_115_);}
	.st136{clip-path:url(#SVGID_119_);}
	.st137{clip-path:url(#SVGID_123_);}
	.st138{clip-path:url(#SVGID_127_);}
	.st139{fill:#FFAD36;}
	.st140{fill:#545454;stroke:#939393;stroke-miterlimit:10;}
	.st141{fill:url(#SVGID_130_);}
	.st142{fill:url(#SVGID_131_);}
	.st143{fill:url(#SVGID_132_);}
	.st144{fill:#DF1C24;}
	.st145{fill:#414042;}
	.st146{fill:url(#SVGID_133_);}
	.st147{fill:url(#f_31_);}
	.st148{fill:none;stroke:#000000;stroke-width:2;stroke-miterlimit:10;}
	.st149{clip-path:url(#SVGID_135_);fill:#FFFFFF;}
	.st150{clip-path:url(#SVGID_137_);fill:#FFFFFF;}
	.st151{clip-path:url(#SVGID_139_);fill:#FFFFFF;}
	.st152{clip-path:url(#SVGID_141_);fill:#FFFFFF;}
	.st153{fill:url(#SVGID_142_);}
	.st154{clip-path:url(#SVGID_144_);}
	.st155{clip-path:url(#SVGID_146_);}
	.st156{opacity:0.4;fill:none;stroke:#000000;stroke-miterlimit:10;}
	.st157{fill:url(#SVGID_147_);}
	.st158{fill:url(#SVGID_148_);}
	.st159{fill:none;stroke:#DF1C24;stroke-miterlimit:10;}
	.st160{fill:#231F20;}
	.st161{fill:#00BCFF;}
	.st162{fill:url(#SVGID_159_);}
	.st163{fill:url(#f_33_);}
	.st164{clip-path:url(#SVGID_160_);}
	.st165{fill:url(#SVGID_161_);}
	.st166{clip-path:url(#SVGID_162_);}
	.st167{opacity:0;clip-path:url(#SVGID_162_);}
	.st168{fill:url(#SVGID_163_);}
	.st169{fill:url(#SVGID_164_);}
	.st170{fill:url(#SVGID_165_);}
	.st171{clip-path:url(#SVGID_166_);}
	.st172{opacity:0;clip-path:url(#SVGID_166_);}
	.st173{fill:url(#SVGID_167_);}
	.st174{fill:url(#SVGID_168_);}
	.st175{fill:url(#SVGID_169_);}
	.st176{clip-path:url(#SVGID_170_);}
	.st177{opacity:0;clip-path:url(#SVGID_170_);}
	.st178{fill:url(#SVGID_171_);}
	.st179{fill:url(#SVGID_172_);}
	.st180{fill:url(#SVGID_173_);}
	.st181{fill:none;stroke:url(#SVGID_174_);stroke-width:2;stroke-miterlimit:10;}
	.st182{fill:none;stroke:url(#SVGID_175_);stroke-width:2;stroke-miterlimit:10;}
	.st183{fill:none;stroke:url(#SVGID_176_);stroke-width:2;stroke-miterlimit:10;}
	.st184{fill:url(#SVGID_177_);}
</style>
<g id="Слой_1">
	<g>
		<linearGradient id="SVGID_4_" gradientUnits="userSpaceOnUse" x1="157.6686" y1="44.2739" x2="44.2739" y2="157.6686">
			<stop  offset="1.581028e-02" style="stop-color:#439797"/>
			<stop  offset="1" style="stop-color:#006C93"/>
		</linearGradient>
		<path class="st0" d="M79.8,193.2c11.7,11.7,30.7,11.7,42.4,0l71-71c11.7-11.7,11.7-30.7,0-42.4l-71-71
			c-11.7-11.7-30.7-11.7-42.4,0l-71,71c-11.7,11.7-11.7,30.7,0,42.4L79.8,193.2z"/>
	</g>
	<g>
		<g>
			<g>
				<path class="st17" d="M59.6,101.9c0.3,0.4,0.5,0.8,0.5,1.4c0,0.8-0.3,1.4-0.9,1.9s-1.4,0.7-2.6,0.7h-4.3v-9.1h4.1
					c1,0,1.8,0.2,2.4,0.6c0.6,0.4,0.9,1,0.9,1.7c0,0.5-0.1,0.9-0.3,1.2c-0.2,0.3-0.6,0.6-1,0.8C58.8,101.3,59.3,101.5,59.6,101.9z
					 M53.9,100.6h2.3c0.5,0,1-0.1,1.2-0.3c0.3-0.2,0.4-0.5,0.4-1c0-0.4-0.1-0.7-0.4-1S56.7,98,56.2,98h-2.3V100.6z M58.3,103.2
					c0-0.9-0.6-1.3-1.8-1.3h-2.6v2.7h2.6C57.7,104.5,58.3,104.1,58.3,103.2z"/>
				<path class="st17" d="M62.7,96.7h1.7v6.5l4.9-6.5h1.6v9.1h-1.7v-6.4l-4.9,6.4h-1.6V96.7z"/>
				<path class="st17" d="M83.1,104.4v3.4h-1.6v-1.9h-7v1.9H73l0-3.4h0.4c0.6,0,1-0.4,1.2-1.3c0.2-0.8,0.4-2,0.4-3.5l0.1-2.9h6.7
					v7.7H83.1z M76.2,102.7c-0.1,0.8-0.4,1.3-0.7,1.7h4.6v-6.2h-3.6l-0.1,1.6C76.5,101,76.4,101.9,76.2,102.7z"/>
				<path class="st17" d="M92.3,104.4v1.4h-6.8v-9.1h6.6v1.4h-5v2.4h4.4v1.4h-4.4v2.5H92.3z"/>
				<path class="st17" d="M96.6,105.4c-0.7-0.4-1.3-1-1.8-1.7c-0.4-0.7-0.6-1.5-0.6-2.4s0.2-1.7,0.6-2.4c0.4-0.7,1-1.3,1.8-1.7
					c0.7-0.4,1.6-0.6,2.5-0.6s1.8,0.2,2.5,0.6c0.7,0.4,1.3,1,1.8,1.7c0.4,0.7,0.6,1.5,0.6,2.4s-0.2,1.7-0.6,2.4
					c-0.4,0.7-1,1.3-1.8,1.7c-0.7,0.4-1.6,0.6-2.5,0.6S97.4,105.8,96.6,105.4z M100.8,104.1c0.5-0.3,0.9-0.7,1.1-1.1
					c0.3-0.5,0.4-1,0.4-1.6c0-0.6-0.1-1.2-0.4-1.6c-0.3-0.5-0.7-0.9-1.1-1.1s-1-0.4-1.6-0.4c-0.6,0-1.2,0.1-1.6,0.4
					c-0.5,0.3-0.9,0.7-1.1,1.1c-0.3,0.5-0.4,1-0.4,1.6c0,0.6,0.1,1.2,0.4,1.6c0.3,0.5,0.7,0.9,1.1,1.1c0.5,0.3,1,0.4,1.6,0.4
					C99.8,104.5,100.3,104.3,100.8,104.1z"/>
			</g>
		</g>
		<g>
			<circle class="st117" cx="132.2" cy="100" r="12.7"/>
			<polygon class="st117" points="129.4,94.6 137.8,100 129.4,105.4 			"/>
		</g>
	</g>
</g>
<g id="Слой_2">
</g>
<g id="Слой_3">
</g>
<g id="Слой_4">
</g>
<g id="Слой_5">
</g>
</svg>
