<?xml version="1.0" encoding="utf-8"?>
<!-- Generator: Adobe Illustrator 22.0.1, SVG Export Plug-In . SVG Version: 6.00 Build 0)  -->
<svg version="1.1" xmlns="http://www.w3.org/2000/svg" xmlns:xlink="http://www.w3.org/1999/xlink" x="0px" y="0px"
	 viewBox="0 0 134.8 111.1" style="enable-background:new 0 0 134.8 111.1;" xml:space="preserve">
<style type="text/css">
	.st109{fill:#D5EFE5;}
</style>
<g id="Слой_1">
	<g>
		<path class="st109" d="M49.8,8.3c5.5,5.5,8.2,12.5,8.2,21.2c0,4.3-0.5,8.5-1.6,12.5c-1.1,4.1-3.2,10.2-6.3,18.3l-18.6,50.9h-29
			l14.3-55.2c-5.3-1.9-9.4-5.2-12.4-9.9C1.5,41.4,0,35.9,0,29.4c0-8.6,2.7-15.7,8.2-21.2C13.7,2.8,20.7,0,29,0
			C37.4,0,44.3,2.8,49.8,8.3z"/>
		<path class="st109" d="M126.5,8.3c5.5,5.5,8.2,12.5,8.2,21.2c0,4.3-0.5,8.5-1.6,12.5c-1.1,4.1-3.2,10.2-6.3,18.3l-18.6,50.9h-29
			l14.3-55.2c-5.3-1.9-9.4-5.2-12.4-9.9c-3-4.7-4.5-10.2-4.5-16.7c0-8.6,2.7-15.7,8.2-21.2C90.4,2.8,97.4,0,105.7,0
			C114.1,0,121,2.8,126.5,8.3z"/>
	</g>
</g>
</svg>
