<?xml version="1.0" encoding="utf-8"?>
<!-- Generator: Adobe Illustrator 22.0.1, SVG Export Plug-In . SVG Version: 6.00 Build 0)  -->
<svg version="1.1" xmlns="http://www.w3.org/2000/svg" xmlns:xlink="http://www.w3.org/1999/xlink" x="0px" y="0px"
	 viewBox="0 0 3982.9 367.7" style="enable-background:new 0 0 3982.9 367.7;" xml:space="preserve">
<style type="text/css">
	.st0{fill:url(#SVGID_4_);}
	.st1{fill:#DCDCDC;}
	.st2{fill:#00B0EE;}
	.st3{fill:#0080E4;}
	.st4{fill:#FF463F;}
	.st5{fill:#00A857;}
	.st6{fill:#4F2A06;}
	.st7{fill:#4E3962;}
	.st8{fill:#005568;}
	.st9{fill:none;stroke:#F7F7F7;stroke-width:2;stroke-miterlimit:10;}
	.st10{clip-path:url(#SVGID_7_);fill:#FFFFFF;}
	.st11{clip-path:url(#SVGID_9_);fill:#FFFFFF;}
	.st12{clip-path:url(#SVGID_11_);fill:#FFFFFF;}
	.st13{clip-path:url(#SVGID_13_);fill:#FFFFFF;}
	.st14{fill:url(#SVGID_14_);}
	.st15{clip-path:url(#SVGID_16_);}
	.st16{fill:none;stroke:#D8ECEB;stroke-miterlimit:10;}
	.st17{fill:#FFFFFF;}
	.st18{clip-path:url(#SVGID_18_);}
	.st19{fill:url(#SVGID_21_);}
	.st20{fill:url(#f_4_);}
	.st21{fill:#787878;}
	.st22{opacity:0.35;fill:none;stroke:#787878;stroke-miterlimit:10;}
	.st23{fill:#006C93;}
	.st24{fill:#FF9D00;stroke:#FFFFFF;stroke-miterlimit:10;}
	.st25{fill:#F7F7F7;}
	.st26{fill:#FFFFFF;stroke:#CACCCD;stroke-miterlimit:10;}
	.st27{fill:#9E9E9E;}
	.st28{fill:url(#SVGID_22_);}
	.st29{fill:#439797;}
	.st30{fill:none;stroke:#FFFFFF;stroke-miterlimit:10;}
	.st31{fill:#4C4C4C;}
	.st32{opacity:0.4;}
	.st33{clip-path:url(#SVGID_24_);}
	.st34{fill:none;stroke:#787878;stroke-miterlimit:10;}
	.st35{fill:#3C3C3C;}
	.st36{opacity:0.4;fill:none;stroke:#9E9E9E;stroke-miterlimit:10;}
	.st37{fill:#C4C4C4;}
	.st38{fill:#4C4C4C;stroke:#939393;stroke-miterlimit:10;}
	.st39{fill:none;stroke:#9E9E9E;stroke-miterlimit:10;}
	.st40{clip-path:url(#SVGID_26_);fill:#FFFFFF;}
	.st41{clip-path:url(#SVGID_28_);fill:#FFFFFF;}
	.st42{clip-path:url(#SVGID_30_);fill:#FFFFFF;}
	.st43{clip-path:url(#SVGID_32_);fill:#FFFFFF;}
	.st44{fill:url(#SVGID_33_);}
	.st45{clip-path:url(#SVGID_35_);}
	.st46{clip-path:url(#SVGID_37_);}
	.st47{fill:none;stroke:#006C93;stroke-miterlimit:10;}
	.st48{clip-path:url(#SVGID_39_);fill:#FFFFFF;}
	.st49{clip-path:url(#SVGID_41_);fill:#FFFFFF;}
	.st50{fill:#F0F7F6;}
	.st51{fill:url(#SVGID_42_);}
	.st52{fill:#FFFFFF;stroke:#376B8F;stroke-width:2;stroke-miterlimit:10;}
	
		.st53{fill:none;stroke:#376B8F;stroke-width:2;stroke-linecap:round;stroke-linejoin:round;stroke-miterlimit:10;stroke-dasharray:0,5;}
	
		.st54{fill:none;stroke:#376B8F;stroke-width:2;stroke-linecap:round;stroke-linejoin:round;stroke-miterlimit:10;stroke-dasharray:0,6;}
	
		.st55{fill:none;stroke:#376B8F;stroke-width:2;stroke-linecap:round;stroke-linejoin:round;stroke-miterlimit:10;stroke-dasharray:0,12;}
	
		.st56{fill:none;stroke:#376B8F;stroke-width:2;stroke-linecap:round;stroke-linejoin:round;stroke-miterlimit:10;stroke-dasharray:0,18;}
	.st57{fill:none;stroke:#376B8F;stroke-width:2;stroke-miterlimit:10;}
	.st58{clip-path:url(#SVGID_44_);}
	.st59{opacity:0;}
	.st60{fill:url(#SVGID_45_);}
	.st61{fill:url(#SVGID_46_);}
	.st62{fill:url(#SVGID_47_);}
	.st63{fill:none;}
	.st64{clip-path:url(#SVGID_49_);fill:#FFFFFF;}
	.st65{clip-path:url(#SVGID_51_);fill:#FFFFFF;}
	.st66{clip-path:url(#SVGID_53_);fill:#FFFFFF;}
	.st67{clip-path:url(#SVGID_55_);fill:#FFFFFF;}
	.st68{clip-path:url(#SVGID_57_);}
	.st69{fill:url(#SVGID_58_);}
	.st70{fill:none;stroke:#3C3C3C;stroke-width:2;stroke-miterlimit:10;}
	.st71{fill:url(#SVGID_59_);}
	.st72{fill:none;stroke:#C6E5D8;stroke-miterlimit:10;}
	.st73{fill:url(#SVGID_60_);}
	.st74{fill:url(#SVGID_61_);}
	.st75{clip-path:url(#SVGID_63_);}
	.st76{opacity:0;clip-path:url(#SVGID_63_);}
	.st77{fill:url(#SVGID_64_);}
	.st78{fill:#FFFFFF;stroke:#006C93;stroke-width:2;stroke-miterlimit:10;}
	.st79{fill:url(#SVGID_65_);}
	.st80{fill:url(#SVGID_66_);}
	.st81{opacity:0.5;clip-path:url(#SVGID_68_);}
	.st82{clip-path:url(#SVGID_68_);}
	.st83{opacity:0;clip-path:url(#SVGID_68_);}
	.st84{fill:url(#SVGID_69_);}
	.st85{fill:none;stroke:#006C93;stroke-width:2;stroke-miterlimit:10;}
	.st86{fill:url(#SVGID_70_);}
	.st87{fill:url(#SVGID_71_);}
	.st88{opacity:0.5;clip-path:url(#SVGID_73_);}
	.st89{clip-path:url(#SVGID_73_);}
	.st90{opacity:0;clip-path:url(#SVGID_73_);}
	.st91{fill:url(#SVGID_74_);}
	.st92{opacity:0;fill:#FFFFFF;stroke:#006C93;stroke-width:2;stroke-miterlimit:10;}
	.st93{fill:url(#SVGID_75_);}
	.st94{fill:url(#SVGID_76_);}
	.st95{opacity:0.5;}
	.st96{fill:#FF9D00;}
	.st97{fill:none;stroke:url(#SVGID_77_);stroke-width:2;stroke-miterlimit:10;}
	.st98{fill:none;stroke:url(#SVGID_78_);stroke-width:2;stroke-miterlimit:10;}
	.st99{fill:none;stroke:url(#SVGID_79_);stroke-width:2;stroke-miterlimit:10;}
	.st100{fill:#999B9E;}
	.st101{clip-path:url(#SVGID_81_);fill:url(#SVGID_82_);}
	.st102{clip-path:url(#SVGID_81_);}
	.st103{opacity:0.2;clip-path:url(#SVGID_84_);}
	.st104{opacity:0;clip-path:url(#SVGID_84_);}
	.st105{opacity:0;clip-path:url(#SVGID_84_);fill:url(#SVGID_85_);}
	.st106{clip-path:url(#SVGID_84_);fill:url(#SVGID_86_);}
	.st107{opacity:0;clip-path:url(#SVGID_84_);fill:url(#SVGID_87_);}
	.st108{clip-path:url(#SVGID_84_);}
	.st109{fill:#D5EFE5;}
	.st110{opacity:0.3;fill:none;stroke:#D8ECEB;stroke-miterlimit:10;}
	.st111{clip-path:url(#SVGID_89_);fill:url(#SVGID_90_);}
	.st112{clip-path:url(#SVGID_89_);}
	.st113{opacity:0.2;clip-path:url(#SVGID_92_);}
	.st114{fill:none;stroke:#439797;stroke-miterlimit:10;}
	.st115{opacity:0.4;fill:none;stroke:#C6E5D8;stroke-miterlimit:10;}
	.st116{fill:url(#SVGID_93_);}
	.st117{fill:none;stroke:#FFFFFF;stroke-width:2;stroke-miterlimit:10;}
	.st118{fill:url(#SVGID_94_);}
	.st119{fill:url(#SVGID_95_);}
	.st120{fill:#E7F2F1;stroke:#006C93;stroke-miterlimit:10;}
	.st121{clip-path:url(#SVGID_97_);fill:#FFFFFF;}
	.st122{clip-path:url(#SVGID_99_);fill:#FFFFFF;}
	.st123{clip-path:url(#SVGID_101_);fill:#FFFFFF;}
	.st124{clip-path:url(#SVGID_103_);fill:#FFFFFF;}
	.st125{fill:url(#SVGID_104_);}
	.st126{clip-path:url(#SVGID_106_);}
	.st127{clip-path:url(#SVGID_108_);}
	.st128{fill:url(#SVGID_109_);}
	.st129{fill:url(#SVGID_110_);}
	.st130{fill:#FF3B3B;}
	.st131{fill:url(#SVGID_111_);}
	.st132{fill:url(#SVGID_112_);}
	.st133{fill:url(#SVGID_113_);}
	.st134{fill:none;stroke:#439797;stroke-width:2;stroke-miterlimit:10;}
	.st135{clip-path:url(#SVGID_115_);}
	.st136{clip-path:url(#SVGID_119_);}
	.st137{clip-path:url(#SVGID_123_);}
	.st138{clip-path:url(#SVGID_127_);}
	.st139{fill:#FFAD36;}
	.st140{fill:#545454;stroke:#939393;stroke-miterlimit:10;}
	.st141{fill:url(#SVGID_130_);}
	.st142{fill:url(#SVGID_131_);}
	.st143{fill:url(#SVGID_132_);}
	.st144{fill:#DF1C24;}
	.st145{fill:#414042;}
	.st146{fill:url(#SVGID_133_);}
	.st147{fill:url(#f_31_);}
	.st148{fill:none;stroke:#000000;stroke-width:2;stroke-miterlimit:10;}
	.st149{clip-path:url(#SVGID_135_);fill:#FFFFFF;}
	.st150{clip-path:url(#SVGID_137_);fill:#FFFFFF;}
	.st151{clip-path:url(#SVGID_139_);fill:#FFFFFF;}
	.st152{clip-path:url(#SVGID_141_);fill:#FFFFFF;}
	.st153{fill:url(#SVGID_142_);}
	.st154{clip-path:url(#SVGID_144_);}
	.st155{clip-path:url(#SVGID_146_);}
	.st156{opacity:0.4;fill:none;stroke:#000000;stroke-miterlimit:10;}
	.st157{fill:url(#SVGID_147_);}
	.st158{fill:url(#SVGID_148_);}
	.st159{fill:none;stroke:#DF1C24;stroke-miterlimit:10;}
	.st160{fill:#231F20;}
	.st161{fill:#00BCFF;}
	.st162{fill:url(#SVGID_159_);}
	.st163{fill:url(#f_33_);}
	.st164{clip-path:url(#SVGID_160_);}
	.st165{fill:url(#SVGID_161_);}
	.st166{clip-path:url(#SVGID_162_);}
	.st167{opacity:0;clip-path:url(#SVGID_162_);}
	.st168{fill:url(#SVGID_163_);}
	.st169{fill:url(#SVGID_164_);}
	.st170{fill:url(#SVGID_165_);}
	.st171{clip-path:url(#SVGID_166_);}
	.st172{opacity:0;clip-path:url(#SVGID_166_);}
	.st173{fill:url(#SVGID_167_);}
	.st174{fill:url(#SVGID_168_);}
	.st175{fill:url(#SVGID_169_);}
	.st176{clip-path:url(#SVGID_170_);}
	.st177{opacity:0;clip-path:url(#SVGID_170_);}
	.st178{fill:url(#SVGID_171_);}
	.st179{fill:url(#SVGID_172_);}
	.st180{fill:url(#SVGID_173_);}
	.st181{fill:none;stroke:url(#SVGID_174_);stroke-width:2;stroke-miterlimit:10;}
	.st182{fill:none;stroke:url(#SVGID_175_);stroke-width:2;stroke-miterlimit:10;}
	.st183{fill:none;stroke:url(#SVGID_176_);stroke-width:2;stroke-miterlimit:10;}
	.st184{fill:url(#SVGID_177_);}
</style>
<g id="Слой_1">
	<g>
		<g>
			<path class="st17" d="M66.1,317.7c0,0-3,4.1-10.1,4.6s-12.2,5.4-12.2,5.4h22.3"/>
			<line class="st52" x1="63.9" y1="327.6" x2="38" y2="327.6"/>
			<polyline class="st52" points="66.2,317.7 3971,317.7 3971,327.6 63.9,327.6 			"/>
			<line class="st53" x1="12.9" y1="336.8" x2="3971" y2="336.8"/>
			<line class="st54" x1="46.8" y1="343.8" x2="3975.5" y2="343.8"/>
			<line class="st55" x1="28.9" y1="352.9" x2="3971" y2="352.9"/>
			<line class="st56" x1="1" y1="366.7" x2="3971" y2="366.7"/>
			<g>
				<polyline class="st52" points="78.7,332.3 78.7,325.8 84,323.1 97.2,323.1 99.3,325.8 99.3,332.3 				"/>
				<polyline class="st52" points="129.1,332.3 129.1,325.8 134.4,323.1 147.6,323.1 149.7,325.8 149.7,332.3 				"/>
				<polyline class="st52" points="179.5,332.3 179.5,325.8 184.9,323.1 198,323.1 200.1,325.8 200.1,332.3 				"/>
				<polyline class="st52" points="229.9,332.3 229.9,325.8 235.3,323.1 248.5,323.1 250.6,325.8 250.6,332.3 				"/>
				<polyline class="st52" points="280.4,332.3 280.4,325.8 285.7,323.1 298.9,323.1 301,325.8 301,332.3 				"/>
				<polyline class="st52" points="330.8,332.3 330.8,325.8 336.1,323.1 349.3,323.1 351.4,325.8 351.4,332.3 				"/>
				<polyline class="st52" points="381.2,332.3 381.2,325.8 386.6,323.1 399.7,323.1 401.8,325.8 401.8,332.3 				"/>
				<polyline class="st52" points="431.6,332.3 431.6,325.8 437,323.1 450.2,323.1 452.3,325.8 452.3,332.3 				"/>
				<polyline class="st52" points="482.1,332.3 482.1,325.8 487.4,323.1 500.6,323.1 502.7,325.8 502.7,332.3 				"/>
				<polyline class="st52" points="532.5,332.3 532.5,325.8 537.8,323.1 551,323.1 553.1,325.8 553.1,332.3 				"/>
				<polyline class="st52" points="582.9,332.3 582.9,325.8 588.2,323.1 601.4,323.1 603.5,325.8 603.5,332.3 				"/>
				<polyline class="st52" points="633.3,332.3 633.3,325.8 638.7,323.1 651.8,323.1 654,325.8 654,332.3 				"/>
				<polyline class="st52" points="683.8,332.3 683.8,325.8 689.1,323.1 702.3,323.1 704.4,325.8 704.4,332.3 				"/>
				<polyline class="st52" points="734.2,332.3 734.2,325.8 739.5,323.1 752.7,323.1 754.8,325.8 754.8,332.3 				"/>
				<polyline class="st52" points="784.6,332.3 784.6,325.8 789.9,323.1 803.1,323.1 805.2,325.8 805.2,332.3 				"/>
				<polyline class="st52" points="835,332.3 835,325.8 840.4,323.1 853.5,323.1 855.7,325.8 855.7,332.3 				"/>
				<polyline class="st52" points="885.5,332.3 885.5,325.8 890.8,323.1 904,323.1 906.1,325.8 906.1,332.3 				"/>
				<polyline class="st52" points="935.9,332.3 935.9,325.8 941.2,323.1 954.4,323.1 956.5,325.8 956.5,332.3 				"/>
				<polyline class="st52" points="986.3,332.3 986.3,325.8 991.6,323.1 1004.8,323.1 1006.9,325.8 1006.9,332.3 				"/>
				<polyline class="st52" points="1036.7,332.3 1036.7,325.8 1042.1,323.1 1055.2,323.1 1057.4,325.8 1057.4,332.3 				"/>
				<polyline class="st52" points="1087.2,332.3 1087.2,325.8 1092.5,323.1 1105.7,323.1 1107.8,325.8 1107.8,332.3 				"/>
				<polyline class="st52" points="1137.6,332.3 1137.6,325.8 1142.9,323.1 1156.1,323.1 1158.2,325.8 1158.2,332.3 				"/>
				<polyline class="st52" points="1188,332.3 1188,325.8 1193.3,323.1 1206.5,323.1 1208.6,325.8 1208.6,332.3 				"/>
				<polyline class="st52" points="1238.4,332.3 1238.4,325.8 1243.8,323.1 1256.9,323.1 1259.1,325.8 1259.1,332.3 				"/>
				<polyline class="st52" points="1288.8,332.3 1288.8,325.8 1294.2,323.1 1307.4,323.1 1309.5,325.8 1309.5,332.3 				"/>
				<polyline class="st52" points="1339.3,332.3 1339.3,325.8 1344.6,323.1 1357.8,323.1 1359.9,325.8 1359.9,332.3 				"/>
				<polyline class="st52" points="1389.7,332.3 1389.7,325.8 1395,323.1 1408.2,323.1 1410.3,325.8 1410.3,332.3 				"/>
				<polyline class="st52" points="1440.1,332.3 1440.1,325.8 1445.5,323.1 1458.6,323.1 1460.7,325.8 1460.7,332.3 				"/>
				<polyline class="st52" points="1490.5,332.3 1490.5,325.8 1495.9,323.1 1509.1,323.1 1511.2,325.8 1511.2,332.3 				"/>
				<polyline class="st52" points="1541,332.3 1541,325.8 1546.3,323.1 1559.5,323.1 1561.6,325.8 1561.6,332.3 				"/>
				<polyline class="st52" points="1591.4,332.3 1591.4,325.8 1596.7,323.1 1609.9,323.1 1612,325.8 1612,332.3 				"/>
				<polyline class="st52" points="1641.8,332.3 1641.8,325.8 1647.1,323.1 1660.3,323.1 1662.4,325.8 1662.4,332.3 				"/>
				<polyline class="st52" points="1692.2,332.3 1692.2,325.8 1697.6,323.1 1710.8,323.1 1712.9,325.8 1712.9,332.3 				"/>
				<polyline class="st52" points="1742.7,332.3 1742.7,325.8 1748,323.1 1761.2,323.1 1763.3,325.8 1763.3,332.3 				"/>
				<polyline class="st52" points="1793.1,332.3 1793.1,325.8 1798.4,323.1 1811.6,323.1 1813.7,325.8 1813.7,332.3 				"/>
				<polyline class="st52" points="1843.5,332.3 1843.5,325.8 1848.8,323.1 1862,323.1 1864.1,325.8 1864.1,332.3 				"/>
				<polyline class="st52" points="1893.9,332.3 1893.9,325.8 1899.3,323.1 1912.4,323.1 1914.6,325.8 1914.6,332.3 				"/>
				<polyline class="st52" points="1944.4,332.3 1944.4,325.8 1949.7,323.1 1962.9,323.1 1965,325.8 1965,332.3 				"/>
				<polyline class="st52" points="1994.8,332.3 1994.8,325.8 2000.1,323.1 2013.3,323.1 2015.4,325.8 2015.4,332.3 				"/>
				<polyline class="st52" points="2045.2,332.3 2045.2,325.8 2050.5,323.1 2063.7,323.1 2065.8,325.8 2065.8,332.3 				"/>
				<polyline class="st52" points="2095.6,332.3 2095.6,325.8 2101,323.1 2114.1,323.1 2116.3,325.8 2116.3,332.3 				"/>
				<polyline class="st52" points="2146.1,332.3 2146.1,325.8 2151.4,323.1 2164.6,323.1 2166.7,325.8 2166.7,332.3 				"/>
				<polyline class="st52" points="2196.5,332.3 2196.5,325.8 2201.8,323.1 2215,323.1 2217.1,325.8 2217.1,332.3 				"/>
				<polyline class="st52" points="2246.9,332.3 2246.9,325.8 2252.2,323.1 2265.4,323.1 2267.5,325.8 2267.5,332.3 				"/>
				<polyline class="st52" points="2297.3,332.3 2297.3,325.8 2302.7,323.1 2315.8,323.1 2318,325.8 2318,332.3 				"/>
				<polyline class="st52" points="2347.8,332.3 2347.8,325.8 2353.1,323.1 2366.3,323.1 2368.4,325.8 2368.4,332.3 				"/>
				<polyline class="st52" points="2398.2,332.3 2398.2,325.8 2403.5,323.1 2416.7,323.1 2418.8,325.8 2418.8,332.3 				"/>
				<polyline class="st52" points="2448.6,332.3 2448.6,325.8 2453.9,323.1 2467.1,323.1 2469.2,325.8 2469.2,332.3 				"/>
				<polyline class="st52" points="2499,332.3 2499,325.8 2504.4,323.1 2517.5,323.1 2519.7,325.8 2519.7,332.3 				"/>
				<polyline class="st52" points="2549.4,332.3 2549.4,325.8 2554.8,323.1 2568,323.1 2570.1,325.8 2570.1,332.3 				"/>
				<polyline class="st52" points="2599.9,332.3 2599.9,325.8 2605.2,323.1 2618.4,323.1 2620.5,325.8 2620.5,332.3 				"/>
				<polyline class="st52" points="2650.3,332.3 2650.3,325.8 2655.6,323.1 2668.8,323.1 2670.9,325.8 2670.9,332.3 				"/>
				<polyline class="st52" points="2700.7,332.3 2700.7,325.8 2706.1,323.1 2719.2,323.1 2721.3,325.8 2721.3,332.3 				"/>
				<polyline class="st52" points="2751.1,332.3 2751.1,325.8 2756.5,323.1 2769.7,323.1 2771.8,325.8 2771.8,332.3 				"/>
				<polyline class="st52" points="2801.6,332.3 2801.6,325.8 2806.9,323.1 2820.1,323.1 2822.2,325.8 2822.2,332.3 				"/>
				<polyline class="st52" points="2852,332.3 2852,325.8 2857.3,323.1 2870.5,323.1 2872.6,325.8 2872.6,332.3 				"/>
				<polyline class="st52" points="2902.4,332.3 2902.4,325.8 2907.7,323.1 2920.9,323.1 2923,325.8 2923,332.3 				"/>
				<polyline class="st52" points="2952.8,332.3 2952.8,325.8 2958.2,323.1 2971.4,323.1 2973.5,325.8 2973.5,332.3 				"/>
				<polyline class="st52" points="3003.3,332.3 3003.3,325.8 3008.6,323.1 3021.8,323.1 3023.9,325.8 3023.9,332.3 				"/>
				<polyline class="st52" points="3053.7,332.3 3053.7,325.8 3059,323.1 3072.2,323.1 3074.3,325.8 3074.3,332.3 				"/>
				<polyline class="st52" points="3104.1,332.3 3104.1,325.8 3109.4,323.1 3122.6,323.1 3124.7,325.8 3124.7,332.3 				"/>
				<polyline class="st52" points="3154.5,332.3 3154.5,325.8 3159.9,323.1 3173,323.1 3175.2,325.8 3175.2,332.3 				"/>
				<polyline class="st52" points="3205,332.3 3205,325.8 3210.3,323.1 3223.5,323.1 3225.6,325.8 3225.6,332.3 				"/>
				<polyline class="st52" points="3255.4,332.3 3255.4,325.8 3260.7,323.1 3273.9,323.1 3276,325.8 3276,332.3 				"/>
				<polyline class="st52" points="3305.8,332.3 3305.8,325.8 3311.1,323.1 3324.3,323.1 3326.4,325.8 3326.4,332.3 				"/>
				<polyline class="st52" points="3356.2,332.3 3356.2,325.8 3361.6,323.1 3374.7,323.1 3376.9,325.8 3376.9,332.3 				"/>
				<polyline class="st52" points="3406.7,332.3 3406.7,325.8 3412,323.1 3425.2,323.1 3427.3,325.8 3427.3,332.3 				"/>
				<polyline class="st52" points="3457.1,332.3 3457.1,325.8 3462.4,323.1 3475.6,323.1 3477.7,325.8 3477.7,332.3 				"/>
				<polyline class="st52" points="3507.5,332.3 3507.5,325.8 3512.8,323.1 3526,323.1 3528.1,325.8 3528.1,332.3 				"/>
				<polyline class="st52" points="3557.9,332.3 3557.9,325.8 3563.3,323.1 3576.4,323.1 3578.6,325.8 3578.6,332.3 				"/>
				<polyline class="st52" points="3608.4,332.3 3608.4,325.8 3613.7,323.1 3626.9,323.1 3629,325.8 3629,332.3 				"/>
				<polyline class="st52" points="3658.8,332.3 3658.8,325.8 3664.1,323.1 3677.3,323.1 3679.4,325.8 3679.4,332.3 				"/>
				<polyline class="st52" points="3709.2,332.3 3709.2,325.8 3714.5,323.1 3727.7,323.1 3729.8,325.8 3729.8,332.3 				"/>
				<polyline class="st52" points="3759.6,332.3 3759.6,325.8 3765,323.1 3778.1,323.1 3780.3,325.8 3780.3,332.3 				"/>
				<polyline class="st52" points="3810,332.3 3810,325.8 3815.4,323.1 3828.6,323.1 3830.7,325.8 3830.7,332.3 				"/>
				<polyline class="st52" points="3860.5,332.3 3860.5,325.8 3865.8,323.1 3879,323.1 3881.1,325.8 3881.1,332.3 				"/>
				<polyline class="st52" points="3910.9,332.3 3910.9,325.8 3916.2,323.1 3929.4,323.1 3931.5,325.8 3931.5,332.3 				"/>
				<polyline class="st52" points="3961.3,332.3 3961.3,325.8 3966.7,323.1 3979.8,323.1 3981.9,325.8 3981.9,332.3 				"/>
			</g>
		</g>
		<g>
			<path class="st52" d="M2813.3,268.5c0,0,9.2,4.4,9.2,12h3.2v-15.9v-11.9h-3.2c0,10.1-9.2,10.1-9.2,10.1"/>
			<polyline class="st52" points="2787.8,262.8 2813,262.8 2813,269.6 2795.4,269.6 			"/>
			<path class="st52" d="M2054,268.5c0,0-9.2,4.4-9.2,12h-4.2v-15.9v-11.9h4.2c0,10.1,9.2,10.1,9.2,10.1"/>
			<polyline class="st52" points="2078.4,262.8 2053.2,262.8 2053.2,269.6 2070.9,269.6 			"/>
			<polygon class="st17" points="2073.5,250.2 2048.1,242 2048.1,239.4 2464,238.5 2463.8,250.2 2184.9,250.2 2183.7,285.6 
				2121.4,285.6 2121.4,250.2 			"/>
			<polygon class="st17" points="2793.7,250.2 2818.1,242 2818.1,239.4 2402.7,238.6 2403.5,250.2 2682.3,250.2 2683.6,285.6 
				2747.4,285.6 2747.4,250.2 			"/>
			<polyline class="st52" points="2225,249.3 2287.3,290.6 2445,290.6 2442.5,290.6 2580,290.6 2642.3,249.5 			"/>
			<path class="st52" d="M2399.5,12.1c6.4-6.6,17.6-10.9,30.4-10.9c12.8,0,24,4.4,30.4,10.9"/>
			<circle class="st52" cx="2763.4" cy="284.8" r="35.3"/>
			<circle class="st57" cx="2763.4" cy="284.8" r="14.9"/>
			<circle class="st52" cx="2660.8" cy="284.8" r="35.3"/>
			<circle class="st57" cx="2660.8" cy="284.8" r="14.9"/>
			<line class="st57" x1="2611.1" y1="240.1" x2="2818.1" y2="240.1"/>
			<polyline class="st57" points="2818.1,240.1 2818.1,242.8 2789.9,250.2 2742.4,250.2 2742.4,237.6 			"/>
			<polyline class="st57" points="2679.2,237.6 2679.2,250.2 2613.6,250.2 			"/>
			<line class="st57" x1="2742.4" y1="246.4" x2="2679.2" y2="246.4"/>
			<line class="st57" x1="2742.4" y1="252.7" x2="2679.2" y2="252.7"/>
			<path class="st52" d="M2442,265.4h156.2c9,0,16.4-7.4,16.4-16.4l0,0c0-9-7.3-16.4-16.4-16.4H2442"/>
			<line class="st57" x1="2601" y1="232.5" x2="2601" y2="264.5"/>
			<line class="st57" x1="2570.7" y1="230" x2="2570.7" y2="265.3"/>
			<line class="st57" x1="2537.1" y1="264.9" x2="2528.3" y2="289.8"/>
			<circle class="st57" cx="2661.3" cy="284.8" r="28.9"/>
			<circle class="st57" cx="2762.3" cy="284.8" r="28.9"/>
			<rect x="2704.5" y="252.7" class="st57" width="15.1" height="30.3"/>
			<line class="st57" x1="2699.4" y1="269.1" x2="2724.7" y2="269.1"/>
			<line class="st57" x1="2699.4" y1="264.1" x2="2724.7" y2="264.1"/>
			<line class="st57" x1="2699.4" y1="274.2" x2="2724.7" y2="274.2"/>
			<rect x="2645.2" y="249.8" class="st52" width="32.8" height="15.1"/>
			<rect x="2741.1" y="249.8" class="st52" width="32.8" height="15.1"/>
			<path class="st52" d="M2765.1,286.8c0,2.1-1.7,3.8-3.8,3.8h-103.5c-2.1,0-3.8-1.7-3.8-3.8l0,0c0-2.1,1.7-3.8,3.8-3.8h103.5
				C2763.4,283,2765.1,284.7,2765.1,286.8L2765.1,286.8z"/>
			<circle class="st52" cx="2103.8" cy="284.8" r="35.3"/>
			<circle class="st57" cx="2103.8" cy="284.8" r="14.9"/>
			<circle class="st52" cx="2206.4" cy="284.8" r="35.3"/>
			<circle class="st57" cx="2206.4" cy="284.8" r="14.9"/>
			<line class="st57" x1="2255.1" y1="240.1" x2="2048.1" y2="240.1"/>
			<polyline class="st57" points="2048.1,240.1 2048.1,242.8 2077.4,250.2 2123.9,250.2 2123.9,237.6 			"/>
			<polyline class="st57" points="2187,237.6 2187,250.2 2252.6,250.2 			"/>
			<line class="st57" x1="2123.9" y1="246.4" x2="2187" y2="246.4"/>
			<line class="st57" x1="2123.9" y1="252.7" x2="2187" y2="252.7"/>
			<path class="st52" d="M2444.5,265.4h-175.4c-9,0-16.4-7.4-16.4-16.4l0,0c0-9,7.3-16.4,16.4-16.4h175.4"/>
			<line class="st57" x1="2265.2" y1="232.5" x2="2265.2" y2="264.5"/>
			<line class="st57" x1="2295.5" y1="230" x2="2295.5" y2="265.3"/>
			<line class="st57" x1="2330.1" y1="264.9" x2="2338.9" y2="289.8"/>
			<circle class="st57" cx="2205.9" cy="284.8" r="28.9"/>
			<circle class="st57" cx="2105" cy="284.8" r="28.9"/>
			<rect x="2146.6" y="252.7" class="st57" width="15.1" height="30.3"/>
			<line class="st57" x1="2166.8" y1="269.1" x2="2141.5" y2="269.1"/>
			<line class="st57" x1="2166.8" y1="264.1" x2="2141.5" y2="264.1"/>
			<line class="st57" x1="2166.8" y1="274.2" x2="2141.5" y2="274.2"/>
			<rect x="2188.2" y="249.8" class="st52" width="32.8" height="15.1"/>
			<rect x="2092.3" y="249.8" class="st52" width="32.8" height="15.1"/>
			<path class="st52" d="M2212.2,286.8c0-2.1-1.7-3.8-3.8-3.8h-103.5c-2.1,0-3.8,1.7-3.8,3.8l0,0c0,2.1,1.7,3.8,3.8,3.8h103.5
				C2210.5,290.6,2212.2,288.9,2212.2,286.8L2212.2,286.8z"/>
			<path class="st52" d="M2449.5,232.5h-295.3c-52.7,0-75.8-43.5-75.8-96.3v-0.9c0-52.7,23.1-94.7,75.8-94.7h295.3"/>
			<line class="st57" x1="2139" y1="40.7" x2="2139" y2="230"/>
			<line class="st57" x1="2156.7" y1="40.7" x2="2156.7" y2="231.7"/>
			<path class="st52" d="M2449.5,232.5H2713c52.7,0,74.8-43.5,74.8-96.3v-0.9c0-52.7-22-94.7-74.8-94.7h-263.5"/>
			<line class="st57" x1="2727.2" y1="40.7" x2="2727.2" y2="230"/>
			<line class="st57" x1="2709.5" y1="40.7" x2="2709.5" y2="231.7"/>
			<rect x="2604.8" y="188.4" class="st57" width="83.3" height="20.2"/>
			<polygon class="st52" points="2472.2,40.7 2386.4,40.7 2386.4,18 2391.5,18 2391.5,12.9 2467.2,12.9 2467.2,18 2472.2,18 			"/>
			<line class="st57" x1="2391.5" y1="19.2" x2="2467.2" y2="19.2"/>
			<rect x="2368.7" y="30.6" class="st52" width="17.7" height="10.1"/>
			<rect x="2472.2" y="23" class="st52" width="30.3" height="17.7"/>
		</g>
		<g>
			<g>
				<polyline class="st52" points="3017.4,249.3 3079.7,290.6 3237.5,290.6 3234.9,290.6 3372.5,290.6 3434.8,249.5 				"/>
				<polygon class="st17" points="2867.3,250.2 2840.6,242.5 2840.6,240 3257.1,238.8 3257.5,250.2 2978.7,250.2 2977.4,285.6 
					2913.8,285.6 2913.8,250.2 				"/>
				<polygon class="st17" points="3587.4,250.2 3613.1,242.5 3613.1,240 3197.1,238.9 3197.2,250.2 3476,250.2 3477.3,285.6 
					3539.9,285.6 3539.9,250.2 				"/>
				<path class="st52" d="M3605.8,268.5c0,0,9.2,4.4,9.2,12h3.2v-15.9v-11.9h-3.2c0,10.1-9.2,10.1-9.2,10.1"/>
				<polyline class="st52" points="3580.3,262.8 3605.5,262.8 3605.5,269.6 3587.8,269.6 				"/>
				<path class="st52" d="M2846.4,268.5c0,0-9.2,4.4-9.2,12h-4.2v-15.9v-11.9h4.2c0,10.1,9.2,10.1,9.2,10.1"/>
				<polyline class="st52" points="2870.9,262.8 2845.7,262.8 2845.7,269.6 2863.3,269.6 				"/>
				<polyline class="st52" points="3597.9,240.1 3597.9,224.2 3580.8,207.3 2871.4,207.3 2853.2,224.2 2853.2,240.1 				"/>
				<circle class="st52" cx="3555.9" cy="284.8" r="35.3"/>
				<circle class="st57" cx="3555.9" cy="284.8" r="14.9"/>
				<circle class="st52" cx="3453.3" cy="284.8" r="35.3"/>
				<circle class="st57" cx="3453.3" cy="284.8" r="14.9"/>
				<line class="st57" x1="3403.6" y1="240.1" x2="3611.4" y2="240.1"/>
				<polyline class="st57" points="3610.6,240.1 3610.6,242.8 3582.4,250.2 3534.8,250.2 3534.8,237.6 				"/>
				<polyline class="st57" points="3471.7,237.6 3471.7,250.2 3406.1,250.2 				"/>
				<line class="st57" x1="3534.8" y1="246.4" x2="3471.7" y2="246.4"/>
				<line class="st57" x1="3534.8" y1="252.7" x2="3471.7" y2="252.7"/>
				<path class="st52" d="M3234.4,265.4h156.2c9,0,16.4-7.4,16.4-16.4l0,0c0-9-7.3-16.4-16.4-16.4h-156.2"/>
				<line class="st57" x1="3393.5" y1="232.5" x2="3393.5" y2="262.8"/>
				<line class="st57" x1="3363.2" y1="232.5" x2="3363.2" y2="264.5"/>
				<line class="st57" x1="3329.6" y1="264.9" x2="3320.8" y2="289.8"/>
				<circle class="st57" cx="3453.8" cy="284.8" r="28.9"/>
				<circle class="st57" cx="3554.8" cy="284.8" r="28.9"/>
				<rect x="3497" y="252.7" class="st57" width="15.1" height="30.3"/>
				<line class="st57" x1="3491.9" y1="269.1" x2="3517.2" y2="269.1"/>
				<line class="st57" x1="3491.9" y1="264.1" x2="3517.2" y2="264.1"/>
				<line class="st57" x1="3491.9" y1="274.2" x2="3517.2" y2="274.2"/>
				<rect x="3437.6" y="249.8" class="st52" width="32.8" height="15.1"/>
				<rect x="3533.6" y="249.8" class="st52" width="32.8" height="15.1"/>
				<path class="st52" d="M3557.5,286.8c0,2.1-1.7,3.8-3.8,3.8h-103.5c-2.1,0-3.8-1.7-3.8-3.8l0,0c0-2.1,1.7-3.8,3.8-3.8h103.5
					C3555.9,283,3557.5,284.7,3557.5,286.8L3557.5,286.8z"/>
				<circle class="st52" cx="2896.3" cy="284.8" r="35.3"/>
				<circle class="st57" cx="2896.3" cy="284.8" r="14.9"/>
				<circle class="st52" cx="2998.9" cy="284.8" r="35.3"/>
				<circle class="st57" cx="2998.9" cy="284.8" r="14.9"/>
				<line class="st57" x1="3047.6" y1="240.1" x2="2840.6" y2="240.1"/>
				<polyline class="st57" points="2840.6,240.1 2840.6,242.8 2869.8,250.2 2916.3,250.2 2916.3,237.6 				"/>
				<polyline class="st57" points="2979.5,237.6 2979.5,250.2 3045.1,250.2 				"/>
				<line class="st57" x1="2916.3" y1="246.4" x2="2979.5" y2="246.4"/>
				<line class="st57" x1="2916.3" y1="252.7" x2="2979.5" y2="252.7"/>
				<path class="st52" d="M3236.9,265.4h-175.4c-9,0-16.4-7.4-16.4-16.4l0,0c0-9,7.3-16.4,16.4-16.4h175.4"/>
				<line class="st57" x1="3057.7" y1="232.5" x2="3057.7" y2="262.8"/>
				<line class="st57" x1="3088" y1="232.5" x2="3088" y2="264.5"/>
				<line class="st57" x1="3122.6" y1="264.9" x2="3131.4" y2="289.8"/>
				<circle class="st57" cx="2998.4" cy="284.8" r="28.9"/>
				<circle class="st57" cx="2897.4" cy="284.8" r="28.9"/>
				<rect x="2939.1" y="252.7" class="st57" width="15.1" height="30.3"/>
				<line class="st57" x1="2959.3" y1="269.1" x2="2934" y2="269.1"/>
				<line class="st57" x1="2959.3" y1="264.1" x2="2934" y2="264.1"/>
				<line class="st57" x1="2959.3" y1="274.2" x2="2934" y2="274.2"/>
				<rect x="2980.7" y="249.8" class="st52" width="32.8" height="15.1"/>
				<rect x="2884.8" y="249.8" class="st52" width="32.8" height="15.1"/>
				<path class="st52" d="M3004.7,286.8c0-2.1-1.7-3.8-3.8-3.8h-103.5c-2.1,0-3.8,1.7-3.8,3.8l0,0c0,2.1,1.7,3.8,3.8,3.8h103.5
					C3003,290.6,3004.7,288.9,3004.7,286.8L3004.7,286.8z"/>
				<rect x="2853.2" y="40.7" class="st52" width="744.7" height="10.1"/>
				<polygon class="st52" points="3542.9,207.3 2909.3,207.3 2853.7,50.8 3598.4,50.8 				"/>
				<line class="st57" x1="2853.2" y1="226.2" x2="3597.9" y2="226.2"/>
				<line class="st57" x1="2871.4" y1="206.5" x2="2894.1" y2="164.8"/>
				<line class="st57" x1="3580.8" y1="206.5" x2="3558.1" y2="164.8"/>
				<line class="st57" x1="3102.4" y1="206" x2="3087.3" y2="52"/>
				<line class="st57" x1="3102.4" y1="52" x2="3117.5" y2="206"/>
				<line class="st57" x1="2940.8" y1="206" x2="2855" y2="52"/>
				<line class="st57" x1="2872.7" y1="52" x2="2958.5" y2="206"/>
				<line class="st57" x1="3349.8" y1="52" x2="3334.6" y2="206"/>
				<line class="st57" x1="3349.8" y1="206" x2="3364.9" y2="52"/>
				<line class="st57" x1="3579.5" y1="52" x2="3493.7" y2="206"/>
				<line class="st57" x1="3511.4" y1="206" x2="3597.2" y2="52"/>
			</g>
			<g>
				<g>
					<defs>
						<polyline id="SVGID_3_" points="2868.6,37.6 2886.4,24.8 2929.9,21.9 2937.6,28.1 2994.9,18.9 3037.2,26.6 3056.1,23.6 
							3071,25.3 3099.3,12.1 3127,10.9 3135.8,5.2 3159.3,12.7 3183.8,1.1 3213.6,8.3 3245.8,7.8 3274.5,21.3 3334.5,10.9 
							3349.2,18.8 3371.8,16.5 3404.6,30.4 3430,19.3 3469.1,25.3 3479.4,21 3513.3,31.2 3541.7,20.2 3555.1,28.6 3583.6,37 						
							"/>
					</defs>
					<clipPath id="SVGID_4_">
						<use xlink:href="#SVGID_3_"  style="overflow:visible;"/>
					</clipPath>
					<g style="clip-path:url(#SVGID_4_);">
						<line class="st53" x1="2881.5" y1="32.4" x2="3569.4" y2="32.4"/>
						<line class="st53" x1="2876.5" y1="24.8" x2="3564.4" y2="24.8"/>
						<line class="st53" x1="2881.5" y1="17.2" x2="3569.4" y2="17.2"/>
						<line class="st53" x1="2876.5" y1="9.6" x2="3564.4" y2="9.6"/>
					</g>
				</g>
				<polyline class="st57" points="2868.6,37.6 2886.4,24.8 2929.9,21.9 2937.6,28.1 2994.9,18.9 3037.2,26.6 3056.1,23.6 
					3071,25.3 3099.3,12.1 3127,10.9 3135.8,5.2 3159.3,12.7 3183.8,1.1 3213.6,8.3 3245.8,7.8 3274.5,21.3 3334.5,10.9 
					3349.2,18.8 3371.8,16.5 3404.6,30.4 3430,19.3 3469.1,25.3 3479.4,21 3513.3,31.2 3541.7,20.2 3555.1,28.6 3583.6,37 				"/>
			</g>
		</g>
		<g>
			<polygon class="st17" points="1278.2,250.2 1251.5,241.9 1251.5,240.1 1243.9,240.1 1243.9,222.4 1668.7,222.4 1668.4,250.2 
				1389.6,250.2 1388.3,285.6 1324.7,285.6 1324.7,250.2 			"/>
			<polygon class="st17" points="1998.4,250.2 2024,241.9 2024,240.1 2031.5,240.1 2031.5,222.4 1607.9,222.4 1608.1,250.2 
				1887,250.2 1888.2,285.6 1950.8,285.6 1950.8,250.2 			"/>
			<path class="st52" d="M2021.7,268.5c0,0,9.2,4.4,9.2,12h3.2v-15.9v-11.9h-3.2c0,10.1-9.2,10.1-9.2,10.1"/>
			<polyline class="st52" points="1996.2,262.8 2021.4,262.8 2021.4,269.6 2003.8,269.6 			"/>
			<polyline class="st52" points="1425.8,249.3 1488.1,290.6 1633.2,290.6 1630.7,290.6 1788.4,290.6 1850.7,249.5 			"/>
			<path class="st52" d="M1254.8,268.5c0,0-9.2,4.4-9.2,12h-4.2v-15.9v-11.9h4.2c0,10.1,9.2,10.1,9.2,10.1"/>
			<polyline class="st52" points="1279.3,262.8 1254,262.8 1254,269.6 1271.7,269.6 			"/>
			<circle class="st52" cx="1971.8" cy="284.8" r="35.3"/>
			<circle class="st57" cx="1971.8" cy="284.8" r="14.9"/>
			<circle class="st52" cx="1869.2" cy="284.8" r="35.3"/>
			<circle class="st57" cx="1869.2" cy="284.8" r="14.9"/>
			<polyline class="st57" points="1819.5,240.1 2031.5,240.1 2031.5,222.4 1632.7,222.4 			"/>
			<polyline class="st57" points="2026.5,240.1 2026.5,242.8 1998.3,250.2 1950.8,250.2 1950.8,237.6 			"/>
			<polyline class="st57" points="1887.6,237.6 1887.6,250.2 1822,250.2 			"/>
			<line class="st57" x1="1950.8" y1="246.4" x2="1887.6" y2="246.4"/>
			<line class="st57" x1="1950.8" y1="252.7" x2="1887.6" y2="252.7"/>
			<path class="st52" d="M1630.2,265.4h176.4c9,0,16.4-7.4,16.4-16.4l0,0c0-9-7.3-16.4-16.4-16.4h-176.4"/>
			<line class="st57" x1="1809.4" y1="232.5" x2="1809.4" y2="263.7"/>
			<line class="st57" x1="1779.1" y1="231.7" x2="1779.1" y2="264.5"/>
			<line class="st57" x1="1745.5" y1="264.9" x2="1736.7" y2="289.8"/>
			<polyline class="st52" points="1630.2,222.4 1983.6,222.4 1983.6,23 1630.2,23 			"/>
			<circle class="st57" cx="1869.7" cy="284.8" r="28.9"/>
			<circle class="st57" cx="1970.7" cy="284.8" r="28.9"/>
			<rect x="1912.9" y="252.7" class="st57" width="15.1" height="30.3"/>
			<line class="st57" x1="1907.8" y1="269.1" x2="1933.1" y2="269.1"/>
			<line class="st57" x1="1907.8" y1="264.1" x2="1933.1" y2="264.1"/>
			<line class="st57" x1="1907.8" y1="274.2" x2="1933.1" y2="274.2"/>
			<rect x="1853.6" y="249.8" class="st52" width="32.8" height="15.1"/>
			<rect x="1949.5" y="249.8" class="st52" width="32.8" height="15.1"/>
			<path class="st52" d="M1973.5,286.8c0,2.1-1.7,3.8-3.8,3.8h-103.5c-2.1,0-3.8-1.7-3.8-3.8l0,0c0-2.1,1.7-3.8,3.8-3.8h103.5
				C1971.8,283,1973.5,284.7,1973.5,286.8L1973.5,286.8z"/>
			<g class="st59">
				<rect x="1967.2" y="16.7" class="st52" width="22.7" height="22.7"/>
				<rect x="1939.4" y="16.7" class="st52" width="12.6" height="20.2"/>
				<rect x="1914.2" y="16.7" class="st52" width="12.6" height="20.2"/>
				<rect x="1888.9" y="16.7" class="st52" width="12.6" height="20.2"/>
				<rect x="1863.7" y="16.7" class="st52" width="12.6" height="20.2"/>
				<rect x="1838.4" y="16.7" class="st52" width="12.6" height="20.2"/>
				<rect x="1813.2" y="16.7" class="st52" width="12.6" height="20.2"/>
				<rect x="1787.9" y="16.7" class="st52" width="12.6" height="20.2"/>
				<rect x="1969.7" y="54.6" class="st52" width="20.2" height="12.6"/>
				<rect x="1969.7" y="79.8" class="st52" width="20.2" height="12.6"/>
				<rect x="1969.7" y="105.1" class="st52" width="20.2" height="12.6"/>
				<rect x="1969.7" y="130.3" class="st52" width="20.2" height="12.6"/>
				<rect x="1969.7" y="155.5" class="st52" width="20.2" height="12.6"/>
				<rect x="1762.7" y="16.7" class="st52" width="12.6" height="20.2"/>
				<rect x="1737.4" y="16.7" class="st52" width="12.6" height="20.2"/>
				<rect x="1712.2" y="16.7" class="st52" width="12.6" height="20.2"/>
				<rect x="1687" y="16.7" class="st52" width="12.6" height="20.2"/>
				<rect x="1661.7" y="16.7" class="st52" width="12.6" height="20.2"/>
				<rect x="1633.9" y="16.7" class="st52" width="12.6" height="20.2"/>
				<rect x="1285.6" y="16.7" class="st52" width="22.7" height="22.7"/>
				<rect x="1323.4" y="16.7" class="st52" width="12.6" height="20.2"/>
				<rect x="1348.7" y="16.7" class="st52" width="12.6" height="20.2"/>
				<rect x="1373.9" y="16.7" class="st52" width="12.6" height="20.2"/>
				<rect x="1399.2" y="16.7" class="st52" width="12.6" height="20.2"/>
				<rect x="1424.4" y="16.7" class="st52" width="12.6" height="20.2"/>
				<rect x="1449.7" y="16.7" class="st52" width="12.6" height="20.2"/>
				<rect x="1474.9" y="16.7" class="st52" width="12.6" height="20.2"/>
				<rect x="1285.6" y="54.6" class="st52" width="20.2" height="12.6"/>
				<rect x="1285.6" y="79.8" class="st52" width="20.2" height="12.6"/>
				<rect x="1285.6" y="105.1" class="st52" width="20.2" height="12.6"/>
				<rect x="1285.6" y="130.3" class="st52" width="20.2" height="12.6"/>
				<rect x="1285.6" y="155.5" class="st52" width="20.2" height="12.6"/>
				<rect x="1500.2" y="16.7" class="st52" width="12.6" height="20.2"/>
				<rect x="1525.4" y="16.7" class="st52" width="12.6" height="20.2"/>
				<rect x="1553.2" y="16.7" class="st52" width="12.6" height="20.2"/>
				<rect x="1580.9" y="16.7" class="st52" width="12.6" height="20.2"/>
				<rect x="1608.7" y="16.7" class="st52" width="12.6" height="20.2"/>
			</g>
			<circle class="st52" cx="1304.6" cy="284.8" r="35.3"/>
			<circle class="st57" cx="1304.6" cy="284.8" r="14.9"/>
			<circle class="st52" cx="1407.3" cy="284.8" r="35.3"/>
			<circle class="st57" cx="1407.3" cy="284.8" r="14.9"/>
			<polyline class="st57" points="1456,240.1 1243.9,240.1 1243.9,222.4 1632.7,222.4 			"/>
			<polyline class="st57" points="1249,240.1 1249,242.8 1278.2,250.2 1324.7,250.2 1324.7,237.6 			"/>
			<polyline class="st57" points="1387.8,237.6 1387.8,250.2 1453.5,250.2 			"/>
			<line class="st57" x1="1324.7" y1="246.4" x2="1387.8" y2="246.4"/>
			<line class="st57" x1="1324.7" y1="252.7" x2="1387.8" y2="252.7"/>
			<path class="st52" d="M1632.7,265.4H1470c-9,0-16.4-7.4-16.4-16.4l0,0c0-9,7.3-16.4,16.4-16.4h162.7"/>
			<line class="st57" x1="1466.1" y1="232.5" x2="1466.1" y2="263.7"/>
			<line class="st57" x1="1496.4" y1="231.7" x2="1496.4" y2="264.5"/>
			<line class="st57" x1="1530.9" y1="264.9" x2="1539.8" y2="289.8"/>
			<polyline class="st52" points="1632.7,222.4 1291.9,222.4 1291.9,23 1632.7,23 			"/>
			<circle class="st57" cx="1406.8" cy="284.8" r="28.9"/>
			<circle class="st57" cx="1305.8" cy="284.8" r="28.9"/>
			<rect x="1347.4" y="252.7" class="st57" width="15.1" height="30.3"/>
			<line class="st57" x1="1367.6" y1="269.1" x2="1342.4" y2="269.1"/>
			<line class="st57" x1="1367.6" y1="264.1" x2="1342.4" y2="264.1"/>
			<line class="st57" x1="1367.6" y1="274.2" x2="1342.4" y2="274.2"/>
			<g>
				<line class="st57" x1="1971" y1="207.3" x2="1971" y2="35.6"/>
				<line class="st57" x1="1945.7" y1="207.3" x2="1945.7" y2="35.6"/>
				<line class="st57" x1="1920.5" y1="207.3" x2="1920.5" y2="35.6"/>
				<line class="st57" x1="1895.2" y1="207.3" x2="1895.2" y2="35.6"/>
				<line class="st57" x1="1870" y1="207.3" x2="1870" y2="35.6"/>
				<line class="st57" x1="1844.7" y1="207.3" x2="1844.7" y2="35.6"/>
				<line class="st57" x1="1819.5" y1="207.3" x2="1819.5" y2="35.6"/>
				<line class="st57" x1="1794.2" y1="207.3" x2="1794.2" y2="35.6"/>
				<line class="st57" x1="1769" y1="207.3" x2="1769" y2="35.6"/>
				<line class="st57" x1="1743.8" y1="207.3" x2="1743.8" y2="35.6"/>
				<line class="st57" x1="1718.5" y1="207.3" x2="1718.5" y2="35.6"/>
				<line class="st57" x1="1693.3" y1="207.3" x2="1693.3" y2="35.6"/>
				<line class="st57" x1="1668" y1="207.3" x2="1668" y2="35.6"/>
				<line class="st57" x1="1642.8" y1="207.3" x2="1642.8" y2="35.6"/>
				<line class="st57" x1="1314.6" y1="207.3" x2="1314.6" y2="35.6"/>
				<line class="st57" x1="1339.9" y1="207.3" x2="1339.9" y2="35.6"/>
				<line class="st57" x1="1365.1" y1="207.3" x2="1365.1" y2="35.6"/>
				<line class="st57" x1="1390.3" y1="207.3" x2="1390.3" y2="35.6"/>
				<line class="st57" x1="1415.6" y1="207.3" x2="1415.6" y2="35.6"/>
				<line class="st57" x1="1440.8" y1="207.3" x2="1440.8" y2="35.6"/>
				<line class="st57" x1="1466.1" y1="207.3" x2="1466.1" y2="35.6"/>
				<line class="st57" x1="1491.3" y1="207.3" x2="1491.3" y2="35.6"/>
				<line class="st57" x1="1516.6" y1="207.3" x2="1516.6" y2="35.6"/>
				<line class="st57" x1="1541.8" y1="207.3" x2="1541.8" y2="35.6"/>
				<line class="st57" x1="1567" y1="207.3" x2="1567" y2="35.6"/>
				<line class="st57" x1="1592.3" y1="207.3" x2="1592.3" y2="35.6"/>
				<line class="st57" x1="1617.5" y1="207.3" x2="1617.5" y2="35.6"/>
			</g>
			<rect x="1389.1" y="249.8" class="st52" width="32.8" height="15.1"/>
			<rect x="1293.2" y="249.8" class="st52" width="32.8" height="15.1"/>
			<path class="st52" d="M1413.1,286.8c0-2.1-1.7-3.8-3.8-3.8h-103.5c-2.1,0-3.8,1.7-3.8,3.8l0,0c0,2.1,1.7,3.8,3.8,3.8h103.5
				C1411.4,290.6,1413.1,288.9,1413.1,286.8L1413.1,286.8z"/>
			<rect x="1936.9" y="210.2" class="st52" width="37.9" height="12.6"/>
			<rect x="1300.7" y="210.2" class="st52" width="37.9" height="12.6"/>
		</g>
		<g>
			<polyline class="st52" points="1205.7,33.1 1217.6,41.3 1217.6,222.5 1196,222.5 			"/>
			<polyline class="st52" points="463.9,33.1 452.1,41.3 452.1,222.5 473.7,222.5 			"/>
			<polygon class="st17" points="475.5,250.2 448.8,241.9 448.8,240.1 441.2,240.1 441.2,222.5 866,222.5 865.7,250.2 586.9,250.2 
				585.6,285.6 522,285.6 522,250.2 			"/>
			<polygon class="st17" points="1195.7,250.2 1221.3,241.9 1221.3,240.1 1228.8,240.1 1228.8,222.5 805.2,222.5 805.4,250.2 
				1084.3,250.2 1085.5,285.6 1148.1,285.6 1148.1,250.2 			"/>
			<path class="st52" d="M1219,268.5c0,0,9.2,4.4,9.2,12h3.2v-15.9v-11.9h-3.2c0,10.1-9.2,10.1-9.2,10.1"/>
			<polyline class="st52" points="1193.5,262.8 1218.7,262.8 1218.7,269.6 1201.1,269.6 			"/>
			<polyline class="st52" points="623.1,249.3 685.4,290.6 830.5,290.6 828,290.6 985.7,290.6 1048,249.5 			"/>
			<path class="st52" d="M452.1,268.5c0,0-9.2,4.4-9.2,12h-4.2v-15.9v-11.9h4.2c0,10.1,9.2,10.1,9.2,10.1"/>
			<polyline class="st52" points="476.6,262.8 451.3,262.8 451.3,269.6 469,269.6 			"/>
			<circle class="st52" cx="1169.1" cy="284.8" r="35.3"/>
			<circle class="st57" cx="1169.1" cy="284.8" r="14.9"/>
			<circle class="st52" cx="1066.5" cy="284.8" r="35.3"/>
			<circle class="st57" cx="1066.5" cy="284.8" r="14.9"/>
			<polyline class="st57" points="1016.8,240.1 1228.8,240.1 1228.8,222.5 830,222.5 			"/>
			<polyline class="st57" points="1223.8,240.1 1223.8,242.8 1195.6,250.2 1148.1,250.2 1148.1,237.6 			"/>
			<polyline class="st57" points="1084.9,237.6 1084.9,250.2 1019.3,250.2 			"/>
			<line class="st57" x1="1148.1" y1="246.4" x2="1084.9" y2="246.4"/>
			<line class="st57" x1="1148.1" y1="252.7" x2="1084.9" y2="252.7"/>
			<path class="st52" d="M827.5,265.4h176.4c9,0,16.4-7.4,16.4-16.4l0,0c0-9-7.3-16.4-16.4-16.4H827.5"/>
			<line class="st57" x1="1006.7" y1="232.5" x2="1006.7" y2="263.7"/>
			<line class="st57" x1="976.4" y1="231.7" x2="976.4" y2="264.5"/>
			<line class="st57" x1="942.8" y1="264.9" x2="934" y2="289.8"/>
			<polyline class="st52" points="826.9,222.5 1206.1,222.5 1206.1,23 826.9,23 			"/>
			<circle class="st57" cx="1067" cy="284.8" r="28.9"/>
			<circle class="st57" cx="1168" cy="284.8" r="28.9"/>
			<rect x="1110.2" y="252.7" class="st57" width="15.1" height="30.3"/>
			<line class="st57" x1="1105.1" y1="269.2" x2="1130.4" y2="269.2"/>
			<line class="st57" x1="1105.1" y1="264.1" x2="1130.4" y2="264.1"/>
			<line class="st57" x1="1105.1" y1="274.2" x2="1130.4" y2="274.2"/>
			<rect x="1050.9" y="249.8" class="st52" width="32.8" height="15.1"/>
			<rect x="1146.8" y="249.8" class="st52" width="32.8" height="15.1"/>
			<path class="st52" d="M1170.8,286.8c0,2.1-1.7,3.8-3.8,3.8h-103.5c-2.1,0-3.8-1.7-3.8-3.8l0,0c0-2.1,1.7-3.8,3.8-3.8H1167
				C1169.1,283,1170.8,284.7,1170.8,286.8L1170.8,286.8z"/>
			<circle class="st52" cx="501.9" cy="284.8" r="35.3"/>
			<circle class="st57" cx="501.9" cy="284.8" r="14.9"/>
			<circle class="st52" cx="604.6" cy="284.8" r="35.3"/>
			<circle class="st57" cx="604.6" cy="284.8" r="14.9"/>
			<polyline class="st57" points="653.3,240.1 441.2,240.1 441.2,222.5 830,222.5 			"/>
			<polyline class="st57" points="446.3,240.1 446.3,242.8 475.5,250.2 522,250.2 522,237.6 			"/>
			<polyline class="st57" points="585.1,237.6 585.1,250.2 650.8,250.2 			"/>
			<line class="st57" x1="522" y1="246.4" x2="585.1" y2="246.4"/>
			<line class="st57" x1="522" y1="252.7" x2="585.1" y2="252.7"/>
			<path class="st52" d="M830,265.4H667.3c-9,0-16.4-7.4-16.4-16.4l0,0c0-9,7.3-16.4,16.4-16.4H830"/>
			<line class="st57" x1="663.4" y1="232.5" x2="663.4" y2="263.7"/>
			<line class="st57" x1="693.7" y1="231.7" x2="693.7" y2="264.5"/>
			<line class="st57" x1="728.2" y1="264.9" x2="737.1" y2="289.8"/>
			<polyline class="st52" points="829.6,222.5 463.9,222.5 463.9,23 829.6,23 			"/>
			<circle class="st57" cx="604.1" cy="284.8" r="28.9"/>
			<circle class="st57" cx="503.1" cy="284.8" r="28.9"/>
			<rect x="544.7" y="252.7" class="st57" width="15.1" height="30.3"/>
			<line class="st57" x1="564.9" y1="269.2" x2="539.7" y2="269.2"/>
			<line class="st57" x1="564.9" y1="264.1" x2="539.7" y2="264.1"/>
			<line class="st57" x1="564.9" y1="274.2" x2="539.7" y2="274.2"/>
			<rect x="586.4" y="249.8" class="st52" width="32.8" height="15.1"/>
			<rect x="490.5" y="249.8" class="st52" width="32.8" height="15.1"/>
			<path class="st52" d="M610.4,286.8c0-2.1-1.7-3.8-3.8-3.8H503.1c-2.1,0-3.8,1.7-3.8,3.8l0,0c0,2.1,1.7,3.8,3.8,3.8h103.5
				C608.7,290.6,610.4,288.9,610.4,286.8L610.4,286.8z"/>
			<line class="st57" x1="463.9" y1="60.2" x2="1206.1" y2="60.2"/>
			<rect x="480.7" y="60.2" class="st57" width="64" height="162.2"/>
			<path class="st57" d="M535.2,125.9c0,4.5-3.7,8.2-8.2,8.2h-28.5c-4.5,0-8.2-3.7-8.2-8.2V79.1c0-4.5,3.7-8.2,8.2-8.2H527
				c4.5,0,8.2,3.7,8.2,8.2V125.9z"/>
			<path class="st57" d="M649.9,125.9c0,4.5-3.7,8.2-8.2,8.2h-53.1c-4.5,0-8.2-3.7-8.2-8.2V79.1c0-4.5,3.7-8.2,8.2-8.2h53.1
				c4.5,0,8.2,3.7,8.2,8.2V125.9z"/>
			<path class="st57" d="M759.7,125.9c0,4.5-3.7,8.2-8.2,8.2h-53.1c-4.5,0-8.2-3.7-8.2-8.2V79.1c0-4.5,3.7-8.2,8.2-8.2h53.1
				c4.5,0,8.2,3.7,8.2,8.2V125.9z"/>
			<path class="st57" d="M869.9,125.9c0,4.5-3.7,8.2-8.2,8.2h-53.1c-4.5,0-8.2-3.7-8.2-8.2V79.1c0-4.5,3.7-8.2,8.2-8.2h53.1
				c4.5,0,8.2,3.7,8.2,8.2V125.9z"/>
			<line class="st57" x1="580.3" y1="89.9" x2="650.8" y2="89.9"/>
			<line class="st57" x1="690.2" y1="89.9" x2="759.7" y2="89.9"/>
			<line class="st57" x1="800.3" y1="89.9" x2="869.9" y2="89.9"/>
			<line class="st57" x1="466.6" y1="142.2" x2="480.7" y2="142.2"/>
			<line class="st57" x1="544.7" y1="142.2" x2="861.7" y2="142.2"/>
			<rect x="1125" y="60.2" class="st57" width="64" height="162.2"/>
			<path class="st57" d="M1134.5,125.9c0,4.5,3.7,8.2,8.2,8.2h28.5c4.5,0,8.2-3.7,8.2-8.2V79.1c0-4.5-3.7-8.2-8.2-8.2h-28.5
				c-4.5,0-8.2,3.7-8.2,8.2V125.9z"/>
			<path class="st57" d="M1019.8,125.9c0,4.5,3.7,8.2,8.2,8.2h53.1c4.5,0,8.2-3.7,8.2-8.2V79.1c0-4.5-3.7-8.2-8.2-8.2H1028
				c-4.5,0-8.2,3.7-8.2,8.2V125.9z"/>
			<path class="st57" d="M910.8,125.9c0,4.5,3.7,8.2,8.2,8.2h53.1c4.5,0,8.2-3.7,8.2-8.2V79.1c0-4.5-3.7-8.2-8.2-8.2H919
				c-4.5,0-8.2,3.7-8.2,8.2V125.9z"/>
			<line class="st57" x1="1089.4" y1="89.9" x2="1018.9" y2="89.9"/>
			<line class="st57" x1="980.3" y1="89.9" x2="910.8" y2="89.9"/>
			<line class="st57" x1="1203.1" y1="142.2" x2="1189" y2="142.2"/>
			<line class="st57" x1="1125" y1="142.2" x2="861.7" y2="142.2"/>
			<line class="st57" x1="466.6" y1="158.6" x2="480.7" y2="158.6"/>
			<line class="st57" x1="544.7" y1="158.6" x2="861.7" y2="158.6"/>
			<line class="st57" x1="1203.1" y1="158.6" x2="1189" y2="158.6"/>
			<line class="st57" x1="1125" y1="158.6" x2="861.7" y2="158.6"/>
			<line class="st57" x1="466.6" y1="175" x2="480.7" y2="175"/>
			<line class="st57" x1="544.7" y1="175" x2="861.7" y2="175"/>
			<line class="st57" x1="1203.1" y1="175" x2="1189" y2="175"/>
			<line class="st57" x1="1125" y1="175" x2="861.7" y2="175"/>
			<line class="st57" x1="466.6" y1="191.4" x2="480.7" y2="191.4"/>
			<line class="st57" x1="544.7" y1="191.4" x2="861.7" y2="191.4"/>
			<line class="st57" x1="1203.1" y1="191.4" x2="1189" y2="191.4"/>
			<line class="st57" x1="1125" y1="191.4" x2="861.7" y2="191.4"/>
			<line class="st57" x1="466.6" y1="207.8" x2="480.7" y2="207.8"/>
			<line class="st57" x1="544.7" y1="207.8" x2="861.7" y2="207.8"/>
			<line class="st57" x1="1203.1" y1="207.8" x2="1189" y2="207.8"/>
			<line class="st57" x1="1125" y1="207.8" x2="861.7" y2="207.8"/>
			<rect x="589.7" y="16.7" class="st52" width="14.9" height="6.3"/>
			<rect x="586.5" y="10.4" class="st52" width="21.1" height="6.3"/>
			<rect x="1059.8" y="16.7" class="st52" width="14.9" height="6.3"/>
			<rect x="1056.7" y="10.4" class="st52" width="21.1" height="6.3"/>
			<rect x="752.2" y="16.7" class="st52" width="14.9" height="6.3"/>
			<rect x="749.1" y="10.4" class="st52" width="21.1" height="6.3"/>
			<rect x="900" y="16.7" class="st52" width="14.9" height="6.3"/>
			<rect x="896.8" y="10.4" class="st52" width="21.1" height="6.3"/>
		</g>
		<g>
			<rect x="2410.2" y="41.3" class="st52" width="40" height="192"/>
			<line class="st52" x1="2450.2" y1="69.3" x2="2410.2" y2="69.3"/>
			<line class="st52" x1="2450.2" y1="84.3" x2="2410.2" y2="84.3"/>
			<line class="st52" x1="2450.2" y1="109.3" x2="2410.2" y2="109.3"/>
			<line class="st52" x1="2450.2" y1="140.3" x2="2410.2" y2="140.3"/>
			<line class="st52" x1="2450.2" y1="165.3" x2="2410.2" y2="165.3"/>
			<line class="st52" x1="2450.2" y1="195.3" x2="2410.2" y2="195.3"/>
			<line class="st52" x1="2450.2" y1="97.3" x2="2410.2" y2="97.3"/>
			<line class="st52" x1="2450.2" y1="125.3" x2="2410.2" y2="125.3"/>
			<line class="st52" x1="2450.2" y1="152.3" x2="2410.2" y2="152.3"/>
			<line class="st52" x1="2450.2" y1="180.3" x2="2410.2" y2="180.3"/>
			<line class="st52" x1="2450.2" y1="208.3" x2="2410.2" y2="208.3"/>
		</g>
	</g>
</g>
<g id="Слой_2">
</g>
<g id="Слой_3">
</g>
<g id="Слой_4">
</g>
<g id="Слой_5">
</g>
</svg>
