<?xml version="1.0" encoding="utf-8"?>
<!-- Generator: Adobe Illustrator 22.0.1, SVG Export Plug-In . SVG Version: 6.00 Build 0)  -->
<svg version="1.1" xmlns="http://www.w3.org/2000/svg" xmlns:xlink="http://www.w3.org/1999/xlink" x="0px" y="0px"
	 viewBox="0 0 1922.7 367.7" style="enable-background:new 0 0 1922.7 367.7;" xml:space="preserve">
<style type="text/css">
	.st0{fill:url(#SVGID_5_);}
	.st1{fill:#DCDCDC;}
	.st2{fill:#00B0EE;}
	.st3{fill:#0080E4;}
	.st4{fill:#FF463F;}
	.st5{fill:#00A857;}
	.st6{fill:#4F2A06;}
	.st7{fill:#4E3962;}
	.st8{fill:#005568;}
	.st9{fill:none;stroke:#F7F7F7;stroke-width:2;stroke-miterlimit:10;}
	.st10{clip-path:url(#SVGID_8_);fill:#FFFFFF;}
	.st11{clip-path:url(#SVGID_10_);fill:#FFFFFF;}
	.st12{clip-path:url(#SVGID_12_);fill:#FFFFFF;}
	.st13{clip-path:url(#SVGID_14_);fill:#FFFFFF;}
	.st14{fill:url(#SVGID_15_);}
	.st15{clip-path:url(#SVGID_17_);}
	.st16{fill:none;stroke:#D8ECEB;stroke-miterlimit:10;}
	.st17{fill:#FFFFFF;}
	.st18{clip-path:url(#SVGID_20_);}
	.st19{fill:url(#SVGID_22_);}
	.st20{fill:url(#f_4_);}
	.st21{fill:#787878;}
	.st22{opacity:0.35;fill:none;stroke:#787878;stroke-miterlimit:10;}
	.st23{fill:#006C93;}
	.st24{fill:#FF9D00;stroke:#FFFFFF;stroke-miterlimit:10;}
	.st25{fill:#F7F7F7;}
	.st26{fill:#FFFFFF;stroke:#CACCCD;stroke-miterlimit:10;}
	.st27{fill:#9E9E9E;}
	.st28{fill:url(#SVGID_23_);}
	.st29{fill:#439797;}
	.st30{fill:none;stroke:#FFFFFF;stroke-miterlimit:10;}
	.st31{fill:#4C4C4C;}
	.st32{opacity:0.4;}
	.st33{clip-path:url(#SVGID_25_);}
	.st34{fill:none;stroke:#787878;stroke-miterlimit:10;}
	.st35{fill:#3C3C3C;}
	.st36{opacity:0.4;fill:none;stroke:#9E9E9E;stroke-miterlimit:10;}
	.st37{fill:#C4C4C4;}
	.st38{fill:#4C4C4C;stroke:#939393;stroke-miterlimit:10;}
	.st39{fill:none;stroke:#9E9E9E;stroke-miterlimit:10;}
	.st40{clip-path:url(#SVGID_27_);fill:#FFFFFF;}
	.st41{clip-path:url(#SVGID_29_);fill:#FFFFFF;}
	.st42{clip-path:url(#SVGID_31_);fill:#FFFFFF;}
	.st43{clip-path:url(#SVGID_33_);fill:#FFFFFF;}
	.st44{fill:url(#SVGID_34_);}
	.st45{clip-path:url(#SVGID_36_);}
	.st46{clip-path:url(#SVGID_38_);}
	.st47{fill:none;stroke:#006C93;stroke-miterlimit:10;}
	.st48{clip-path:url(#SVGID_40_);fill:#FFFFFF;}
	.st49{clip-path:url(#SVGID_42_);fill:#FFFFFF;}
	.st50{fill:#F0F7F6;}
	.st51{fill:url(#SVGID_43_);}
	.st52{fill:#FFFFFF;stroke:#376B8F;stroke-width:2;stroke-miterlimit:10;}
	
		.st53{fill:none;stroke:#376B8F;stroke-width:2;stroke-linecap:round;stroke-linejoin:round;stroke-miterlimit:10;stroke-dasharray:0,5;}
	
		.st54{fill:none;stroke:#376B8F;stroke-width:2;stroke-linecap:round;stroke-linejoin:round;stroke-miterlimit:10;stroke-dasharray:0,6;}
	
		.st55{fill:none;stroke:#376B8F;stroke-width:2;stroke-linecap:round;stroke-linejoin:round;stroke-miterlimit:10;stroke-dasharray:0,12;}
	
		.st56{fill:none;stroke:#376B8F;stroke-width:2;stroke-linecap:round;stroke-linejoin:round;stroke-miterlimit:10;stroke-dasharray:0,18;}
	.st57{fill:none;stroke:#376B8F;stroke-width:2;stroke-miterlimit:10;}
	.st58{clip-path:url(#SVGID_45_);}
	.st59{opacity:0;}
	.st60{fill:url(#SVGID_46_);}
	.st61{fill:url(#SVGID_47_);}
	.st62{fill:url(#SVGID_48_);}
	.st63{fill:none;}
	.st64{clip-path:url(#SVGID_50_);fill:#FFFFFF;}
	.st65{clip-path:url(#SVGID_52_);fill:#FFFFFF;}
	.st66{clip-path:url(#SVGID_54_);fill:#FFFFFF;}
	.st67{clip-path:url(#SVGID_56_);fill:#FFFFFF;}
	.st68{clip-path:url(#SVGID_58_);}
	.st69{fill:url(#SVGID_59_);}
	.st70{fill:none;stroke:#3C3C3C;stroke-width:2;stroke-miterlimit:10;}
	.st71{fill:url(#SVGID_60_);}
	.st72{fill:none;stroke:#C6E5D8;stroke-miterlimit:10;}
	.st73{fill:url(#SVGID_61_);}
	.st74{fill:url(#SVGID_62_);}
	.st75{clip-path:url(#SVGID_64_);}
	.st76{opacity:0;clip-path:url(#SVGID_64_);}
	.st77{fill:url(#SVGID_65_);}
	.st78{fill:#FFFFFF;stroke:#006C93;stroke-width:2;stroke-miterlimit:10;}
	.st79{fill:url(#SVGID_66_);}
	.st80{fill:url(#SVGID_67_);}
	.st81{opacity:0.5;clip-path:url(#SVGID_69_);}
	.st82{clip-path:url(#SVGID_69_);}
	.st83{opacity:0;clip-path:url(#SVGID_69_);}
	.st84{fill:url(#SVGID_70_);}
	.st85{fill:none;stroke:#006C93;stroke-width:2;stroke-miterlimit:10;}
	.st86{fill:url(#SVGID_71_);}
	.st87{fill:url(#SVGID_72_);}
	.st88{opacity:0.5;clip-path:url(#SVGID_74_);}
	.st89{clip-path:url(#SVGID_74_);}
	.st90{opacity:0;clip-path:url(#SVGID_74_);}
	.st91{fill:url(#SVGID_75_);}
	.st92{opacity:0;fill:#FFFFFF;stroke:#006C93;stroke-width:2;stroke-miterlimit:10;}
	.st93{fill:url(#SVGID_76_);}
	.st94{fill:url(#SVGID_77_);}
	.st95{opacity:0.5;}
	.st96{fill:#FF9D00;}
	.st97{fill:none;stroke:url(#SVGID_78_);stroke-width:2;stroke-miterlimit:10;}
	.st98{fill:none;stroke:url(#SVGID_79_);stroke-width:2;stroke-miterlimit:10;}
	.st99{fill:none;stroke:url(#SVGID_80_);stroke-width:2;stroke-miterlimit:10;}
	.st100{fill:#999B9E;}
	.st101{clip-path:url(#SVGID_82_);fill:url(#SVGID_83_);}
	.st102{clip-path:url(#SVGID_82_);}
	.st103{opacity:0.2;clip-path:url(#SVGID_85_);}
	.st104{opacity:0;clip-path:url(#SVGID_85_);}
	.st105{opacity:0;clip-path:url(#SVGID_85_);fill:url(#SVGID_86_);}
	.st106{clip-path:url(#SVGID_85_);fill:url(#SVGID_87_);}
	.st107{opacity:0;clip-path:url(#SVGID_85_);fill:url(#SVGID_88_);}
	.st108{clip-path:url(#SVGID_85_);}
	.st109{fill:#D5EFE5;}
	.st110{opacity:0.3;fill:none;stroke:#D8ECEB;stroke-miterlimit:10;}
	.st111{clip-path:url(#SVGID_90_);fill:url(#SVGID_91_);}
	.st112{clip-path:url(#SVGID_90_);}
	.st113{opacity:0.2;clip-path:url(#SVGID_93_);}
	.st114{fill:none;stroke:#439797;stroke-miterlimit:10;}
	.st115{opacity:0.4;fill:none;stroke:#C6E5D8;stroke-miterlimit:10;}
	.st116{fill:url(#SVGID_94_);}
	.st117{fill:none;stroke:#FFFFFF;stroke-width:2;stroke-miterlimit:10;}
	.st118{fill:url(#SVGID_95_);}
	.st119{fill:url(#SVGID_96_);}
	.st120{fill:#E7F2F1;stroke:#006C93;stroke-miterlimit:10;}
	.st121{clip-path:url(#SVGID_98_);fill:#FFFFFF;}
	.st122{clip-path:url(#SVGID_100_);fill:#FFFFFF;}
	.st123{clip-path:url(#SVGID_102_);fill:#FFFFFF;}
	.st124{clip-path:url(#SVGID_104_);fill:#FFFFFF;}
	.st125{fill:url(#SVGID_105_);}
	.st126{clip-path:url(#SVGID_107_);}
	.st127{clip-path:url(#SVGID_109_);}
	.st128{fill:url(#SVGID_110_);}
	.st129{fill:url(#SVGID_111_);}
	.st130{fill:#FF3B3B;}
	.st131{fill:url(#SVGID_112_);}
	.st132{fill:url(#SVGID_113_);}
	.st133{fill:url(#SVGID_114_);}
	.st134{fill:none;stroke:#439797;stroke-width:2;stroke-miterlimit:10;}
	.st135{clip-path:url(#SVGID_116_);}
	.st136{clip-path:url(#SVGID_120_);}
	.st137{clip-path:url(#SVGID_124_);}
	.st138{clip-path:url(#SVGID_128_);}
	.st139{fill:#FFAD36;}
	.st140{fill:#545454;stroke:#939393;stroke-miterlimit:10;}
	.st141{fill:url(#SVGID_131_);}
	.st142{fill:url(#SVGID_132_);}
	.st143{fill:url(#SVGID_133_);}
	.st144{fill:#DF1C24;}
	.st145{fill:#414042;}
	.st146{fill:url(#SVGID_134_);}
	.st147{fill:url(#f_31_);}
	.st148{fill:none;stroke:#000000;stroke-width:2;stroke-miterlimit:10;}
	.st149{clip-path:url(#SVGID_136_);fill:#FFFFFF;}
	.st150{clip-path:url(#SVGID_138_);fill:#FFFFFF;}
	.st151{clip-path:url(#SVGID_140_);fill:#FFFFFF;}
	.st152{clip-path:url(#SVGID_142_);fill:#FFFFFF;}
	.st153{fill:url(#SVGID_143_);}
	.st154{clip-path:url(#SVGID_145_);}
	.st155{clip-path:url(#SVGID_147_);}
	.st156{opacity:0.4;fill:none;stroke:#000000;stroke-miterlimit:10;}
	.st157{fill:url(#SVGID_148_);}
	.st158{fill:url(#SVGID_149_);}
	.st159{fill:none;stroke:#DF1C24;stroke-miterlimit:10;}
	.st160{fill:#231F20;}
	.st161{fill:#00BCFF;}
	.st162{fill:url(#SVGID_160_);}
	.st163{fill:url(#f_33_);}
	.st164{clip-path:url(#SVGID_161_);}
	.st165{fill:url(#SVGID_162_);}
	.st166{clip-path:url(#SVGID_163_);}
	.st167{opacity:0;clip-path:url(#SVGID_163_);}
	.st168{fill:url(#SVGID_164_);}
	.st169{fill:url(#SVGID_165_);}
	.st170{fill:url(#SVGID_166_);}
	.st171{clip-path:url(#SVGID_167_);}
	.st172{opacity:0;clip-path:url(#SVGID_167_);}
	.st173{fill:url(#SVGID_168_);}
	.st174{fill:url(#SVGID_169_);}
	.st175{fill:url(#SVGID_170_);}
	.st176{clip-path:url(#SVGID_171_);}
	.st177{opacity:0;clip-path:url(#SVGID_171_);}
	.st178{fill:url(#SVGID_172_);}
	.st179{fill:url(#SVGID_173_);}
	.st180{fill:url(#SVGID_174_);}
	.st181{fill:none;stroke:url(#SVGID_175_);stroke-width:2;stroke-miterlimit:10;}
	.st182{fill:none;stroke:url(#SVGID_176_);stroke-width:2;stroke-miterlimit:10;}
	.st183{fill:none;stroke:url(#SVGID_177_);stroke-width:2;stroke-miterlimit:10;}
	.st184{fill:url(#SVGID_178_);}
	.st185{fill:url(#SVGID_179_);}
	.st186{fill:url(#SVGID_180_);}
	.st187{fill:url(#SVGID_181_);}
	.st188{clip-path:url(#SVGID_182_);}
</style>
<g id="Слой_1">
	<g>
		<polyline class="st52" points="-613.5,314.1 3291.2,314.1 3291.2,324 -615.8,324 		"/>
		<line class="st53" x1="-666.9" y1="333.2" x2="3291.2" y2="333.2"/>
		<line class="st54" x1="-632.9" y1="340.2" x2="3295.8" y2="340.2"/>
		<line class="st55" x1="-650.8" y1="349.3" x2="3291.2" y2="349.3"/>
		<line class="st56" x1="-678.7" y1="363.1" x2="3291.2" y2="363.1"/>
		<g>
			<polyline class="st52" points="4.1,328.7 4.1,322.2 9.4,319.5 22.6,319.5 24.7,322.2 24.7,328.7 			"/>
			<polyline class="st52" points="54.5,328.7 54.5,322.2 59.8,319.5 73,319.5 75.1,322.2 75.1,328.7 			"/>
			<polyline class="st52" points="104.9,328.7 104.9,322.2 110.2,319.5 123.4,319.5 125.5,322.2 125.5,328.7 			"/>
			<polyline class="st52" points="155.3,328.7 155.3,322.2 160.7,319.5 173.8,319.5 176,322.2 176,328.7 			"/>
			<polyline class="st52" points="205.8,328.7 205.8,322.2 211.1,319.5 224.3,319.5 226.4,322.2 226.4,328.7 			"/>
			<polyline class="st52" points="256.2,328.7 256.2,322.2 261.5,319.5 274.7,319.5 276.8,322.2 276.8,328.7 			"/>
			<polyline class="st52" points="306.6,328.7 306.6,322.2 311.9,319.5 325.1,319.5 327.2,322.2 327.2,328.7 			"/>
			<polyline class="st52" points="357,328.7 357,322.2 362.4,319.5 375.5,319.5 377.7,322.2 377.7,328.7 			"/>
			<polyline class="st52" points="407.4,328.7 407.4,322.2 412.8,319.5 426,319.5 428.1,322.2 428.1,328.7 			"/>
			<polyline class="st52" points="457.9,328.7 457.9,322.2 463.2,319.5 476.4,319.5 478.5,322.2 478.5,328.7 			"/>
			<polyline class="st52" points="508.3,328.7 508.3,322.2 513.6,319.5 526.8,319.5 528.9,322.2 528.9,328.7 			"/>
			<polyline class="st52" points="558.7,328.7 558.7,322.2 564.1,319.5 577.2,319.5 579.3,322.2 579.3,328.7 			"/>
			<polyline class="st52" points="609.1,328.7 609.1,322.2 614.5,319.5 627.7,319.5 629.8,322.2 629.8,328.7 			"/>
			<polyline class="st52" points="659.6,328.7 659.6,322.2 664.9,319.5 678.1,319.5 680.2,322.2 680.2,328.7 			"/>
			<polyline class="st52" points="710,328.7 710,322.2 715.3,319.5 728.5,319.5 730.6,322.2 730.6,328.7 			"/>
			<polyline class="st52" points="760.4,328.7 760.4,322.2 765.8,319.5 778.9,319.5 781,322.2 781,328.7 			"/>
			<polyline class="st52" points="810.8,328.7 810.8,322.2 816.2,319.5 829.4,319.5 831.5,322.2 831.5,328.7 			"/>
			<polyline class="st52" points="861.3,328.7 861.3,322.2 866.6,319.5 879.8,319.5 881.9,322.2 881.9,328.7 			"/>
			<polyline class="st52" points="911.7,328.7 911.7,322.2 917,319.5 930.2,319.5 932.3,322.2 932.3,328.7 			"/>
			<polyline class="st52" points="962.1,328.7 962.1,322.2 967.4,319.5 980.6,319.5 982.7,322.2 982.7,328.7 			"/>
			<polyline class="st52" points="1012.5,328.7 1012.5,322.2 1017.9,319.5 1031,319.5 1033.2,322.2 1033.2,328.7 			"/>
			<polyline class="st52" points="1063,328.7 1063,322.2 1068.3,319.5 1081.5,319.5 1083.6,322.2 1083.6,328.7 			"/>
			<polyline class="st52" points="1113.4,328.7 1113.4,322.2 1118.7,319.5 1131.9,319.5 1134,322.2 1134,328.7 			"/>
			<polyline class="st52" points="1163.8,328.7 1163.8,322.2 1169.1,319.5 1182.3,319.5 1184.4,322.2 1184.4,328.7 			"/>
			<polyline class="st52" points="1214.2,328.7 1214.2,322.2 1219.6,319.5 1232.7,319.5 1234.9,322.2 1234.9,328.7 			"/>
			<polyline class="st52" points="1264.7,328.7 1264.7,322.2 1270,319.5 1283.2,319.5 1285.3,322.2 1285.3,328.7 			"/>
			<polyline class="st52" points="1315.1,328.7 1315.1,322.2 1320.4,319.5 1333.6,319.5 1335.7,322.2 1335.7,328.7 			"/>
			<polyline class="st52" points="1365.5,328.7 1365.5,322.2 1370.8,319.5 1384,319.5 1386.1,322.2 1386.1,328.7 			"/>
			<polyline class="st52" points="1415.9,328.7 1415.9,322.2 1421.3,319.5 1434.4,319.5 1436.6,322.2 1436.6,328.7 			"/>
			<polyline class="st52" points="1466.4,328.7 1466.4,322.2 1471.7,319.5 1484.9,319.5 1487,322.2 1487,328.7 			"/>
			<polyline class="st52" points="1516.8,328.7 1516.8,322.2 1522.1,319.5 1535.3,319.5 1537.4,322.2 1537.4,328.7 			"/>
			<polyline class="st52" points="1567.2,328.7 1567.2,322.2 1572.5,319.5 1585.7,319.5 1587.8,322.2 1587.8,328.7 			"/>
			<polyline class="st52" points="1617.6,328.7 1617.6,322.2 1623,319.5 1636.1,319.5 1638.3,322.2 1638.3,328.7 			"/>
			<polyline class="st52" points="1668,328.7 1668,322.2 1673.4,319.5 1686.6,319.5 1688.7,322.2 1688.7,328.7 			"/>
			<polyline class="st52" points="1718.5,328.7 1718.5,322.2 1723.8,319.5 1737,319.5 1739.1,322.2 1739.1,328.7 			"/>
			<polyline class="st52" points="1768.9,328.7 1768.9,322.2 1774.2,319.5 1787.4,319.5 1789.5,322.2 1789.5,328.7 			"/>
			<polyline class="st52" points="1819.3,328.7 1819.3,322.2 1824.7,319.5 1837.8,319.5 1839.9,322.2 1839.9,328.7 			"/>
			<polyline class="st52" points="1869.7,328.7 1869.7,322.2 1875.1,319.5 1888.3,319.5 1890.4,322.2 1890.4,328.7 			"/>
			<polyline class="st52" points="1920.2,328.7 1920.2,322.2 1925.5,319.5 1938.7,319.5 1940.8,322.2 1940.8,328.7 			"/>
		</g>
	</g>
	<g>
		<path class="st52" d="M1377.3,265c0,0-9.2,4.4-9.2,12h-4.2V261v-11.9h4.2c0,10.1,9.2,10.1,9.2,10.1"/>
		<polyline class="st52" points="1401.7,259.3 1376.5,259.3 1376.5,266 1394.2,266 		"/>
		<polygon class="st17" points="1396.8,246.6 1371.4,238.4 1371.4,235.9 1787.3,234.9 1787.1,246.6 1508.2,246.6 1507,282 
			1444.6,282 1444.6,246.6 		"/>
		<polygon class="st17" points="2117,246.6 2141.4,238.4 2141.4,235.9 1726,235 1726.8,246.6 2005.6,246.6 2006.9,282 2070.7,282 
			2070.7,246.6 		"/>
		<polyline class="st52" points="1548.3,245.7 1610.6,287 1768.3,287 1765.8,287 1903.3,287 1965.6,245.9 		"/>
		<path class="st52" d="M1722.8,8.6c6.4-6.6,17.6-10.9,30.4-10.9c12.8,0,24,4.4,30.4,10.9"/>
		<path class="st52" d="M1765.2,261.8h156.2c9,0,16.4-7.4,16.4-16.4l0,0c0-9-7.3-16.4-16.4-16.4h-156.2"/>
		<line class="st57" x1="1894" y1="226.4" x2="1894" y2="261.7"/>
		<line class="st57" x1="1860.4" y1="261.4" x2="1851.6" y2="286.2"/>
		<circle class="st52" cx="1427.1" cy="281.2" r="35.3"/>
		<circle class="st57" cx="1427.1" cy="281.2" r="14.9"/>
		<circle class="st52" cx="1529.7" cy="281.2" r="35.3"/>
		<circle class="st57" cx="1529.7" cy="281.2" r="14.9"/>
		<line class="st57" x1="1578.4" y1="236.5" x2="1371.4" y2="236.5"/>
		<polyline class="st57" points="1371.4,236.5 1371.4,239.2 1400.7,246.6 1447.2,246.6 1447.2,234 		"/>
		<polyline class="st57" points="1510.3,234 1510.3,246.6 1575.9,246.6 		"/>
		<line class="st57" x1="1447.2" y1="242.8" x2="1510.3" y2="242.8"/>
		<line class="st57" x1="1447.2" y1="249.2" x2="1510.3" y2="249.2"/>
		<path class="st52" d="M1767.8,261.8h-175.4c-9,0-16.4-7.4-16.4-16.4l0,0c0-9,7.3-16.4,16.4-16.4h175.4"/>
		<line class="st57" x1="1588.5" y1="229" x2="1588.5" y2="260.9"/>
		<line class="st57" x1="1618.8" y1="226.4" x2="1618.8" y2="261.7"/>
		<line class="st57" x1="1653.4" y1="261.4" x2="1662.2" y2="286.2"/>
		<circle class="st57" cx="1529.2" cy="281.2" r="28.9"/>
		<circle class="st57" cx="1428.3" cy="281.2" r="28.9"/>
		<rect x="1469.9" y="249.2" class="st57" width="15.1" height="30.3"/>
		<line class="st57" x1="1490.1" y1="265.6" x2="1464.8" y2="265.6"/>
		<line class="st57" x1="1490.1" y1="260.5" x2="1464.8" y2="260.5"/>
		<line class="st57" x1="1490.1" y1="270.6" x2="1464.8" y2="270.6"/>
		<rect x="1511.5" y="246.3" class="st52" width="32.8" height="15.1"/>
		<rect x="1415.6" y="246.3" class="st52" width="32.8" height="15.1"/>
		<path class="st52" d="M1535.5,283.2c0-2.1-1.7-3.8-3.8-3.8h-103.5c-2.1,0-3.8,1.7-3.8,3.8l0,0c0,2.1,1.7,3.8,3.8,3.8h103.5
			C1533.8,287,1535.5,285.3,1535.5,283.2L1535.5,283.2z"/>
		<path class="st52" d="M1772.8,229h-295.3c-52.7,0-75.8-43.5-75.8-96.3v-0.9c0-52.7,23.1-94.7,75.8-94.7h295.3"/>
		<line class="st57" x1="1462.3" y1="37.1" x2="1462.3" y2="226.4"/>
		<line class="st57" x1="1480" y1="37.1" x2="1480" y2="228.1"/>
		<path class="st52" d="M1772.8,229h263.5c52.7,0,74.8-43.5,74.8-96.3v-0.9c0-52.7-22-94.7-74.8-94.7h-263.5"/>
		<polygon class="st52" points="1795.5,37.1 1709.7,37.1 1709.7,14.4 1714.8,14.4 1714.8,9.3 1790.5,9.3 1790.5,14.4 1795.5,14.4 		
			"/>
		<line class="st57" x1="1714.8" y1="15.6" x2="1790.5" y2="15.6"/>
		<rect x="1692" y="27" class="st52" width="17.7" height="10.1"/>
		<rect x="1795.5" y="19.4" class="st52" width="30.3" height="17.7"/>
	</g>
	<g>
		<polygon class="st17" points="601.5,246.6 574.8,238.3 574.8,236.5 567.2,236.5 567.2,218.9 991.9,218.9 991.7,246.6 712.9,246.6 
			711.6,282 648,282 648,246.6 		"/>
		<polygon class="st17" points="1321.6,246.6 1347.3,238.3 1347.3,236.5 1354.8,236.5 1354.8,218.9 931.2,218.9 931.4,246.6 
			1210.3,246.6 1211.5,282 1274.1,282 1274.1,246.6 		"/>
		<path class="st52" d="M1345,265c0,0,9.2,4.4,9.2,12h3.2V261v-11.9h-3.2c0,10.1-9.2,10.1-9.2,10.1"/>
		<polyline class="st52" points="1319.5,259.3 1344.7,259.3 1344.7,266 1327.1,266 		"/>
		<polyline class="st52" points="749.1,245.7 811.4,287 956.5,287 954,287 1111.7,287 1174,245.9 		"/>
		<path class="st52" d="M578.1,265c0,0-9.2,4.4-9.2,12h-4.2V261v-11.9h4.2c0,10.1,9.2,10.1,9.2,10.1"/>
		<polyline class="st52" points="602.6,259.3 577.3,259.3 577.3,266 595,266 		"/>
		<circle class="st52" cx="1295.1" cy="281.2" r="35.3"/>
		<circle class="st57" cx="1295.1" cy="281.2" r="14.9"/>
		<circle class="st52" cx="1192.5" cy="281.2" r="35.3"/>
		<circle class="st57" cx="1192.5" cy="281.2" r="14.9"/>
		<polyline class="st57" points="1142.8,236.5 1354.8,236.5 1354.8,218.9 956,218.9 		"/>
		<polyline class="st57" points="1349.8,236.5 1349.8,239.2 1321.6,246.6 1274.1,246.6 1274.1,234 		"/>
		<polyline class="st57" points="1210.9,234 1210.9,246.6 1145.3,246.6 		"/>
		<line class="st57" x1="1274.1" y1="242.8" x2="1210.9" y2="242.8"/>
		<line class="st57" x1="1274.1" y1="249.2" x2="1210.9" y2="249.2"/>
		<path class="st52" d="M953.5,261.8h176.4c9,0,16.4-7.4,16.4-16.4l0,0c0-9-7.3-16.4-16.4-16.4H953.5"/>
		<line class="st57" x1="1132.7" y1="229" x2="1132.7" y2="260.1"/>
		<line class="st57" x1="1102.4" y1="228.1" x2="1102.4" y2="260.9"/>
		<line class="st57" x1="1068.8" y1="261.4" x2="1060" y2="286.2"/>
		<polyline class="st52" points="953.5,218.9 1306.9,218.9 1306.9,19.4 953.5,19.4 		"/>
		<circle class="st57" cx="1193" cy="281.2" r="28.9"/>
		<circle class="st57" cx="1294" cy="281.2" r="28.9"/>
		<rect x="1236.2" y="249.2" class="st57" width="15.1" height="30.3"/>
		<line class="st57" x1="1231.1" y1="265.6" x2="1256.4" y2="265.6"/>
		<line class="st57" x1="1231.1" y1="260.5" x2="1256.4" y2="260.5"/>
		<line class="st57" x1="1231.1" y1="270.6" x2="1256.4" y2="270.6"/>
		<rect x="1176.9" y="246.3" class="st52" width="32.8" height="15.1"/>
		<rect x="1272.8" y="246.3" class="st52" width="32.8" height="15.1"/>
		<path class="st52" d="M1296.8,283.2c0,2.1-1.7,3.8-3.8,3.8h-103.5c-2.1,0-3.8-1.7-3.8-3.8l0,0c0-2.1,1.7-3.8,3.8-3.8H1293
			C1295.1,279.4,1296.8,281.1,1296.8,283.2L1296.8,283.2z"/>
		<g class="st59">
			<rect x="1290.5" y="13.1" class="st52" width="22.7" height="22.7"/>
			<rect x="1262.7" y="13.1" class="st52" width="12.6" height="20.2"/>
			<rect x="1237.5" y="13.1" class="st52" width="12.6" height="20.2"/>
			<rect x="1212.2" y="13.1" class="st52" width="12.6" height="20.2"/>
			<rect x="1187" y="13.1" class="st52" width="12.6" height="20.2"/>
			<rect x="1161.7" y="13.1" class="st52" width="12.6" height="20.2"/>
			<rect x="1136.5" y="13.1" class="st52" width="12.6" height="20.2"/>
			<rect x="1111.2" y="13.1" class="st52" width="12.6" height="20.2"/>
			<rect x="1293" y="51" class="st52" width="20.2" height="12.6"/>
			<rect x="1293" y="76.2" class="st52" width="20.2" height="12.6"/>
			<rect x="1293" y="101.5" class="st52" width="20.2" height="12.6"/>
			<rect x="1293" y="126.7" class="st52" width="20.2" height="12.6"/>
			<rect x="1293" y="152" class="st52" width="20.2" height="12.6"/>
			<rect x="1086" y="13.1" class="st52" width="12.6" height="20.2"/>
			<rect x="1060.7" y="13.1" class="st52" width="12.6" height="20.2"/>
			<rect x="1035.5" y="13.1" class="st52" width="12.6" height="20.2"/>
			<rect x="1010.3" y="13.1" class="st52" width="12.6" height="20.2"/>
			<rect x="985" y="13.1" class="st52" width="12.6" height="20.2"/>
			<rect x="957.2" y="13.1" class="st52" width="12.6" height="20.2"/>
			<rect x="608.9" y="13.1" class="st52" width="22.7" height="22.7"/>
			<rect x="646.7" y="13.1" class="st52" width="12.6" height="20.2"/>
			<rect x="672" y="13.1" class="st52" width="12.6" height="20.2"/>
			<rect x="697.2" y="13.1" class="st52" width="12.6" height="20.2"/>
			<rect x="722.5" y="13.1" class="st52" width="12.6" height="20.2"/>
			<rect x="747.7" y="13.1" class="st52" width="12.6" height="20.2"/>
			<rect x="773" y="13.1" class="st52" width="12.6" height="20.2"/>
			<rect x="798.2" y="13.1" class="st52" width="12.6" height="20.2"/>
			<rect x="608.9" y="51" class="st52" width="20.2" height="12.6"/>
			<rect x="608.9" y="76.2" class="st52" width="20.2" height="12.6"/>
			<rect x="608.9" y="101.5" class="st52" width="20.2" height="12.6"/>
			<rect x="608.9" y="126.7" class="st52" width="20.2" height="12.6"/>
			<rect x="608.9" y="152" class="st52" width="20.2" height="12.6"/>
			<rect x="823.4" y="13.1" class="st52" width="12.6" height="20.2"/>
			<rect x="848.7" y="13.1" class="st52" width="12.6" height="20.2"/>
			<rect x="876.5" y="13.1" class="st52" width="12.6" height="20.2"/>
			<rect x="904.2" y="13.1" class="st52" width="12.6" height="20.2"/>
			<rect x="932" y="13.1" class="st52" width="12.6" height="20.2"/>
		</g>
		<circle class="st52" cx="627.9" cy="281.2" r="35.3"/>
		<circle class="st57" cx="627.9" cy="281.2" r="14.9"/>
		<circle class="st52" cx="730.6" cy="281.2" r="35.3"/>
		<circle class="st57" cx="730.6" cy="281.2" r="14.9"/>
		<polyline class="st57" points="779.3,236.5 567.2,236.5 567.2,218.9 956,218.9 		"/>
		<polyline class="st57" points="572.3,236.5 572.3,239.2 601.5,246.6 648,246.6 648,234 		"/>
		<polyline class="st57" points="711.1,234 711.1,246.6 776.7,246.6 		"/>
		<line class="st57" x1="648" y1="242.8" x2="711.1" y2="242.8"/>
		<line class="st57" x1="648" y1="249.2" x2="711.1" y2="249.2"/>
		<path class="st52" d="M956,261.8H793.3c-9,0-16.4-7.4-16.4-16.4l0,0c0-9,7.3-16.4,16.4-16.4H956"/>
		<line class="st57" x1="789.4" y1="229" x2="789.4" y2="260.1"/>
		<line class="st57" x1="819.7" y1="228.1" x2="819.7" y2="260.9"/>
		<line class="st57" x1="854.2" y1="261.4" x2="863.1" y2="286.2"/>
		<polyline class="st52" points="956,218.9 615.2,218.9 615.2,19.4 956,19.4 		"/>
		<circle class="st57" cx="730.1" cy="281.2" r="28.9"/>
		<circle class="st57" cx="629.1" cy="281.2" r="28.9"/>
		<rect x="670.7" y="249.2" class="st57" width="15.1" height="30.3"/>
		<line class="st57" x1="690.9" y1="265.6" x2="665.7" y2="265.6"/>
		<line class="st57" x1="690.9" y1="260.5" x2="665.7" y2="260.5"/>
		<line class="st57" x1="690.9" y1="270.6" x2="665.7" y2="270.6"/>
		<g>
			<line class="st57" x1="1294.3" y1="203.7" x2="1294.3" y2="32.1"/>
			<line class="st57" x1="1269" y1="203.7" x2="1269" y2="32.1"/>
			<line class="st57" x1="1243.8" y1="203.7" x2="1243.8" y2="32.1"/>
			<line class="st57" x1="1218.5" y1="203.7" x2="1218.5" y2="32.1"/>
			<line class="st57" x1="1193.3" y1="203.7" x2="1193.3" y2="32.1"/>
			<line class="st57" x1="1168" y1="203.7" x2="1168" y2="32.1"/>
			<line class="st57" x1="1142.8" y1="203.7" x2="1142.8" y2="32.1"/>
			<line class="st57" x1="1117.5" y1="203.7" x2="1117.5" y2="32.1"/>
			<line class="st57" x1="1092.3" y1="203.7" x2="1092.3" y2="32.1"/>
			<line class="st57" x1="1067.1" y1="203.7" x2="1067.1" y2="32.1"/>
			<line class="st57" x1="1041.8" y1="203.7" x2="1041.8" y2="32.1"/>
			<line class="st57" x1="1016.6" y1="203.7" x2="1016.6" y2="32.1"/>
			<line class="st57" x1="991.3" y1="203.7" x2="991.3" y2="32.1"/>
			<line class="st57" x1="966.1" y1="203.7" x2="966.1" y2="32.1"/>
			<line class="st57" x1="637.9" y1="203.7" x2="637.9" y2="32.1"/>
			<line class="st57" x1="663.1" y1="203.7" x2="663.1" y2="32.1"/>
			<line class="st57" x1="688.4" y1="203.7" x2="688.4" y2="32.1"/>
			<line class="st57" x1="713.6" y1="203.7" x2="713.6" y2="32.1"/>
			<line class="st57" x1="738.9" y1="203.7" x2="738.9" y2="32.1"/>
			<line class="st57" x1="764.1" y1="203.7" x2="764.1" y2="32.1"/>
			<line class="st57" x1="789.4" y1="203.7" x2="789.4" y2="32.1"/>
			<line class="st57" x1="814.6" y1="203.7" x2="814.6" y2="32.1"/>
			<line class="st57" x1="839.9" y1="203.7" x2="839.9" y2="32.1"/>
			<line class="st57" x1="865.1" y1="203.7" x2="865.1" y2="32.1"/>
			<line class="st57" x1="890.3" y1="203.7" x2="890.3" y2="32.1"/>
			<line class="st57" x1="915.6" y1="203.7" x2="915.6" y2="32.1"/>
			<line class="st57" x1="940.8" y1="203.7" x2="940.8" y2="32.1"/>
		</g>
		<rect x="712.4" y="246.3" class="st52" width="32.8" height="15.1"/>
		<rect x="616.4" y="246.3" class="st52" width="32.8" height="15.1"/>
		<path class="st52" d="M736.4,283.2c0-2.1-1.7-3.8-3.8-3.8H629.1c-2.1,0-3.8,1.7-3.8,3.8l0,0c0,2.1,1.7,3.8,3.8,3.8h103.5
			C734.7,287,736.4,285.3,736.4,283.2L736.4,283.2z"/>
		<rect x="1260.2" y="206.6" class="st52" width="37.9" height="12.6"/>
		<rect x="624" y="206.6" class="st52" width="37.9" height="12.6"/>
	</g>
	<g>
		<polyline class="st52" points="529,29.5 540.9,37.8 540.9,218.9 519.3,218.9 		"/>
		<polygon class="st17" points="-201.2,246.6 -227.9,238.3 -227.9,236.5 -235.5,236.5 -235.5,218.9 189.2,218.9 189,246.6 
			-89.8,246.6 -91.1,282 -154.7,282 -154.7,246.6 		"/>
		<polygon class="st17" points="518.9,246.6 544.6,238.3 544.6,236.5 552.1,236.5 552.1,218.9 128.5,218.9 128.7,246.6 407.6,246.6 
			408.8,282 471.4,282 471.4,246.6 		"/>
		<path class="st52" d="M542.3,265c0,0,9.2,4.4,9.2,12h3.2V261v-11.9h-3.2c0,10.1-9.2,10.1-9.2,10.1"/>
		<polyline class="st52" points="516.8,259.3 542,259.3 542,266 524.4,266 		"/>
		<polyline class="st52" points="-53.6,245.7 8.7,287 153.8,287 151.3,287 309,287 371.3,245.9 		"/>
		<circle class="st52" cx="492.4" cy="281.2" r="35.3"/>
		<circle class="st57" cx="492.4" cy="281.2" r="14.9"/>
		<circle class="st52" cx="389.8" cy="281.2" r="35.3"/>
		<circle class="st57" cx="389.8" cy="281.2" r="14.9"/>
		<polyline class="st57" points="340.1,236.5 552.1,236.5 552.1,218.9 153.3,218.9 		"/>
		<polyline class="st57" points="547.1,236.5 547.1,239.2 518.9,246.6 471.4,246.6 471.4,234 		"/>
		<polyline class="st57" points="408.2,234 408.2,246.6 342.6,246.6 		"/>
		<line class="st57" x1="471.4" y1="242.8" x2="408.2" y2="242.8"/>
		<line class="st57" x1="471.4" y1="249.2" x2="408.2" y2="249.2"/>
		<path class="st52" d="M150.8,261.8h176.4c9,0,16.4-7.4,16.4-16.4l0,0c0-9-7.3-16.4-16.4-16.4H150.8"/>
		<line class="st57" x1="330" y1="229" x2="330" y2="260.1"/>
		<line class="st57" x1="299.7" y1="228.1" x2="299.7" y2="260.9"/>
		<line class="st57" x1="266.1" y1="261.4" x2="257.3" y2="286.2"/>
		<polyline class="st52" points="150.2,218.9 529.4,218.9 529.4,19.4 150.2,19.4 		"/>
		<circle class="st57" cx="390.3" cy="281.2" r="28.9"/>
		<circle class="st57" cx="491.3" cy="281.2" r="28.9"/>
		<rect x="433.5" y="249.2" class="st57" width="15.1" height="30.3"/>
		<line class="st57" x1="428.4" y1="265.6" x2="453.7" y2="265.6"/>
		<line class="st57" x1="428.4" y1="260.5" x2="453.7" y2="260.5"/>
		<line class="st57" x1="428.4" y1="270.6" x2="453.7" y2="270.6"/>
		<rect x="374.2" y="246.3" class="st52" width="32.8" height="15.1"/>
		<rect x="470.1" y="246.3" class="st52" width="32.8" height="15.1"/>
		<path class="st52" d="M494.1,283.2c0,2.1-1.7,3.8-3.8,3.8H386.8c-2.1,0-3.8-1.7-3.8-3.8l0,0c0-2.1,1.7-3.8,3.8-3.8h103.5
			C492.4,279.5,494.1,281.1,494.1,283.2L494.1,283.2z"/>
		<polyline class="st57" points="-23.4,236.5 -235.5,236.5 -235.5,218.9 153.3,218.9 		"/>
		<path class="st52" d="M153.3,261.8H-9.4c-9,0-16.4-7.4-16.4-16.4l0,0c0-9,7.3-16.4,16.4-16.4h162.7"/>
		<line class="st57" x1="17" y1="228.1" x2="17" y2="260.9"/>
		<line class="st57" x1="51.5" y1="261.4" x2="60.4" y2="286.2"/>
		<polyline class="st52" points="152.9,218.9 -212.8,218.9 -212.8,19.4 152.9,19.4 		"/>
		<line class="st57" x1="-212.8" y1="56.6" x2="529.4" y2="56.6"/>
		<path class="st57" d="M83,122.3c0,4.5-3.7,8.2-8.2,8.2H21.7c-4.5,0-8.2-3.7-8.2-8.2V75.5c0-4.5,3.7-8.2,8.2-8.2h53.1
			c4.5,0,8.2,3.7,8.2,8.2V122.3z"/>
		<path class="st57" d="M193.2,122.3c0,4.5-3.7,8.2-8.2,8.2h-53.1c-4.5,0-8.2-3.7-8.2-8.2V75.5c0-4.5,3.7-8.2,8.2-8.2H185
			c4.5,0,8.2,3.7,8.2,8.2V122.3z"/>
		<line class="st57" x1="13.5" y1="86.3" x2="83" y2="86.3"/>
		<line class="st57" x1="123.6" y1="86.3" x2="193.2" y2="86.3"/>
		<line class="st57" x1="-132" y1="138.6" x2="185" y2="138.6"/>
		<rect x="448.3" y="56.6" class="st57" width="64" height="162.2"/>
		<path class="st57" d="M457.8,122.3c0,4.5,3.7,8.2,8.2,8.2h28.5c4.5,0,8.2-3.7,8.2-8.2V75.5c0-4.5-3.7-8.2-8.2-8.2H466
			c-4.5,0-8.2,3.7-8.2,8.2V122.3z"/>
		<path class="st57" d="M343.1,122.3c0,4.5,3.7,8.2,8.2,8.2h53.1c4.5,0,8.2-3.7,8.2-8.2V75.5c0-4.5-3.7-8.2-8.2-8.2h-53.1
			c-4.5,0-8.2,3.7-8.2,8.2V122.3z"/>
		<path class="st57" d="M234.1,122.3c0,4.5,3.7,8.2,8.2,8.2h53.1c4.5,0,8.2-3.7,8.2-8.2V75.5c0-4.5-3.7-8.2-8.2-8.2h-53.1
			c-4.5,0-8.2,3.7-8.2,8.2V122.3z"/>
		<line class="st57" x1="412.7" y1="86.3" x2="342.2" y2="86.3"/>
		<line class="st57" x1="303.6" y1="86.3" x2="234.1" y2="86.3"/>
		<line class="st57" x1="526.4" y1="138.6" x2="512.3" y2="138.6"/>
		<line class="st57" x1="448.3" y1="138.6" x2="185" y2="138.6"/>
		<line class="st57" x1="-132" y1="155" x2="185" y2="155"/>
		<line class="st57" x1="526.4" y1="155" x2="512.3" y2="155"/>
		<line class="st57" x1="448.3" y1="155" x2="185" y2="155"/>
		<line class="st57" x1="-132" y1="171.4" x2="185" y2="171.4"/>
		<line class="st57" x1="526.4" y1="171.4" x2="512.3" y2="171.4"/>
		<line class="st57" x1="448.3" y1="171.4" x2="185" y2="171.4"/>
		<line class="st57" x1="-132" y1="187.8" x2="185" y2="187.8"/>
		<line class="st57" x1="526.4" y1="187.8" x2="512.3" y2="187.8"/>
		<line class="st57" x1="448.3" y1="187.8" x2="185" y2="187.8"/>
		<line class="st57" x1="-132" y1="204.2" x2="185" y2="204.2"/>
		<line class="st57" x1="526.4" y1="204.2" x2="512.3" y2="204.2"/>
		<line class="st57" x1="448.3" y1="204.2" x2="185" y2="204.2"/>
		<rect x="383.1" y="13.1" class="st52" width="14.9" height="6.3"/>
		<rect x="380" y="6.8" class="st52" width="21.1" height="6.3"/>
		<rect x="75.5" y="13.1" class="st52" width="14.9" height="6.3"/>
		<rect x="72.4" y="6.8" class="st52" width="21.1" height="6.3"/>
		<rect x="223.3" y="13.1" class="st52" width="14.9" height="6.3"/>
		<rect x="220.1" y="6.8" class="st52" width="21.1" height="6.3"/>
	</g>
	<g>
		<rect x="1733.5" y="37.7" class="st52" width="40" height="192"/>
		<line class="st52" x1="1773.5" y1="65.7" x2="1733.5" y2="65.7"/>
		<line class="st52" x1="1773.5" y1="80.7" x2="1733.5" y2="80.7"/>
		<line class="st52" x1="1773.5" y1="105.7" x2="1733.5" y2="105.7"/>
		<line class="st52" x1="1773.5" y1="136.7" x2="1733.5" y2="136.7"/>
		<line class="st52" x1="1773.5" y1="161.7" x2="1733.5" y2="161.7"/>
		<line class="st52" x1="1773.5" y1="191.7" x2="1733.5" y2="191.7"/>
		<line class="st52" x1="1773.5" y1="93.7" x2="1733.5" y2="93.7"/>
		<line class="st52" x1="1773.5" y1="121.7" x2="1733.5" y2="121.7"/>
		<line class="st52" x1="1773.5" y1="148.7" x2="1733.5" y2="148.7"/>
		<line class="st52" x1="1773.5" y1="176.7" x2="1733.5" y2="176.7"/>
		<line class="st52" x1="1773.5" y1="204.7" x2="1733.5" y2="204.7"/>
	</g>
</g>
<g id="Слой_2">
</g>
<g id="Слой_3">
</g>
<g id="Слой_4">
</g>
<g id="Слой_5">
</g>
</svg>
