<?xml version="1.0" encoding="utf-8"?>
<!-- Generator: Adobe Illustrator 22.0.1, SVG Export Plug-In . SVG Version: 6.00 Build 0)  -->
<svg version="1.1" xmlns="http://www.w3.org/2000/svg" xmlns:xlink="http://www.w3.org/1999/xlink" x="0px" y="0px"
	 viewBox="0 0 23.7 13.4" style="enable-background:new 0 0 23.7 13.4;" xml:space="preserve">
<style type="text/css">
	.st25{fill:#F7F7F7;}
</style>
<g id="Слой_1">
	<path class="st25" d="M20.4,8.5c0.8,0.8,1.6,1.5,2.3,2.3c0.3,0.4,0.6,0.8,0.8,1.2c0.3,0.6,0,1.3-0.5,1.3l-3.4,0
		c-0.9,0.1-1.6-0.3-2.2-0.9c-0.5-0.5-0.9-1-1.4-1.5c-0.2-0.2-0.4-0.4-0.6-0.6c-0.5-0.3-0.9-0.2-1.1,0.3c-0.3,0.5-0.3,1.1-0.4,1.6
		c0,0.8-0.3,1-1.1,1.1c-1.7,0.1-3.4-0.2-4.9-1.1c-1.4-0.8-2.4-1.9-3.3-3.1C2.7,6.8,1.3,4.1,0.1,1.4c-0.3-0.6-0.1-0.9,0.6-1
		c1.1,0,2.2,0,3.4,0c0.5,0,0.8,0.3,0.9,0.7c0.6,1.5,1.4,2.9,2.3,4.2c0.2,0.4,0.5,0.7,0.9,0.9c0.4,0.3,0.7,0.2,0.9-0.3
		c0.1-0.3,0.2-0.6,0.2-0.9c0.1-1,0.1-2.1-0.1-3.1C9.1,1.4,8.8,1,8.1,0.9C7.8,0.8,7.8,0.7,8,0.5C8.3,0.2,8.5,0,9.1,0h3.9
		c0.6,0.1,0.7,0.4,0.8,1l0,4.3c0,0.2,0.1,0.9,0.5,1.1c0.3,0.1,0.6-0.2,0.8-0.4c0.9-1,1.6-2.2,2.2-3.4c0.3-0.5,0.5-1.1,0.7-1.6
		c0.2-0.4,0.4-0.6,0.9-0.6l3.8,0c0.1,0,0.2,0,0.3,0c0.6,0.1,0.8,0.4,0.6,1c-0.3,1-0.9,1.8-1.5,2.6c-0.6,0.9-1.3,1.7-1.9,2.6
		C19.6,7.4,19.7,7.8,20.4,8.5L20.4,8.5z"/>
</g>
</svg>
